Radio-Canada-Regular.ufo
<glyph name="exclam" format="2">
	<advance width="322"/>
	<unicode hex="0021"/>
	<outline>
		<contour>
			<point x="100" y="52" type="curve" smooth="yes"/>
			<point x="100" y="17"/>
			<point x="126" y="-10"/>
			<point x="161" y="-10" type="curve" smooth="yes"/>
			<point x="198" y="-10"/>
			<point x="222" y="17"/>
			<point x="222" y="52" type="curve" smooth="yes"/>
			<point x="222" y="88"/>
			<point x="198" y="115"/>
			<point x="161" y="115" type="curve" smooth="yes"/>
			<point x="126" y="115"/>
			<point x="100" y="88"/>
		</contour>
		<contour>
			<point x="126" y="210" type="line"/>
			<point x="196" y="210" type="line"/>
			<point x="212" y="515" type="line"/>
			<point x="212" y="690" type="line"/>
			<point x="110" y="690" type="line"/>
			<point x="110" y="515" type="line"/>
		</contour>
	</outline>
</glyph>
<glyph name="quotedbl" format="2">
	<advance width="402"/>
	<unicode hex="0022"/>
	<outline>
		<contour>
			<point x="65" y="720" type="line"/>
			<point x="82" y="470" type="line"/>
			<point x="150" y="470" type="line"/>
			<point x="167" y="720" type="line"/>
		</contour>
		<contour>
			<point x="235" y="720" type="line"/>
			<point x="252" y="470" type="line"/>
			<point x="320" y="470" type="line"/>
			<point x="337" y="720" type="line"/>
		</contour>
	</outline>
</glyph>
<glyph name="numbersign" format="1">
  <advance width="738"/>
  <unicode hex="0023"/>
  <outline>
    <contour>
      <point x="65" y="202" type="line"/>
      <point x="621" y="202" type="line"/>
      <point x="621" y="278" type="line"/>
      <point x="65" y="278" type="line"/>
    </contour>
    <contour>
      <point x="117" y="0" type="line"/>
      <point x="203" y="0" type="line"/>
      <point x="371" y="690" type="line"/>
      <point x="285" y="690" type="line"/>
    </contour>
    <contour>
      <point x="117" y="412" type="line"/>
      <point x="673" y="412" type="line"/>
      <point x="673" y="488" type="line"/>
      <point x="117" y="488" type="line"/>
    </contour>
    <contour>
      <point x="367" y="0" type="line"/>
      <point x="453" y="0" type="line"/>
      <point x="621" y="690" type="line"/>
      <point x="535" y="690" type="line"/>
    </contour>
  </outline>
</glyph>
<glyph name="dollar" format="2">
  <advance width="600"/>
  <unicode hex="0024"/>
  <outline>
    <contour>
      <point x="38.0" y="94" type="line"/>
      <point x="100.0" y="33"/>
      <point x="208.0" y="-10"/>
      <point x="308.0" y="-10" type="curve"/>
      <point x="468.0" y="-10"/>
      <point x="557.0" y="76"/>
      <point x="557.0" y="183" type="curve"/>
      <point x="557.0" y="271"/>
      <point x="495.0" y="350"/>
      <point x="318.0" y="403" type="curve" smooth="yes"/>
      <point x="194.0" y="440"/>
      <point x="161.0" y="477"/>
      <point x="161.0" y="522" type="curve"/>
      <point x="161.0" y="572"/>
      <point x="206.0" y="617"/>
      <point x="295.0" y="617" type="curve" smooth="yes"/>
      <point x="366.0" y="617"/>
      <point x="428.0" y="589"/>
      <point x="478.0" y="541" type="curve"/>
      <point x="533.0" y="613" type="line"/>
      <point x="469.0" y="668"/>
      <point x="381.0" y="700"/>
      <point x="302.0" y="700" type="curve"/>
      <point x="163.0" y="700"/>
      <point x="68.0" y="615"/>
      <point x="68.0" y="512" type="curve"/>
      <point x="68.0" y="426"/>
      <point x="118.0" y="359"/>
      <point x="290.0" y="307" type="curve" smooth="yes"/>
      <point x="421.0" y="267"/>
      <point x="458.0" y="224"/>
      <point x="458.0" y="171" type="curve"/>
      <point x="458.0" y="120"/>
      <point x="409.0" y="77"/>
      <point x="316.0" y="77" type="curve"/>
      <point x="226.0" y="77"/>
      <point x="152.0" y="108"/>
      <point x="94.0" y="163" type="curve"/>
    </contour>
    <contour>
      <point x="273.0" y="-100" type="line"/>
      <point x="349.0" y="-100" type="line"/>
      <point x="349.0" y="340" type="line"/>
      <point x="273.0" y="364" type="line"/>
    </contour>
    <contour>
      <point x="273.0" y="364" type="line"/>
      <point x="349.0" y="340" type="line"/>
      <point x="349.0" y="790" type="line"/>
      <point x="273.0" y="790" type="line"/>
    </contour>
  </outline>
</glyph>
<glyph name="percent" format="2">
	<advance width="943"/>
	<unicode hex="0025"/>
	<outline>
		<contour>
			<point x="75" y="518" type="curve" smooth="yes"/>
			<point x="75" y="411"/>
			<point x="152" y="337"/>
			<point x="246" y="337" type="curve" smooth="yes"/>
			<point x="340" y="337"/>
			<point x="417" y="411"/>
			<point x="417" y="518" type="curve" smooth="yes"/>
			<point x="417" y="625"/>
			<point x="340" y="700"/>
			<point x="246" y="700" type="curve" smooth="yes"/>
			<point x="152" y="700"/>
			<point x="75" y="625"/>
		</contour>
		<contour>
			<point x="162" y="518" type="curve" smooth="yes"/>
			<point x="162" y="585"/>
			<point x="199" y="627"/>
			<point x="246" y="627" type="curve" smooth="yes"/>
			<point x="293" y="627"/>
			<point x="330" y="585"/>
			<point x="330" y="518" type="curve" smooth="yes"/>
			<point x="330" y="451"/>
			<point x="293" y="410"/>
			<point x="246" y="410" type="curve" smooth="yes"/>
			<point x="199" y="410"/>
			<point x="162" y="451"/>
		</contour>
		<contour>
			<point x="198" y="0" type="line"/>
			<point x="295" y="0" type="line"/>
			<point x="745" y="690" type="line"/>
			<point x="648" y="690" type="line"/>
		</contour>
		<contour>
			<point x="526" y="171" type="curve" smooth="yes"/>
			<point x="526" y="64"/>
			<point x="603" y="-10"/>
			<point x="697" y="-10" type="curve" smooth="yes"/>
			<point x="791" y="-10"/>
			<point x="868" y="64"/>
			<point x="868" y="171" type="curve" smooth="yes"/>
			<point x="868" y="278"/>
			<point x="791" y="353"/>
			<point x="697" y="353" type="curve" smooth="yes"/>
			<point x="603" y="353"/>
			<point x="526" y="278"/>
		</contour>
		<contour>
			<point x="613" y="171" type="curve" smooth="yes"/>
			<point x="613" y="238"/>
			<point x="650" y="280"/>
			<point x="697" y="280" type="curve" smooth="yes"/>
			<point x="744" y="280"/>
			<point x="781" y="238"/>
			<point x="781" y="171" type="curve" smooth="yes"/>
			<point x="781" y="104"/>
			<point x="744" y="63"/>
			<point x="697" y="63" type="curve" smooth="yes"/>
			<point x="650" y="63"/>
			<point x="613" y="104"/>
		</contour>
	</outline>
</glyph>
<glyph name="ampersand" format="1">
  <advance width="660"/>
  <unicode hex="0026"/>
  <outline>
    <contour>
      <point x="48" y="170" type="curve" smooth="yes"/>
      <point x="48" y="60"/>
      <point x="130" y="-10"/>
      <point x="250" y="-10" type="curve" smooth="yes"/>
      <point x="430" y="-10"/>
      <point x="540" y="140"/>
      <point x="600" y="290" type="curve"/>
      <point x="520" y="320" type="line"/>
      <point x="470" y="180"/>
      <point x="390" y="70"/>
      <point x="260" y="70" type="curve" smooth="yes"/>
      <point x="190" y="70"/>
      <point x="142" y="110"/>
      <point x="142" y="170" type="curve" smooth="yes"/>
      <point x="142" y="220"/>
      <point x="170" y="266"/>
      <point x="230" y="300" type="curve" smooth="yes"/>
      <point x="370" y="380" type="line" smooth="yes"/>
      <point x="440" y="420"/>
      <point x="488" y="470"/>
      <point x="488" y="540" type="curve" smooth="yes"/>
      <point x="488" y="620"/>
      <point x="420" y="700"/>
      <point x="310" y="700" type="curve" smooth="yes"/>
      <point x="200" y="700"/>
      <point x="130" y="620"/>
      <point x="130" y="530" type="curve" smooth="yes"/>
      <point x="130" y="460"/>
      <point x="175" y="400"/>
      <point x="220" y="350" type="curve" smooth="yes"/>
      <point x="530" y="0" type="line"/>
      <point x="650" y="0" type="line"/>
      <point x="295" y="400" type="line" smooth="yes"/>
      <point x="250" y="451"/>
      <point x="220" y="480"/>
      <point x="220" y="530" type="curve" smooth="yes"/>
      <point x="220" y="580"/>
      <point x="255" y="620"/>
      <point x="310" y="620" type="curve" smooth="yes"/>
      <point x="365" y="620"/>
      <point x="400" y="580"/>
      <point x="400" y="530" type="curve" smooth="yes"/>
      <point x="400" y="490"/>
      <point x="375" y="465"/>
      <point x="330" y="440" type="curve" smooth="yes"/>
      <point x="184" y="360" type="line" smooth="yes"/>
      <point x="100" y="314"/>
      <point x="48" y="250"/>
    </contour>
  </outline>
</glyph>
<glyph name="quotesingle" format="2">
	<advance width="232"/>
	<unicode hex="0027"/>
	<outline>
		<contour>
			<point x="65" y="720" type="line"/>
			<point x="82" y="470" type="line"/>
			<point x="150" y="470" type="line"/>
			<point x="167" y="720" type="line"/>
		</contour>
	</outline>
</glyph>
<glyph name="parenleft" format="2">
  <advance width="332"/>
  <unicode hex="0028"/>
  <outline>
    <contour>
      <point x="75" y="268" type="curve" smooth="yes"/>
      <point x="75.0" y="46.19178082191783"/>
      <point x="180.03557312252963" y="-122.14481409001958"/>
      <point x="333" y="-238" type="curve"/>
      <point x="367" y="-195" type="line"/>
      <point x="242.05" y="-86.0"/>
      <point x="157.0" y="89.0"/>
      <point x="157" y="268" type="curve" smooth="yes"/>
      <point x="157.0" y="447.0"/>
      <point x="242.05" y="621.0"/>
      <point x="367" y="730" type="curve"/>
      <point x="333" y="773" type="line"/>
      <point x="180.03557312252963" y="657.1470588235294"/>
      <point x="75.0" y="489.80392156862746"/>
    </contour>
  </outline>
</glyph>
<glyph name="parenright" format="2">
	<advance width="332"/>
	<unicode hex="0029"/>
	<outline>
		<contour>
			<point x="-35" y="-195" type="curve"/>
			<point x="-1" y="-238" type="line"/>
			<point x="152" y="-122"/>
			<point x="257" y="46"/>
			<point x="257" y="268" type="curve" smooth="yes"/>
			<point x="257" y="490"/>
			<point x="152" y="657"/>
			<point x="-1" y="773" type="curve"/>
			<point x="-35" y="730" type="line"/>
			<point x="90" y="621"/>
			<point x="175" y="447"/>
			<point x="175" y="268" type="curve" smooth="yes"/>
			<point x="175" y="89"/>
			<point x="90" y="-86"/>
		</contour>
	</outline>
</glyph>
<glyph name="asterisk" format="1">
  <advance width="598"/>
  <unicode hex="002A"/>
  <outline>
    <contour>
      <point x="65" y="517" type="line"/>
      <point x="252" y="470" type="line"/>
      <point x="130" y="325" type="line"/>
      <point x="203" y="272" type="line"/>
      <point x="299" y="426" type="line"/>
      <point x="395" y="272" type="line"/>
      <point x="468" y="325" type="line"/>
      <point x="346" y="470" type="line"/>
      <point x="533" y="517" type="line"/>
      <point x="505" y="602" type="line"/>
      <point x="331" y="531" type="line"/>
      <point x="344" y="720" type="line"/>
      <point x="254" y="720" type="line"/>
      <point x="267" y="531" type="line"/>
      <point x="93" y="602" type="line"/>
    </contour>
  </outline>
</glyph>
<glyph name="plus" format="2">
  <advance width="600"/>
  <unicode hex="002B"/>
  <outline>
    <contour>
      <point x="73.0" y="250" type="line"/>
      <point x="527.0" y="250" type="line"/>
      <point x="527.0" y="330" type="line"/>
      <point x="73.0" y="330" type="line"/>
    </contour>
    <contour>
      <point x="259.0" y="65" type="line"/>
      <point x="341.0" y="65" type="line"/>
      <point x="341.0" y="515" type="line"/>
      <point x="259.0" y="515" type="line"/>
    </contour>
  </outline>
</glyph>
<glyph name="period" format="1">
  <advance width="222"/>
  <unicode hex="002E"/>
  <outline>
    <contour>
      <point x="50" y="52" type="curve" smooth="yes"/>
      <point x="50" y="17"/>
      <point x="76" y="-10"/>
      <point x="111" y="-10" type="curve" smooth="yes"/>
      <point x="148" y="-10"/>
      <point x="172" y="17"/>
      <point x="172" y="52" type="curve" smooth="yes"/>
      <point x="172" y="88"/>
      <point x="148" y="115"/>
      <point x="111" y="115" type="curve" smooth="yes"/>
      <point x="76" y="115"/>
      <point x="50" y="88"/>
    </contour>
  </outline>
</glyph>
<glyph name="slash" format="2">
  <advance width="336"/>
  <unicode hex="002F"/>
  <outline>
    <contour>
      <point x="0" y="-30" type="line"/>
      <point x="86" y="-30" type="line"/>
      <point x="336" y="720" type="line"/>
      <point x="250" y="720" type="line"/>
    </contour>
  </outline>
</glyph>
<glyph name="zero" format="2">
  <advance width="600"/>
  <unicode hex="0030"/>
  <outline>
    <contour>
      <point x="37.0" y="345" type="curve" smooth="yes"/>
      <point x="37.0" y="102"/>
      <point x="156.0" y="-10"/>
      <point x="300.0" y="-10" type="curve" smooth="yes"/>
      <point x="444.0" y="-10"/>
      <point x="563.0" y="102"/>
      <point x="563.0" y="345" type="curve" smooth="yes"/>
      <point x="563.0" y="588"/>
      <point x="444.0" y="700"/>
      <point x="300.0" y="700" type="curve" smooth="yes"/>
      <point x="156.0" y="700"/>
      <point x="37.0" y="588"/>
    </contour>
    <contour>
      <point x="136.0" y="345" type="curve" smooth="yes"/>
      <point x="136.0" y="532"/>
      <point x="206.0" y="611"/>
      <point x="300.0" y="611" type="curve" smooth="yes"/>
      <point x="394.0" y="611"/>
      <point x="464.0" y="532"/>
      <point x="464.0" y="345" type="curve" smooth="yes"/>
      <point x="464.0" y="158"/>
      <point x="394.0" y="79"/>
      <point x="300.0" y="79" type="curve" smooth="yes"/>
      <point x="206.0" y="79"/>
      <point x="136.0" y="158"/>
    </contour>
  </outline>
</glyph>
<glyph name="one" format="2">
  <advance width="600"/>
  <unicode hex="0031"/>
  <outline>
    <contour>
      <point x="82.0" y="0" type="line"/>
      <point x="518.0" y="0" type="line"/>
      <point x="518.0" y="81" type="line"/>
      <point x="82.0" y="81" type="line"/>
    </contour>
    <contour>
      <point x="82.0" y="599" type="line"/>
      <point x="116.0" y="521" type="line"/>
      <point x="311.0" y="609" type="line"/>
      <point x="283.0" y="690" type="line"/>
    </contour>
    <contour>
      <point x="257.0" y="0" type="line"/>
      <point x="353.0" y="0" type="line"/>
      <point x="353.0" y="690" type="line"/>
      <point x="283.0" y="690" type="line"/>
      <point x="257.0" y="637" type="line"/>
    </contour>
  </outline>
</glyph>
<glyph name="two" format="1">
  <advance width="600"/>
  <unicode hex="0032"/>
  <outline>
    <contour>
      <point x="53.0" y="588" type="curve"/>
      <point x="118.0" y="523" type="line"/>
      <point x="165.0" y="579"/>
      <point x="213.0" y="609"/>
      <point x="284.0" y="609" type="curve"/>
      <point x="371.0" y="609"/>
      <point x="417.0" y="552"/>
      <point x="417.0" y="488" type="curve"/>
      <point x="417.0" y="434"/>
      <point x="396.0" y="401"/>
      <point x="311.0" y="316" type="curve" smooth="yes"/>
      <point x="62.0" y="66" type="line"/>
      <point x="113.0" y="0" type="line"/>
      <point x="375.0" y="250" type="line" smooth="yes"/>
      <point x="484.0" y="354"/>
      <point x="516.0" y="420"/>
      <point x="516.0" y="488" type="curve"/>
      <point x="516.0" y="613"/>
      <point x="415.0" y="700"/>
      <point x="287.0" y="700" type="curve" smooth="yes"/>
      <point x="190.0" y="700"/>
      <point x="116.0" y="659"/>
    </contour>
    <contour>
      <point x="62.0" y="0" type="line"/>
      <point x="526.0" y="0" type="line"/>
      <point x="526.0" y="86" type="line"/>
      <point x="108.0" y="86" type="line"/>
      <point x="62.0" y="66" type="line"/>
    </contour>
  </outline>
</glyph>
<glyph name="three" format="1">
  <advance width="600"/>
  <unicode hex="0033"/>
  <outline>
    <contour>
      <point x="43.0" y="84" type="line"/>
      <point x="106.0" y="20"/>
      <point x="183.0" y="-10"/>
      <point x="279.0" y="-10" type="curve"/>
      <point x="416.0" y="-10"/>
      <point x="532.0" y="66"/>
      <point x="532.0" y="205" type="curve" smooth="yes"/>
      <point x="532.0" y="340"/>
      <point x="430.0" y="408"/>
      <point x="293.0" y="408" type="curve" smooth="yes"/>
      <point x="234.0" y="408" type="line"/>
      <point x="181.0" y="390" type="line"/>
      <point x="181.0" y="329" type="line"/>
      <point x="264.0" y="329" type="line" smooth="yes"/>
      <point x="361.0" y="329"/>
      <point x="433.0" y="283"/>
      <point x="433.0" y="205" type="curve" smooth="yes"/>
      <point x="433.0" y="123"/>
      <point x="365.0" y="81"/>
      <point x="279.0" y="81" type="curve"/>
      <point x="208.0" y="81"/>
      <point x="152.0" y="103"/>
      <point x="108.0" y="152" type="curve"/>
    </contour>
    <contour>
      <point x="65.0" y="599" type="line"/>
      <point x="460.0" y="599" type="line"/>
      <point x="509.0" y="624" type="line"/>
      <point x="509.0" y="690" type="line"/>
      <point x="65.0" y="690" type="line"/>
    </contour>
    <contour>
      <point x="181.0" y="390" type="line"/>
      <point x="286.0" y="390" type="line"/>
      <point x="509.0" y="624" type="line"/>
      <point x="460.0" y="690" type="line"/>
    </contour>
  </outline>
</glyph>
<glyph name="four" format="2">
  <advance width="600"/>
  <unicode hex="0034"/>
  <outline>
    <contour>
      <point x="37.0" y="206" type="line"/>
      <point x="86.0" y="140" type="line"/>
      <point x="442.0" y="690" type="line"/>
      <point x="350.0" y="690" type="line"/>
    </contour>
    <contour>
      <point x="37.0" y="140" type="line"/>
      <point x="555.0" y="140" type="line"/>
      <point x="555.0" y="226" type="line"/>
      <point x="83.0" y="226" type="line"/>
      <point x="37.0" y="206" type="line"/>
    </contour>
    <contour>
      <point x="368.0" y="0" type="line"/>
      <point x="464.0" y="0" type="line"/>
      <point x="464.0" y="690" type="line"/>
      <point x="368.0" y="690" type="line"/>
    </contour>
  </outline>
</glyph>
<glyph name="five" format="2">
  <advance width="600"/>
  <unicode hex="0035"/>
  <outline>
    <contour>
      <point x="53.0" y="84" type="line"/>
      <point x="116.0" y="20"/>
      <point x="193.0" y="-10"/>
      <point x="289.0" y="-10" type="curve"/>
      <point x="436.0" y="-10"/>
      <point x="542.0" y="80"/>
      <point x="542.0" y="210" type="curve" smooth="yes"/>
      <point x="542.0" y="343"/>
      <point x="447.0" y="426"/>
      <point x="322.0" y="426" type="curve"/>
      <point x="254.0" y="426"/>
      <point x="195.0" y="401"/>
      <point x="153.0" y="358" type="curve"/>
      <point x="140.0" y="288" type="line"/>
      <point x="187.0" y="325"/>
      <point x="232.0" y="342"/>
      <point x="289.0" y="342" type="curve"/>
      <point x="381.0" y="342"/>
      <point x="443.0" y="286"/>
      <point x="443.0" y="210" type="curve" smooth="yes"/>
      <point x="443.0" y="132"/>
      <point x="381.0" y="81"/>
      <point x="289.0" y="81" type="curve"/>
      <point x="218.0" y="81"/>
      <point x="162.0" y="103"/>
      <point x="118.0" y="152" type="curve"/>
    </contour>
    <contour>
      <point x="94.0" y="321" type="line"/>
      <point x="140.0" y="288" type="line"/>
      <point x="183.0" y="350" type="line"/>
      <point x="201.0" y="690" type="line"/>
      <point x="112.0" y="690" type="line"/>
    </contour>
    <contour>
      <point x="112.0" y="690" type="line"/>
      <point x="162.0" y="597" type="line"/>
      <point x="497.0" y="597" type="line"/>
      <point x="497.0" y="690" type="line"/>
    </contour>
  </outline>
</glyph>
<glyph name="six" format="2">
  <advance width="600"/>
  <unicode hex="0036"/>
  <outline>
    <contour>
      <point x="52.0" y="320" type="curve"/>
      <point x="52.0" y="110"/>
      <point x="160.0" y="-10"/>
      <point x="306.0" y="-10" type="curve"/>
      <point x="437.0" y="-10"/>
      <point x="545.0" y="87"/>
      <point x="545.0" y="225" type="curve" smooth="yes"/>
      <point x="545.0" y="357"/>
      <point x="453.0" y="442"/>
      <point x="329.0" y="442" type="curve" smooth="yes"/>
      <point x="256.0" y="442"/>
      <point x="185.0" y="404"/>
      <point x="146.0" y="344" type="curve"/>
      <point x="146.0" y="270" type="line"/>
      <point x="188.0" y="320"/>
      <point x="245.0" y="350"/>
      <point x="313.0" y="350" type="curve" smooth="yes"/>
      <point x="388.0" y="350"/>
      <point x="446.0" y="300"/>
      <point x="446.0" y="222" type="curve" smooth="yes"/>
      <point x="446.0" y="138"/>
      <point x="384.0" y="76"/>
      <point x="311.0" y="76" type="curve"/>
      <point x="217.0" y="76"/>
      <point x="151.0" y="160"/>
      <point x="151.0" y="320" type="curve"/>
      <point x="151.0" y="528"/>
      <point x="254.0" y="611"/>
      <point x="345.0" y="611" type="curve"/>
      <point x="398.0" y="611"/>
      <point x="431.0" y="595"/>
      <point x="466.0" y="569" type="curve"/>
      <point x="515.0" y="649" type="line"/>
      <point x="468.0" y="683"/>
      <point x="413.0" y="700"/>
      <point x="355.0" y="700" type="curve"/>
      <point x="204.0" y="700"/>
      <point x="52.0" y="573"/>
    </contour>
  </outline>
</glyph>
<glyph name="seven" format="1">
  <advance width="600"/>
  <unicode hex="0037"/>
  <outline>
    <contour>
      <point x="60.0" y="599" type="line"/>
      <point x="465.0" y="599" type="line"/>
      <point x="514.0" y="624" type="line"/>
      <point x="514.0" y="690" type="line"/>
      <point x="60.0" y="690" type="line"/>
    </contour>
    <contour>
      <point x="166.0" y="0" type="line"/>
      <point x="272.0" y="0" type="line"/>
      <point x="514.0" y="624" type="line"/>
      <point x="449.0" y="690" type="line"/>
    </contour>
  </outline>
</glyph>
<glyph name="eight" format="2">
  <advance width="600"/>
  <unicode hex="0038"/>
  <outline>
    <contour>
      <point x="54.0" y="173" type="curve"/>
      <point x="54.0" y="63"/>
      <point x="147.0" y="-10"/>
      <point x="298.0" y="-10" type="curve"/>
      <point x="459.0" y="-10"/>
      <point x="546.0" y="75"/>
      <point x="546.0" y="181" type="curve"/>
      <point x="546.0" y="268"/>
      <point x="491" y="347"/>
      <point x="300" y="409" type="curve" smooth="yes"/>
      <point x="207" y="439"/>
      <point x="171.0" y="479"/>
      <point x="171.0" y="524" type="curve"/>
      <point x="171.0" y="574"/>
      <point x="209.0" y="619"/>
      <point x="299.0" y="619" type="curve"/>
      <point x="380.0" y="619"/>
      <point x="425.0" y="572"/>
      <point x="425.0" y="515" type="curve"/>
      <point x="425.0" y="457"/>
      <point x="377.0" y="409"/>
      <point x="285.0" y="393" type="curve"/>
      <point x="330.0" y="357" type="line"/>
      <point x="453.0" y="373"/>
      <point x="519.0" y="435"/>
      <point x="519.0" y="522" type="curve"/>
      <point x="519.0" y="624"/>
      <point x="430.0" y="700"/>
      <point x="299.0" y="700" type="curve"/>
      <point x="166.0" y="700"/>
      <point x="78.0" y="617"/>
      <point x="78.0" y="514" type="curve"/>
      <point x="78.0" y="428"/>
      <point x="131" y="366"/>
      <point x="300" y="310" type="curve" smooth="yes"/>
      <point x="416" y="271"/>
      <point x="447.0" y="221"/>
      <point x="447.0" y="169" type="curve"/>
      <point x="447.0" y="119"/>
      <point x="399.0" y="74"/>
      <point x="298.0" y="74" type="curve"/>
      <point x="205.0" y="74"/>
      <point x="148.0" y="115"/>
      <point x="148.0" y="179" type="curve"/>
      <point x="148.0" y="241"/>
      <point x="202.0" y="302"/>
      <point x="294.0" y="321" type="curve"/>
      <point x="249.0" y="357" type="line"/>
      <point x="126.0" y="339"/>
      <point x="54.0" y="266"/>
    </contour>
  </outline>
</glyph>
<glyph name="nine" format="2">
	<advance width="600"/>
	<unicode hex="0039"/>
	<outline>
		<contour>
			<point x="55" y="465" type="curve" smooth="yes"/>
			<point x="55" y="333"/>
			<point x="147" y="248"/>
			<point x="271" y="248" type="curve" smooth="yes"/>
			<point x="344" y="248"/>
			<point x="415" y="286"/>
			<point x="454" y="346" type="curve"/>
			<point x="454" y="420" type="line"/>
			<point x="412" y="370"/>
			<point x="355" y="340"/>
			<point x="287" y="340" type="curve" smooth="yes"/>
			<point x="212" y="340"/>
			<point x="154" y="390"/>
			<point x="154" y="468" type="curve" smooth="yes"/>
			<point x="154" y="552"/>
			<point x="216" y="614"/>
			<point x="289" y="614" type="curve"/>
			<point x="383" y="614"/>
			<point x="449" y="530"/>
			<point x="449" y="370" type="curve"/>
			<point x="449" y="161"/>
			<point x="346" y="79"/>
			<point x="255" y="79" type="curve"/>
			<point x="202" y="79"/>
			<point x="169" y="95"/>
			<point x="134" y="121" type="curve"/>
			<point x="85" y="41" type="line"/>
			<point x="132" y="7"/>
			<point x="187" y="-10"/>
			<point x="245" y="-10" type="curve"/>
			<point x="396" y="-10"/>
			<point x="548" y="116"/>
			<point x="548" y="370" type="curve"/>
			<point x="548" y="580"/>
			<point x="440" y="700"/>
			<point x="294" y="700" type="curve"/>
			<point x="163" y="700"/>
			<point x="55" y="603"/>
		</contour>
	</outline>
</glyph>
<glyph name="colon" format="2">
  <advance width="222"/>
  <unicode hex="003A"/>
  <outline>
    <contour>
      <point x="50" y="52" type="curve" smooth="yes"/>
      <point x="50" y="17"/>
      <point x="76" y="-10"/>
      <point x="111" y="-10" type="curve" smooth="yes"/>
      <point x="148" y="-10"/>
      <point x="172" y="17"/>
      <point x="172" y="52" type="curve" smooth="yes"/>
      <point x="172" y="88"/>
      <point x="148" y="115"/>
      <point x="111" y="115" type="curve" smooth="yes"/>
      <point x="76" y="115"/>
      <point x="50" y="88"/>
    </contour>
    <contour>
      <point x="50" y="462" type="curve" smooth="yes"/>
      <point x="50" y="427"/>
      <point x="76" y="400"/>
      <point x="111" y="400" type="curve" smooth="yes"/>
      <point x="148" y="400"/>
      <point x="172" y="427"/>
      <point x="172" y="462" type="curve" smooth="yes"/>
      <point x="172" y="498"/>
      <point x="148" y="525"/>
      <point x="111" y="525" type="curve" smooth="yes"/>
      <point x="76" y="525"/>
      <point x="50" y="498"/>
    </contour>
  </outline>
</glyph>
<glyph name="semicolon" format="2">
  <advance width="222"/>
  <unicode hex="003B"/>
  <outline>
    <contour>
      <point x="57" y="-145" type="line"/>
      <point x="113" y="-145" type="line"/>
      <point x="158" y="-25" type="line" smooth="yes"/>
      <point x="168" y="2"/>
      <point x="174" y="22"/>
      <point x="174" y="44" type="curve" smooth="yes"/>
      <point x="174" y="89"/>
      <point x="148" y="115"/>
      <point x="111" y="115" type="curve" smooth="yes"/>
      <point x="76" y="115"/>
      <point x="48" y="89"/>
      <point x="48" y="53" type="curve" smooth="yes"/>
      <point x="48" y="20"/>
      <point x="68" y="0"/>
      <point x="92" y="-7" type="curve"/>
    </contour>
    <contour>
      <point x="50" y="462" type="curve" smooth="yes"/>
      <point x="50" y="427"/>
      <point x="76" y="400"/>
      <point x="111" y="400" type="curve" smooth="yes"/>
      <point x="148" y="400"/>
      <point x="172" y="427"/>
      <point x="172" y="462" type="curve" smooth="yes"/>
      <point x="172" y="498"/>
      <point x="148" y="525"/>
      <point x="111" y="525" type="curve" smooth="yes"/>
      <point x="76" y="525"/>
      <point x="50" y="498"/>
    </contour>
  </outline>
</glyph>
<glyph name="less" format="2">
	<advance width="600"/>
	<unicode hex="003C"/>
	<outline>
		<contour>
			<point x="72" y="254" type="line"/>
			<point x="497" y="55" type="line"/>
			<point x="497" y="148" type="line"/>
			<point x="154" y="305" type="line"/>
			<point x="72" y="307" type="line"/>
		</contour>
		<contour>
			<point x="72" y="281" type="line"/>
			<point x="154" y="280" type="line"/>
			<point x="497" y="435" type="line"/>
			<point x="497" y="525" type="line"/>
			<point x="72" y="326" type="line"/>
		</contour>
	</outline>
</glyph>
<glyph name="equal" format="2">
  <advance width="600"/>
  <unicode hex="003D"/>
  <outline>
    <contour>
      <point x="73.0" y="130" type="line"/>
      <point x="527.0" y="130" type="line"/>
      <point x="527.0" y="210" type="line"/>
      <point x="73.0" y="210" type="line"/>
    </contour>
    <contour>
      <point x="73.0" y="370" type="line"/>
      <point x="527.0" y="370" type="line"/>
      <point x="527.0" y="450" type="line"/>
      <point x="73.0" y="450" type="line"/>
    </contour>
  </outline>
</glyph>
<glyph name="greater" format="2">
  <advance width="600"/>
  <unicode hex="003E"/>
  <outline>
    <contour>
      <point x="103.0" y="55" type="line"/>
      <point x="528.0" y="254" type="line"/>
      <point x="528.0" y="299" type="line"/>
      <point x="446.0" y="300" type="line"/>
      <point x="103.0" y="145" type="line"/>
    </contour>
    <contour>
      <point x="103.0" y="432" type="line"/>
      <point x="446.0" y="275" type="line"/>
      <point x="528.0" y="273" type="line"/>
      <point x="528.0" y="326" type="line"/>
      <point x="103.0" y="525" type="line"/>
    </contour>
  </outline>
</glyph>
<glyph name="A" format="2">
	<advance width="656"/>
	<unicode hex="0041"/>
	<anchor x="328" y="690" name="top"/>
	<anchor x="328" y="0" name="bottom"/>
	<anchor x="532" y="0" name="ogonek"/>
	<outline>
		<contour>
			<point x="20" y="0" type="line"/>
			<point x="120" y="0" type="line"/>
			<point x="343" y="600" type="line"/>
			<point x="335" y="690" type="line"/>
			<point x="286" y="690" type="line"/>
		</contour>
		<contour>
			<point x="150" y="194" type="line"/>
			<point x="506" y="194" type="line"/>
			<point x="506" y="280" type="line"/>
			<point x="150" y="280" type="line"/>
		</contour>
		<contour>
			<point x="309" y="600" type="line"/>
			<point x="532" y="0" type="line"/>
			<point x="636" y="0" type="line"/>
			<point x="370" y="690" type="line"/>
			<point x="313" y="690" type="line"/>
		</contour>
	</outline>
</glyph>
<glyph name="C" format="2">
	<advance width="644"/>
	<unicode hex="0043"/>
	<anchor x="363" y="690" name="top"/>
	<anchor x="363" y="0" name="bottom"/>
	<outline>
		<contour>
			<point x="60" y="345" type="curve" smooth="yes"/>
			<point x="60" y="116"/>
			<point x="202" y="-10"/>
			<point x="373" y="-10" type="curve" smooth="yes"/>
			<point x="460" y="-10"/>
			<point x="534" y="23"/>
			<point x="594" y="84" type="curve"/>
			<point x="529" y="149" type="line"/>
			<point x="488" y="103"/>
			<point x="435" y="81"/>
			<point x="373" y="81" type="curve" smooth="yes"/>
			<point x="250" y="81"/>
			<point x="159" y="172"/>
			<point x="159" y="345" type="curve" smooth="yes"/>
			<point x="159" y="517"/>
			<point x="250" y="609"/>
			<point x="373" y="609" type="curve" smooth="yes"/>
			<point x="428" y="609"/>
			<point x="477" y="586"/>
			<point x="518" y="543" type="curve"/>
			<point x="586" y="608" type="line"/>
			<point x="526" y="666"/>
			<point x="453" y="700"/>
			<point x="373" y="700" type="curve" smooth="yes"/>
			<point x="202" y="700"/>
			<point x="60" y="573"/>
		</contour>
	</outline>
</glyph>
<glyph name="D" format="2">
	<advance width="701"/>
	<unicode hex="0044"/>
	<anchor x="308" y="690" name="top"/>
	<outline>
		<contour>
			<point x="100" y="0" type="line"/>
			<point x="196" y="0" type="line"/>
			<point x="196" y="690" type="line"/>
			<point x="100" y="690" type="line"/>
		</contour>
		<contour>
			<point x="150" y="0" type="line"/>
			<point x="323" y="0" type="line" smooth="yes"/>
			<point x="500" y="0"/>
			<point x="641" y="123"/>
			<point x="641" y="345" type="curve" smooth="yes"/>
			<point x="641" y="567"/>
			<point x="500" y="690"/>
			<point x="323" y="690" type="curve" smooth="yes"/>
			<point x="150" y="690" type="line"/>
			<point x="150" y="604" type="line"/>
			<point x="318" y="604" type="line" smooth="yes"/>
			<point x="446" y="604"/>
			<point x="542" y="511"/>
			<point x="542" y="345" type="curve" smooth="yes"/>
			<point x="542" y="179"/>
			<point x="446" y="86"/>
			<point x="318" y="86" type="curve" smooth="yes"/>
			<point x="150" y="86" type="line"/>
		</contour>
	</outline>
</glyph>
<glyph name="F" format="2">
	<advance width="571"/>
	<unicode hex="0046"/>
	<outline>
		<contour>
			<point x="100" y="0" type="line"/>
			<point x="196" y="0" type="line"/>
			<point x="196" y="690" type="line"/>
			<point x="100" y="690" type="line"/>
		</contour>
		<contour>
			<point x="150" y="284" type="line"/>
			<point x="492" y="284" type="line"/>
			<point x="492" y="370" type="line"/>
			<point x="150" y="370" type="line"/>
		</contour>
		<contour>
			<point x="150" y="604" type="line"/>
			<point x="531" y="604" type="line"/>
			<point x="531" y="690" type="line"/>
			<point x="150" y="690" type="line"/>
		</contour>
	</outline>
</glyph>
<glyph name="H" format="2">
	<advance width="736"/>
	<unicode hex="0048"/>
	<anchor x="368" y="690" name="top"/>
	<outline>
		<contour>
			<point x="100" y="0" type="line"/>
			<point x="196" y="0" type="line"/>
			<point x="196" y="690" type="line"/>
			<point x="100" y="690" type="line"/>
		</contour>
		<contour>
			<point x="150" y="307" type="line"/>
			<point x="586" y="307" type="line"/>
			<point x="586" y="393" type="line"/>
			<point x="150" y="393" type="line"/>
		</contour>
		<contour>
			<point x="540" y="0" type="line"/>
			<point x="636" y="0" type="line"/>
			<point x="636" y="690" type="line"/>
			<point x="540" y="690" type="line"/>
		</contour>
	</outline>
</glyph>
<glyph name="I" format="2">
	<advance width="456"/>
	<unicode hex="0049"/>
	<anchor x="228" y="690" name="top"/>
	<anchor x="228" y="0" name="bottom"/>
	<anchor x="196" y="0" name="ogonek"/>
	<outline>
		<contour>
			<point x="80" y="0" type="line"/>
			<point x="376" y="0" type="line"/>
			<point x="376" y="81" type="line"/>
			<point x="80" y="81" type="line"/>
		</contour>
		<contour>
			<point x="80" y="609" type="line"/>
			<point x="376" y="609" type="line"/>
			<point x="376" y="690" type="line"/>
			<point x="80" y="690" type="line"/>
		</contour>
		<contour>
			<point x="180" y="0" type="line"/>
			<point x="276" y="0" type="line"/>
			<point x="276" y="690" type="line"/>
			<point x="180" y="690" type="line"/>
		</contour>
	</outline>
</glyph>
<glyph name="J" format="2">
	<advance width="573"/>
	<unicode hex="004A"/>
	<anchor x="345" y="690" name="top"/>
	<outline>
		<contour>
			<point x="45" y="107" type="line"/>
			<point x="86" y="39"/>
			<point x="168" y="-10"/>
			<point x="255" y="-10" type="curve" smooth="yes"/>
			<point x="382" y="-10"/>
			<point x="483" y="75"/>
			<point x="483" y="236" type="curve" smooth="yes"/>
			<point x="483" y="690" type="line"/>
			<point x="389" y="690" type="line"/>
			<point x="389" y="246" type="line" smooth="yes"/>
			<point x="389" y="130"/>
			<point x="337" y="78"/>
			<point x="254" y="78" type="curve" smooth="yes"/>
			<point x="187" y="78"/>
			<point x="140" y="119"/>
			<point x="116" y="163" type="curve"/>
		</contour>
		<contour>
			<point x="207" y="609" type="line"/>
			<point x="443" y="609" type="line"/>
			<point x="443" y="690" type="line"/>
			<point x="207" y="690" type="line"/>
		</contour>
	</outline>
</glyph>
<glyph name="K" format="2">
	<advance width="641"/>
	<unicode hex="004B"/>
	<anchor x="340" y="0" name="bottom"/>
	<outline>
		<contour>
			<point x="100" y="0" type="line"/>
			<point x="196" y="0" type="line"/>
			<point x="196" y="690" type="line"/>
			<point x="100" y="690" type="line"/>
		</contour>
		<contour>
			<point x="180" y="207" type="line"/>
			<point x="300" y="343" type="line"/>
			<point x="307" y="351" type="line"/>
			<point x="606" y="690" type="line"/>
			<point x="489" y="690" type="line"/>
			<point x="180" y="331" type="line"/>
		</contour>
		<contour>
			<point x="270" y="333" type="line"/>
			<point x="507" y="0" type="line"/>
			<point x="626" y="0" type="line"/>
			<point x="331" y="402" type="line"/>
		</contour>
	</outline>
</glyph>
<glyph name="L" format="2">
	<advance width="556"/>
	<unicode hex="004C"/>
	<anchor x="148" y="690" name="top"/>
	<anchor x="356" y="680" name="caron.alt"/>
	<anchor x="280" y="0" name="bottom"/>
	<outline>
		<contour>
			<point x="100" y="0" type="line"/>
			<point x="196" y="0" type="line"/>
			<point x="196" y="690" type="line"/>
			<point x="100" y="690" type="line"/>
		</contour>
		<contour>
			<point x="150" y="0" type="line"/>
			<point x="516" y="0" type="line"/>
			<point x="516" y="86" type="line"/>
			<point x="150" y="86" type="line"/>
		</contour>
	</outline>
</glyph>
<glyph name="M" format="2">
  <advance width="836"/>
  <unicode hex="004D"/>
  <outline>
    <contour>
      <point x="100" y="0" type="line"/>
      <point x="196" y="0" type="line"/>
      <point x="196" y="690" type="line"/>
      <point x="100" y="690" type="line"/>
    </contour>
    <contour>
      <point x="143" y="690" type="line"/>
      <point x="388" y="155" type="line"/>
      <point x="430" y="155" type="line"/>
      <point x="436" y="250" type="line"/>
      <point x="241" y="690" type="line"/>
    </contour>
    <contour>
      <point x="406" y="155" type="line"/>
      <point x="448" y="155" type="line"/>
      <point x="693" y="690" type="line"/>
      <point x="595" y="690" type="line"/>
      <point x="400" y="250" type="line"/>
    </contour>
    <contour>
      <point x="640" y="0" type="line"/>
      <point x="736" y="0" type="line"/>
      <point x="736" y="690" type="line"/>
      <point x="640" y="690" type="line"/>
    </contour>
  </outline>
</glyph>
<glyph name="N" format="1">
  <advance width="746"/>
  <unicode hex="004E"/>
  <outline>
    <contour>
      <point x="100" y="0" type="line"/>
      <point x="196" y="0" type="line"/>
      <point x="196" y="690" type="line"/>
      <point x="100" y="690" type="line"/>
    </contour>
    <contour>
      <point x="144" y="690" type="line"/>
      <point x="500" y="0" type="line"/>
      <point x="602" y="0" type="line"/>
      <point x="246" y="690" type="line"/>
    </contour>
    <contour>
      <point x="550" y="0" type="line"/>
      <point x="646" y="0" type="line"/>
      <point x="646" y="690" type="line"/>
      <point x="550" y="690" type="line"/>
    </contour>
    <contour>
      <point x="389" y="690" type="move" name="top"/>
    </contour>
    <contour>
      <point x="373" y="0" type="move" name="bottom"/>
    </contour>
  </outline>
</glyph>
<glyph name="O" format="1">
  <advance width="726"/>
  <unicode hex="004F"/>
  <outline>
    <contour>
      <point x="60" y="345" type="curve" smooth="yes"/>
      <point x="60" y="112"/>
      <point x="197" y="-10"/>
      <point x="363" y="-10" type="curve" smooth="yes"/>
      <point x="529" y="-10"/>
      <point x="666" y="112"/>
      <point x="666" y="345" type="curve" smooth="yes"/>
      <point x="666" y="578"/>
      <point x="529" y="700"/>
      <point x="363" y="700" type="curve" smooth="yes"/>
      <point x="197" y="700"/>
      <point x="60" y="578"/>
    </contour>
    <contour>
      <point x="159" y="345" type="curve" smooth="yes"/>
      <point x="159" y="522"/>
      <point x="246" y="611"/>
      <point x="363" y="611" type="curve" smooth="yes"/>
      <point x="480" y="611"/>
      <point x="567" y="522"/>
      <point x="567" y="345" type="curve" smooth="yes"/>
      <point x="567" y="168"/>
      <point x="480" y="79"/>
      <point x="363" y="79" type="curve" smooth="yes"/>
      <point x="246" y="79"/>
      <point x="159" y="168"/>
    </contour>
    <contour>
      <point x="363" y="690" type="move" name="top"/>
    </contour>
    <contour>
      <point x="363" y="0" type="move" name="bottom"/>
    </contour>
    <contour>
      <point x="400" y="0" type="move" name="ogonek"/>
    </contour>
  </outline>
</glyph>
<glyph name="P" format="2">
	<advance width="632"/>
	<unicode hex="0050"/>
	<outline>
		<contour>
			<point x="100" y="0" type="line"/>
			<point x="196" y="0" type="line"/>
			<point x="196" y="690" type="line"/>
			<point x="100" y="690" type="line"/>
		</contour>
		<contour>
			<point x="150" y="230" type="line"/>
			<point x="328" y="230" type="line" smooth="yes"/>
			<point x="469" y="230"/>
			<point x="582" y="311"/>
			<point x="582" y="460" type="curve" smooth="yes"/>
			<point x="582" y="609"/>
			<point x="469" y="690"/>
			<point x="328" y="690" type="curve" smooth="yes"/>
			<point x="150" y="690" type="line"/>
			<point x="150" y="604" type="line"/>
			<point x="323" y="604" type="line" smooth="yes"/>
			<point x="415" y="604"/>
			<point x="483" y="553"/>
			<point x="483" y="460" type="curve" smooth="yes"/>
			<point x="483" y="367"/>
			<point x="414" y="316"/>
			<point x="323" y="316" type="curve" smooth="yes"/>
			<point x="150" y="316" type="line"/>
		</contour>
	</outline>
</glyph>
<glyph name="Q" format="1">
  <advance width="726"/>
  <unicode hex="0051"/>
  <outline>
    <contour>
      <point x="420" y="9" type="line"/>
      <point x="445" y="-108"/>
      <point x="520" y="-161"/>
      <point x="656" y="-165" type="curve"/>
      <point x="656" y="-71" type="line"/>
      <point x="573" y="-71"/>
      <point x="523" y="-44"/>
      <point x="496" y="36" type="curve"/>
    </contour>
    <contour>
      <point x="60" y="345" type="curve" smooth="yes"/>
      <point x="60" y="112"/>
      <point x="197" y="-10"/>
      <point x="363" y="-10" type="curve" smooth="yes"/>
      <point x="529" y="-10"/>
      <point x="666" y="112"/>
      <point x="666" y="345" type="curve" smooth="yes"/>
      <point x="666" y="578"/>
      <point x="529" y="700"/>
      <point x="363" y="700" type="curve" smooth="yes"/>
      <point x="197" y="700"/>
      <point x="60" y="578"/>
    </contour>
    <contour>
      <point x="159" y="345" type="curve" smooth="yes"/>
      <point x="159" y="522"/>
      <point x="246" y="611"/>
      <point x="363" y="611" type="curve" smooth="yes"/>
      <point x="480" y="611"/>
      <point x="567" y="522"/>
      <point x="567" y="345" type="curve" smooth="yes"/>
      <point x="567" y="168"/>
      <point x="480" y="79"/>
      <point x="363" y="79" type="curve" smooth="yes"/>
      <point x="246" y="79"/>
      <point x="159" y="168"/>
    </contour>
  </outline>
</glyph>
<glyph name="R" format="1">
  <advance width="650"/>
  <unicode hex="0052"/>
  <outline>
    <contour>
      <point x="100" y="0" type="line"/>
      <point x="196" y="0" type="line"/>
      <point x="196" y="690" type="line"/>
      <point x="100" y="690" type="line"/>
    </contour>
    <contour>
      <point x="150" y="260" type="line"/>
      <point x="333" y="260" type="line" smooth="yes"/>
      <point x="468" y="260"/>
      <point x="577" y="335"/>
      <point x="577" y="475" type="curve" smooth="yes"/>
      <point x="577" y="614"/>
      <point x="468" y="690"/>
      <point x="333" y="690" type="curve" smooth="yes"/>
      <point x="150" y="690" type="line"/>
      <point x="150" y="604" type="line"/>
      <point x="328" y="604" type="line" smooth="yes"/>
      <point x="414" y="604"/>
      <point x="478" y="558"/>
      <point x="478" y="475" type="curve" smooth="yes"/>
      <point x="478" y="391"/>
      <point x="413" y="343"/>
      <point x="328" y="343" type="curve" smooth="yes"/>
      <point x="150" y="343" type="line"/>
    </contour>
    <contour>
      <point x="301" y="290" type="line"/>
      <point x="481" y="0" type="line"/>
      <point x="595" y="0" type="line"/>
      <point x="406" y="290" type="line"/>
    </contour>
    <contour>
      <point x="318" y="690" type="move" name="top"/>
    </contour>
    <contour>
      <point x="330" y="0" type="move" name="bottom"/>
    </contour>
  </outline>
</glyph>
<glyph name="S" format="1">
  <advance width="624"/>
  <unicode hex="0053"/>
  <outline>
    <contour>
      <point x="50" y="94" type="line"/>
      <point x="112" y="33"/>
      <point x="220" y="-10"/>
      <point x="320" y="-10" type="curve" smooth="yes"/>
      <point x="480" y="-10"/>
      <point x="569" y="76"/>
      <point x="569" y="183" type="curve" smooth="yes"/>
      <point x="569" y="271"/>
      <point x="507" y="346"/>
      <point x="330" y="403" type="curve" smooth="yes"/>
      <point x="206" y="443"/>
      <point x="173" y="477"/>
      <point x="173" y="522" type="curve" smooth="yes"/>
      <point x="173" y="572"/>
      <point x="218" y="617"/>
      <point x="307" y="617" type="curve" smooth="yes"/>
      <point x="378" y="617"/>
      <point x="440" y="589"/>
      <point x="490" y="541" type="curve"/>
      <point x="545" y="613" type="line"/>
      <point x="481" y="668"/>
      <point x="393" y="700"/>
      <point x="314" y="700" type="curve" smooth="yes"/>
      <point x="175" y="700"/>
      <point x="80" y="615"/>
      <point x="80" y="512" type="curve" smooth="yes"/>
      <point x="80" y="426"/>
      <point x="131" y="364"/>
      <point x="302" y="307" type="curve" smooth="yes"/>
      <point x="433" y="263"/>
      <point x="470" y="224"/>
      <point x="470" y="171" type="curve" smooth="yes"/>
      <point x="470" y="120"/>
      <point x="421" y="77"/>
      <point x="328" y="77" type="curve" smooth="yes"/>
      <point x="238" y="77"/>
      <point x="164" y="108"/>
      <point x="106" y="163" type="curve"/>
    </contour>
    <contour>
      <point x="314" y="690" type="move" name="top"/>
    </contour>
    <contour>
      <point x="320" y="0" type="move" name="bottom"/>
    </contour>
  </outline>
</glyph>
<glyph name="T" format="2">
	<advance width="576"/>
	<unicode hex="0054"/>
	<anchor x="288" y="690" name="top"/>
	<anchor x="288" y="0" name="bottom"/>
	<outline>
		<contour>
			<point x="30" y="604" type="line"/>
			<point x="546" y="604" type="line"/>
			<point x="546" y="690" type="line"/>
			<point x="30" y="690" type="line"/>
		</contour>
		<contour>
			<point x="240" y="0" type="line"/>
			<point x="336" y="0" type="line"/>
			<point x="336" y="690" type="line"/>
			<point x="240" y="690" type="line"/>
		</contour>
	</outline>
</glyph>
<glyph name="U" format="2">
  <advance width="706"/>
  <unicode hex="0055"/>
  <anchor x="353" y="690" name="top"/>
  <anchor x="353" y="0" name="bottom"/>
  <anchor x="380" y="0" name="ogonek"/>
  <outline>
    <contour>
      <point x="90" y="250" type="line" smooth="yes"/>
      <point x="90" y="83"/>
      <point x="204" y="-10"/>
      <point x="353" y="-10" type="curve" smooth="yes"/>
      <point x="502" y="-10"/>
      <point x="616" y="83"/>
      <point x="616" y="250" type="curve" smooth="yes"/>
      <point x="616" y="690" type="line"/>
      <point x="522" y="690" type="line"/>
      <point x="522" y="260" type="line" smooth="yes"/>
      <point x="522" y="143"/>
      <point x="456" y="79"/>
      <point x="354" y="79" type="curve" smooth="yes"/>
      <point x="252" y="79"/>
      <point x="186" y="143"/>
      <point x="186" y="260" type="curve" smooth="yes"/>
      <point x="186" y="690" type="line"/>
      <point x="90" y="690" type="line"/>
    </contour>
  </outline>
</glyph>
<glyph name="V" format="2">
	<advance width="636"/>
	<unicode hex="0056"/>
	<outline>
		<contour>
			<point x="20" y="690" type="line"/>
			<point x="276" y="0" type="line"/>
			<point x="337" y="0" type="line"/>
			<point x="337" y="90" type="line"/>
			<point x="124" y="690" type="line"/>
		</contour>
		<contour>
			<point x="303" y="90" type="line"/>
			<point x="303" y="0" type="line"/>
			<point x="360" y="0" type="line"/>
			<point x="616" y="690" type="line"/>
			<point x="516" y="690" type="line"/>
		</contour>
	</outline>
</glyph>
<glyph name="W" format="2">
	<advance width="961"/>
	<unicode hex="0057"/>
	<anchor x="480" y="690" name="top"/>
	<outline>
		<contour>
			<point x="20" y="690" type="line"/>
			<point x="238" y="0" type="line"/>
			<point x="293" y="0" type="line"/>
			<point x="297" y="96" type="line"/>
			<point x="122" y="690" type="line"/>
		</contour>
		<contour>
			<point x="263" y="96" type="line"/>
			<point x="271" y="0" type="line"/>
			<point x="318" y="0" type="line"/>
			<point x="494" y="562" type="line"/>
			<point x="494" y="690" type="line"/>
			<point x="442" y="690" type="line"/>
		</contour>
		<contour>
			<point x="468" y="562" type="line"/>
			<point x="644" y="0" type="line"/>
			<point x="699" y="0" type="line"/>
			<point x="703" y="96" type="line"/>
			<point x="523" y="690" type="line"/>
			<point x="468" y="690" type="line"/>
		</contour>
		<contour>
			<point x="669" y="96" type="line"/>
			<point x="677" y="0" type="line"/>
			<point x="724" y="0" type="line"/>
			<point x="941" y="690" type="line"/>
			<point x="843" y="690" type="line"/>
		</contour>
	</outline>
</glyph>
<glyph name="X" format="2">
	<advance width="644"/>
	<unicode hex="0058"/>
	<outline>
		<contour>
			<point x="30" y="0" type="line"/>
			<point x="140" y="0" type="line"/>
			<point x="333" y="296" type="line"/>
			<point x="362" y="331" type="line"/>
			<point x="604" y="690" type="line"/>
			<point x="494" y="690" type="line"/>
			<point x="311" y="409" type="line"/>
			<point x="282" y="374" type="line"/>
		</contour>
		<contour>
			<point x="40" y="690" type="line"/>
			<point x="292" y="310" type="line"/>
			<point x="498" y="0" type="line"/>
			<point x="614" y="0" type="line"/>
			<point x="353" y="394" type="line"/>
			<point x="156" y="690" type="line"/>
		</contour>
	</outline>
</glyph>
<glyph name="Z" format="2">
  <advance width="614"/>
  <unicode hex="005A"/>
  <anchor x="307" y="690" name="top"/>
  <outline>
    <contour>
      <point x="60" y="66" type="line"/>
      <point x="124" y="0" type="line"/>
      <point x="544" y="624" type="line"/>
      <point x="480" y="690" type="line"/>
    </contour>
    <contour>
      <point x="60" y="0" type="line"/>
      <point x="554" y="0" type="line"/>
      <point x="554" y="86" type="line"/>
      <point x="106" y="86" type="line"/>
      <point x="60" y="66" type="line"/>
    </contour>
    <contour>
      <point x="70" y="604" type="line"/>
      <point x="495" y="604" type="line"/>
      <point x="544" y="624" type="line"/>
      <point x="544" y="690" type="line"/>
      <point x="70" y="690" type="line"/>
    </contour>
  </outline>
</glyph>
<glyph name="bracketleft" format="2">
	<advance width="320"/>
	<unicode hex="005B"/>
	<outline>
		<contour>
			<point x="100" y="-245" type="line"/>
			<point x="182" y="-245" type="line"/>
			<point x="182" y="780" type="line"/>
			<point x="100" y="780" type="line"/>
		</contour>
		<contour>
			<point x="100" y="-245" type="line"/>
			<point x="345" y="-245" type="line"/>
			<point x="345" y="-175" type="line"/>
			<point x="100" y="-175" type="line"/>
		</contour>
		<contour>
			<point x="100" y="710" type="line"/>
			<point x="345" y="710" type="line"/>
			<point x="345" y="780" type="line"/>
			<point x="100" y="780" type="line"/>
		</contour>
	</outline>
</glyph>
<glyph name="backslash" format="2">
  <advance width="336"/>
  <unicode hex="005C"/>
  <outline>
    <contour>
      <point x="0" y="720" type="line"/>
      <point x="250" y="-30" type="line"/>
      <point x="336" y="-30" type="line"/>
      <point x="86" y="720" type="line"/>
    </contour>
  </outline>
</glyph>
<glyph name="bracketright" format="2">
	<advance width="320"/>
	<unicode hex="005D"/>
	<outline>
		<contour>
			<point x="-25" y="-245" type="line"/>
			<point x="220" y="-245" type="line"/>
			<point x="220" y="-175" type="line"/>
			<point x="-25" y="-175" type="line"/>
		</contour>
		<contour>
			<point x="-25" y="710" type="line"/>
			<point x="220" y="710" type="line"/>
			<point x="220" y="780" type="line"/>
			<point x="-25" y="780" type="line"/>
		</contour>
		<contour>
			<point x="138" y="-245" type="line"/>
			<point x="220" y="-245" type="line"/>
			<point x="220" y="780" type="line"/>
			<point x="138" y="780" type="line"/>
		</contour>
	</outline>
</glyph>
<glyph name="asciicircum" format="2">
	<advance width="600"/>
	<unicode hex="005E"/>
	<outline>
		<contour>
			<point x="65" y="265" type="line"/>
			<point x="155" y="265" type="line"/>
			<point x="310" y="608" type="line"/>
			<point x="309" y="690" type="line"/>
			<point x="264" y="690" type="line"/>
		</contour>
		<contour>
			<point x="283" y="690" type="line"/>
			<point x="285" y="608" type="line"/>
			<point x="442" y="265" type="line"/>
			<point x="535" y="265" type="line"/>
			<point x="336" y="690" type="line"/>
		</contour>
	</outline>
</glyph>
<glyph name="grave" format="2">
	<advance width="600"/>
	<unicode hex="0060"/>
	<anchor x="300" y="515" name="_top"/>
	<outline>
		<contour>
			<point x="159" y="740" type="line"/>
			<point x="269" y="590" type="line"/>
			<point x="345" y="590" type="line"/>
			<point x="270" y="740" type="line"/>
		</contour>
	</outline>
</glyph>
<glyph name="a" format="2">
	<advance width="543"/>
	<unicode hex="0061"/>
	<anchor x="265" y="515" name="top"/>
	<anchor x="265" y="0" name="bottom"/>
	<anchor x="387" y="0" name="ogonek"/>
	<anchor x="291" y="551" name="hook"/>
	<outline>
		<contour>
			<point x="60" y="132" type="curve"/>
			<point x="60" y="44"/>
			<point x="127" y="-10"/>
			<point x="202" y="-10" type="curve"/>
			<point x="276" y="-10"/>
			<point x="342" y="31"/>
			<point x="381" y="85" type="curve"/>
			<point x="381" y="157" type="line"/>
			<point x="334" y="105"/>
			<point x="279" y="74"/>
			<point x="222" y="74" type="curve"/>
			<point x="181" y="74"/>
			<point x="154" y="98"/>
			<point x="154" y="140" type="curve"/>
			<point x="154" y="183"/>
			<point x="185" y="224"/>
			<point x="315" y="237" type="curve" smooth="yes"/>
			<point x="374" y="243" type="line"/>
			<point x="374" y="308" type="line"/>
			<point x="311" y="306" type="line" smooth="yes"/>
			<point x="124" y="300"/>
			<point x="60" y="221"/>
		</contour>
		<contour>
			<point x="75" y="472" type="curve"/>
			<point x="107" y="394" type="line"/>
			<point x="152" y="419"/>
			<point x="196" y="437"/>
			<point x="249" y="437" type="curve"/>
			<point x="322" y="437"/>
			<point x="366" y="402"/>
			<point x="366" y="314" type="curve" smooth="yes"/>
			<point x="366" y="100" type="line"/>
			<point x="387" y="0" type="line"/>
			<point x="473" y="0" type="line"/>
			<point x="465" y="44" type="line" smooth="yes"/>
			<point x="460" y="73"/>
			<point x="458" y="94"/>
			<point x="458" y="122" type="curve" smooth="yes"/>
			<point x="458" y="325" type="line" smooth="yes"/>
			<point x="458" y="459"/>
			<point x="371" y="525"/>
			<point x="258" y="525" type="curve"/>
			<point x="197" y="525"/>
			<point x="122" y="501"/>
		</contour>
	</outline>
</glyph>
<glyph name="c" format="2">
	<advance width="504"/>
	<unicode hex="0063"/>
	<anchor x="286" y="515" name="top"/>
	<anchor x="286" y="0" name="bottom"/>
	<outline>
		<contour>
			<point x="55" y="252" type="curve" smooth="yes"/>
			<point x="55" y="77"/>
			<point x="161" y="-10"/>
			<point x="301" y="-10" type="curve" smooth="yes"/>
			<point x="365" y="-10"/>
			<point x="429" y="13"/>
			<point x="469" y="55" type="curve"/>
			<point x="416" y="122" type="line"/>
			<point x="389" y="94"/>
			<point x="349" y="74"/>
			<point x="297" y="74" type="curve" smooth="yes"/>
			<point x="218" y="74"/>
			<point x="149" y="132"/>
			<point x="149" y="252" type="curve" smooth="yes"/>
			<point x="149" y="372"/>
			<point x="220" y="441"/>
			<point x="302" y="441" type="curve" smooth="yes"/>
			<point x="349" y="441"/>
			<point x="386" y="422"/>
			<point x="411" y="393" type="curve"/>
			<point x="467" y="460" type="line"/>
			<point x="427" y="502"/>
			<point x="365" y="525"/>
			<point x="306" y="525" type="curve" smooth="yes"/>
			<point x="166" y="525"/>
			<point x="55" y="421"/>
		</contour>
	</outline>
</glyph>
<glyph name="d" format="2">
	<advance width="586"/>
	<unicode hex="0064"/>
	<anchor x="586" y="720" name="caron.alt"/>
	<outline>
		<contour>
			<point x="55" y="253" type="curve" smooth="yes"/>
			<point x="55" y="89"/>
			<point x="142" y="-10"/>
			<point x="247" y="-10" type="curve" smooth="yes"/>
			<point x="313" y="-10"/>
			<point x="375" y="29"/>
			<point x="419" y="85" type="curve"/>
			<point x="419" y="157" type="line"/>
			<point x="375" y="107"/>
			<point x="325" y="75"/>
			<point x="272" y="75" type="curve" smooth="yes"/>
			<point x="202" y="75"/>
			<point x="149" y="139"/>
			<point x="149" y="256" type="curve" smooth="yes"/>
			<point x="149" y="369"/>
			<point x="200" y="448"/>
			<point x="283" y="448" type="curve"/>
			<point x="343" y="448"/>
			<point x="404" y="398"/>
			<point x="404" y="283" type="curve"/>
			<point x="444" y="293" type="line"/>
			<point x="444" y="461"/>
			<point x="354" y="525"/>
			<point x="267" y="525" type="curve"/>
			<point x="139" y="525"/>
			<point x="55" y="423"/>
		</contour>
		<contour>
			<point x="425" y="0" type="line"/>
			<point x="511" y="0" type="line"/>
			<point x="503" y="44" type="line" smooth="yes"/>
			<point x="498" y="73"/>
			<point x="496" y="94"/>
			<point x="496" y="122" type="curve" smooth="yes"/>
			<point x="496" y="735" type="line"/>
			<point x="404" y="715" type="line"/>
			<point x="404" y="100" type="line"/>
		</contour>
	</outline>
</glyph>
<glyph name="e" format="2">
	<advance width="553"/>
	<unicode hex="0065"/>
	<anchor x="285" y="515" name="top"/>
	<anchor x="304" y="0" name="ogonek"/>
	<anchor x="285" y="0" name="bottom"/>
	<outline>
		<contour>
			<point x="55" y="252" type="curve" smooth="yes"/>
			<point x="55" y="77"/>
			<point x="162" y="-10"/>
			<point x="306" y="-10" type="curve" smooth="yes"/>
			<point x="367" y="-10"/>
			<point x="425" y="6"/>
			<point x="471" y="43" type="curve"/>
			<point x="428" y="116" type="line"/>
			<point x="397" y="92"/>
			<point x="357" y="74"/>
			<point x="309" y="74" type="curve" smooth="yes"/>
			<point x="219" y="74"/>
			<point x="149" y="134"/>
			<point x="149" y="252" type="curve" smooth="yes"/>
			<point x="149" y="379"/>
			<point x="204" y="444"/>
			<point x="284" y="444" type="curve" smooth="yes"/>
			<point x="352" y="444"/>
			<point x="408" y="395"/>
			<point x="408" y="267" type="curve"/>
			<point x="426" y="304" type="line"/>
			<point x="134" y="304" type="line"/>
			<point x="134" y="230" type="line"/>
			<point x="496" y="230" type="line"/>
			<point x="497" y="242"/>
			<point x="498" y="255"/>
			<point x="498" y="267" type="curve" smooth="yes"/>
			<point x="498" y="439"/>
			<point x="403" y="525"/>
			<point x="285" y="525" type="curve" smooth="yes"/>
			<point x="157" y="525"/>
			<point x="55" y="432"/>
		</contour>
	</outline>
</glyph>
<glyph name="f" format="2">
	<advance width="361"/>
	<unicode hex="0066"/>
	<outline>
		<contour>
			<point x="20" y="435" type="line"/>
			<point x="354" y="435" type="line"/>
			<point x="354" y="515" type="line"/>
			<point x="20" y="515" type="line"/>
		</contour>
		<contour>
			<point x="110" y="0" type="line"/>
			<point x="202" y="0" type="line"/>
			<point x="202" y="554" type="line" smooth="yes"/>
			<point x="202" y="613.38554"/>
			<point x="229" y="651"/>
			<point x="285" y="651" type="curve" smooth="yes"/>
			<point x="310" y="651"/>
			<point x="335" y="645"/>
			<point x="363" y="633" type="curve"/>
			<point x="381" y="707" type="line"/>
			<point x="349" y="721"/>
			<point x="313" y="730"/>
			<point x="272" y="730" type="curve" smooth="yes"/>
			<point x="183" y="730"/>
			<point x="110" y="667.38037"/>
			<point x="110" y="557" type="curve" smooth="yes"/>
		</contour>
	</outline>
</glyph>
<glyph name="g" format="2">
	<advance width="586"/>
	<unicode hex="0067"/>
	<anchor x="286" y="515" name="top"/>
	<outline>
		<contour>
			<point x="55" y="263" type="curve" smooth="yes"/>
			<point x="55" y="105"/>
			<point x="142" y="10"/>
			<point x="247" y="10" type="curve" smooth="yes"/>
			<point x="313" y="10"/>
			<point x="375" y="47"/>
			<point x="419" y="100" type="curve"/>
			<point x="419" y="169" type="line"/>
			<point x="375" y="123"/>
			<point x="322" y="95"/>
			<point x="272" y="95" type="curve" smooth="yes"/>
			<point x="202" y="95"/>
			<point x="149" y="155"/>
			<point x="149" y="266" type="curve" smooth="yes"/>
			<point x="149" y="373.11458"/>
			<point x="200" y="448"/>
			<point x="283" y="448" type="curve" smooth="yes"/>
			<point x="343" y="448"/>
			<point x="404" y="398"/>
			<point x="404" y="283" type="curve"/>
			<point x="444" y="293" type="line"/>
			<point x="444" y="461"/>
			<point x="354" y="525"/>
			<point x="268" y="525" type="curve" smooth="yes"/>
			<point x="139" y="525"/>
			<point x="55" y="426.75"/>
		</contour>
		<contour>
			<point x="79" y="-145" type="line"/>
			<point x="126" y="-172"/>
			<point x="200" y="-195"/>
			<point x="265" y="-195" type="curve"/>
			<point x="397" y="-195"/>
			<point x="496" y="-108"/>
			<point x="496" y="46" type="curve" smooth="yes"/>
			<point x="496" y="393" type="line"/>
			<point x="496" y="421"/>
			<point x="498" y="442"/>
			<point x="503" y="471" type="curve" smooth="yes"/>
			<point x="511" y="515" type="line"/>
			<point x="425" y="515" type="line"/>
			<point x="404" y="415" type="line"/>
			<point x="404" y="49" type="line" smooth="yes"/>
			<point x="404" y="-60"/>
			<point x="346" y="-109"/>
			<point x="261" y="-109" type="curve"/>
			<point x="200" y="-109"/>
			<point x="158" y="-90"/>
			<point x="112" y="-64" type="curve"/>
		</contour>
	</outline>
</glyph>
<glyph name="h" format="2">
	<advance width="604"/>
	<unicode hex="0068"/>
	<anchor x="136" y="720" name="top"/>
	<outline>
		<contour>
			<point x="90" y="0" type="line"/>
			<point x="182" y="0" type="line"/>
			<point x="182" y="735" type="line"/>
			<point x="90" y="715" type="line"/>
		</contour>
		<contour>
			<point x="167" y="361" type="line"/>
			<point x="211" y="410"/>
			<point x="263" y="438"/>
			<point x="316" y="438" type="curve"/>
			<point x="380" y="438"/>
			<point x="427" y="397"/>
			<point x="427" y="304" type="curve" smooth="yes"/>
			<point x="427" y="0" type="line"/>
			<point x="519" y="0" type="line"/>
			<point x="519" y="316" type="line" smooth="yes"/>
			<point x="519" y="457"/>
			<point x="442" y="525"/>
			<point x="340" y="525" type="curve"/>
			<point x="273" y="525"/>
			<point x="211" y="486"/>
			<point x="167" y="430" type="curve"/>
		</contour>
	</outline>
</glyph>
<glyph name="i" format="2">
  <advance width="272"/>
  <unicode hex="0069"/>
  <anchor x="136" y="0" name="bottom"/>
  <anchor x="90" y="0" name="ogonek"/>
  <outline>
    <contour>
      <point x="90" y="0" type="line"/>
      <point x="182" y="0" type="line"/>
      <point x="182" y="515" type="line"/>
      <point x="90" y="515" type="line"/>
    </contour>
    <contour>
      <point x="75" y="667" type="curve" smooth="yes"/>
      <point x="75" y="632"/>
      <point x="101" y="605"/>
      <point x="136" y="605" type="curve" smooth="yes"/>
      <point x="173" y="605"/>
      <point x="197" y="632"/>
      <point x="197" y="667" type="curve" smooth="yes"/>
      <point x="197" y="703"/>
      <point x="173" y="730"/>
      <point x="136" y="730" type="curve" smooth="yes"/>
      <point x="101" y="730"/>
      <point x="75" y="703"/>
    </contour>
  </outline>
</glyph>
<glyph name="j" format="2">
	<advance width="272"/>
	<unicode hex="006A"/>
	<outline>
		<contour>
			<point x="-51" y="-181" type="line"/>
			<point x="-30" y="-189"/>
			<point x="-3" y="-195"/>
			<point x="24" y="-195" type="curve"/>
			<point x="114" y="-195"/>
			<point x="182" y="-134"/>
			<point x="182" y="-34" type="curve" smooth="yes"/>
			<point x="182" y="515" type="line"/>
			<point x="90" y="515" type="line"/>
			<point x="90" y="-30" type="line" smooth="yes"/>
			<point x="90" y="-88"/>
			<point x="64" y="-114"/>
			<point x="18" y="-114" type="curve"/>
			<point x="-2" y="-114"/>
			<point x="-19" y="-110"/>
			<point x="-35" y="-105" type="curve"/>
		</contour>
		<contour>
			<point x="75" y="667" type="curve" smooth="yes"/>
			<point x="75" y="632"/>
			<point x="101" y="605"/>
			<point x="136" y="605" type="curve" smooth="yes"/>
			<point x="173" y="605"/>
			<point x="197" y="632"/>
			<point x="197" y="667" type="curve" smooth="yes"/>
			<point x="197" y="703"/>
			<point x="173" y="730"/>
			<point x="136" y="730" type="curve" smooth="yes"/>
			<point x="101" y="730"/>
			<point x="75" y="703"/>
		</contour>
	</outline>
</glyph>
<glyph name="k" format="2">
	<advance width="533"/>
	<unicode hex="006B"/>
	<anchor x="286" y="0" name="bottom"/>
	<outline>
		<contour>
			<point x="90" y="0" type="line"/>
			<point x="182" y="0" type="line"/>
			<point x="182" y="735" type="line"/>
			<point x="90" y="715" type="line"/>
		</contour>
		<contour>
			<point x="176" y="166" type="line"/>
			<point x="503" y="515" type="line"/>
			<point x="386" y="515" type="line"/>
			<point x="176" y="282" type="line"/>
		</contour>
		<contour>
			<point x="235" y="263" type="line"/>
			<point x="406" y="0" type="line"/>
			<point x="518" y="0" type="line"/>
			<point x="298" y="324" type="line"/>
		</contour>
	</outline>
</glyph>
<glyph name="l" format="2">
	<advance width="272"/>
	<unicode hex="006C"/>
	<anchor x="136" y="720" name="top"/>
	<anchor x="272" y="720" name="caron.alt"/>
	<anchor x="136" y="0" name="bottom"/>
	<outline>
		<contour>
			<point x="90" y="0" type="line"/>
			<point x="182" y="0" type="line"/>
			<point x="182" y="735" type="line"/>
			<point x="90" y="715" type="line"/>
		</contour>
	</outline>
</glyph>
<glyph name="m" format="2">
  <advance width="881"/>
  <unicode hex="006D"/>
  <outline>
    <contour>
      <point x="75" y="515" type="line"/>
      <point x="83" y="471" type="line" smooth="yes"/>
      <point x="88" y="442"/>
      <point x="90" y="421"/>
      <point x="90" y="393" type="curve" smooth="yes"/>
      <point x="90" y="0" type="line"/>
      <point x="182" y="0" type="line"/>
      <point x="182" y="415" type="line"/>
      <point x="161" y="515" type="line"/>
    </contour>
    <contour>
      <point x="167" y="358" type="line"/>
      <point x="207" y="408"/>
      <point x="252" y="438"/>
      <point x="299" y="438" type="curve"/>
      <point x="355" y="438"/>
      <point x="397" y="403"/>
      <point x="397" y="313" type="curve" smooth="yes"/>
      <point x="397" y="0" type="line"/>
      <point x="489" y="0" type="line"/>
      <point x="489" y="325" type="line" smooth="yes"/>
      <point x="489" y="463"/>
      <point x="418" y="525"/>
      <point x="331" y="525" type="curve" smooth="yes"/>
      <point x="264" y="525"/>
      <point x="207" y="486"/>
      <point x="167" y="430" type="curve"/>
    </contour>
    <contour>
      <point x="465" y="428" type="curve"/>
      <point x="474" y="358" type="line"/>
      <point x="514" y="408"/>
      <point x="559" y="438"/>
      <point x="606" y="438" type="curve"/>
      <point x="662" y="438"/>
      <point x="704" y="403"/>
      <point x="704" y="313" type="curve" smooth="yes"/>
      <point x="704" y="0" type="line"/>
      <point x="796" y="0" type="line"/>
      <point x="796" y="325" type="line" smooth="yes"/>
      <point x="796" y="463"/>
      <point x="725" y="525"/>
      <point x="638" y="525" type="curve" smooth="yes"/>
      <point x="567" y="525"/>
      <point x="507" y="485"/>
    </contour>
  </outline>
</glyph>
<glyph name="n" format="2">
	<advance width="604"/>
	<unicode hex="006E"/>
	<anchor x="314" y="515" name="top"/>
	<anchor x="304" y="0" name="bottom"/>
	<outline>
		<contour>
			<point x="75" y="515" type="line"/>
			<point x="83" y="471" type="line" smooth="yes"/>
			<point x="88" y="442"/>
			<point x="90" y="421"/>
			<point x="90" y="393" type="curve" smooth="yes"/>
			<point x="90" y="0" type="line"/>
			<point x="182" y="0" type="line"/>
			<point x="182" y="415" type="line"/>
			<point x="161" y="515" type="line"/>
		</contour>
		<contour>
			<point x="167" y="358" type="line"/>
			<point x="211" y="408"/>
			<point x="263" y="438"/>
			<point x="316" y="438" type="curve"/>
			<point x="380" y="438"/>
			<point x="427" y="397"/>
			<point x="427" y="304" type="curve" smooth="yes"/>
			<point x="427" y="0" type="line"/>
			<point x="519" y="0" type="line"/>
			<point x="519" y="316" type="line" smooth="yes"/>
			<point x="519" y="457"/>
			<point x="442" y="525"/>
			<point x="340" y="525" type="curve"/>
			<point x="273" y="525"/>
			<point x="211" y="486"/>
			<point x="167" y="430" type="curve"/>
		</contour>
	</outline>
</glyph>
<glyph name="o" format="2">
	<advance width="572"/>
	<unicode hex="006F"/>
	<anchor x="286" y="515" name="top"/>
	<anchor x="286" y="0" name="bottom"/>
	<anchor x="300" y="0" name="ogonek"/>
	<outline>
		<contour>
			<point x="55" y="257" type="curve" smooth="yes"/>
			<point x="55" y="84"/>
			<point x="152" y="-10"/>
			<point x="286" y="-10" type="curve" smooth="yes"/>
			<point x="420" y="-10"/>
			<point x="517" y="84"/>
			<point x="517" y="257" type="curve" smooth="yes"/>
			<point x="517" y="430"/>
			<point x="420" y="525"/>
			<point x="286" y="525" type="curve" smooth="yes"/>
			<point x="152" y="525"/>
			<point x="55" y="430"/>
		</contour>
		<contour>
			<point x="149" y="257" type="curve" smooth="yes"/>
			<point x="149" y="377"/>
			<point x="200" y="444"/>
			<point x="286" y="444" type="curve" smooth="yes"/>
			<point x="372" y="444"/>
			<point x="423" y="377"/>
			<point x="423" y="257" type="curve" smooth="yes"/>
			<point x="423" y="137"/>
			<point x="372" y="71"/>
			<point x="286" y="71" type="curve" smooth="yes"/>
			<point x="200" y="71"/>
			<point x="149" y="137"/>
		</contour>
	</outline>
</glyph>
<glyph name="p" format="2">
	<advance width="586"/>
	<unicode hex="0070"/>
	<outline>
		<contour>
			<point x="75" y="515" type="line"/>
			<point x="83" y="471" type="line" smooth="yes"/>
			<point x="88" y="442"/>
			<point x="90" y="421"/>
			<point x="90" y="393" type="curve" smooth="yes"/>
			<point x="90" y="-200" type="line"/>
			<point x="182" y="-180" type="line"/>
			<point x="182" y="415" type="line"/>
			<point x="161" y="515" type="line"/>
		</contour>
		<contour>
			<point x="142" y="222" type="line"/>
			<point x="142" y="54"/>
			<point x="232" y="-10"/>
			<point x="318" y="-10" type="curve"/>
			<point x="447" y="-10"/>
			<point x="531" y="92"/>
			<point x="531" y="262" type="curve" smooth="yes"/>
			<point x="531" y="426"/>
			<point x="444.49451" y="525"/>
			<point x="339" y="525" type="curve" smooth="yes"/>
			<point x="273" y="525"/>
			<point x="211" y="486"/>
			<point x="167" y="430" type="curve"/>
			<point x="167" y="358" type="line"/>
			<point x="211" y="408"/>
			<point x="261" y="440"/>
			<point x="314" y="440" type="curve" smooth="yes"/>
			<point x="383.66372" y="440"/>
			<point x="437" y="376.23864"/>
			<point x="437" y="259" type="curve" smooth="yes"/>
			<point x="437" y="145.94416"/>
			<point x="386" y="67"/>
			<point x="303" y="67" type="curve"/>
			<point x="243" y="67"/>
			<point x="182" y="117"/>
			<point x="182" y="232" type="curve"/>
		</contour>
	</outline>
</glyph>
<glyph name="q" format="2">
	<advance width="586"/>
	<unicode hex="0071"/>
	<outline>
		<contour>
			<point x="55" y="253" type="curve" smooth="yes"/>
			<point x="55" y="89"/>
			<point x="142" y="-10"/>
			<point x="247" y="-10" type="curve" smooth="yes"/>
			<point x="313" y="-10"/>
			<point x="375" y="29"/>
			<point x="419" y="85" type="curve"/>
			<point x="419" y="154" type="line"/>
			<point x="375" y="105"/>
			<point x="322" y="75"/>
			<point x="272" y="75" type="curve" smooth="yes"/>
			<point x="202" y="75"/>
			<point x="149" y="139"/>
			<point x="149" y="256" type="curve" smooth="yes"/>
			<point x="149" y="369"/>
			<point x="200" y="448"/>
			<point x="283" y="448" type="curve"/>
			<point x="343" y="448"/>
			<point x="404" y="398"/>
			<point x="404" y="283" type="curve"/>
			<point x="444" y="293" type="line"/>
			<point x="444" y="461"/>
			<point x="354" y="525"/>
			<point x="268" y="525" type="curve"/>
			<point x="139" y="525"/>
			<point x="55" y="423"/>
		</contour>
		<contour>
			<point x="404" y="-200" type="line"/>
			<point x="496" y="-180" type="line"/>
			<point x="496" y="393" type="line" smooth="yes"/>
			<point x="496" y="421"/>
			<point x="498" y="442"/>
			<point x="503" y="471" type="curve" smooth="yes"/>
			<point x="511" y="515" type="line"/>
			<point x="425" y="515" type="line"/>
			<point x="404" y="415" type="line"/>
		</contour>
	</outline>
</glyph>
<glyph name="r" format="2">
  <advance width="370"/>
  <unicode hex="0072"/>
  <anchor x="205" y="515" name="top"/>
  <anchor x="136" y="0" name="bottom"/>
  <outline>
    <contour>
      <point x="75" y="515" type="line"/>
      <point x="83" y="471" type="line" smooth="yes"/>
      <point x="88" y="442"/>
      <point x="90" y="421"/>
      <point x="90" y="393" type="curve" smooth="yes"/>
      <point x="90" y="0" type="line"/>
      <point x="182" y="0" type="line"/>
      <point x="182" y="415" type="line"/>
      <point x="161" y="515" type="line"/>
    </contour>
    <contour>
      <point x="167" y="344" type="line"/>
      <point x="204" y="394"/>
      <point x="264" y="422"/>
      <point x="345" y="426" type="curve"/>
      <point x="345" y="525" type="line"/>
      <point x="267" y="525"/>
      <point x="204.0" y="482.04761904761904"/>
      <point x="167" y="415" type="curve"/>
    </contour>
  </outline>
</glyph>
<glyph name="s" format="2">
	<advance width="501"/>
	<unicode hex="0073"/>
	<anchor x="245" y="0" name="bottom"/>
	<anchor x="258" y="515" name="top"/>
	<outline>
		<contour>
			<point x="50" y="61" type="line"/>
			<point x="96" y="19"/>
			<point x="168" y="-10"/>
			<point x="245" y="-10" type="curve" smooth="yes"/>
			<point x="367" y="-10"/>
			<point x="446" y="54"/>
			<point x="446" y="140" type="curve" smooth="yes"/>
			<point x="446" y="211"/>
			<point x="408" y="267"/>
			<point x="277" y="306" type="curve" smooth="yes"/>
			<point x="182" y="334"/>
			<point x="156" y="352"/>
			<point x="156" y="390" type="curve" smooth="yes"/>
			<point x="156" y="422"/>
			<point x="188" y="448"/>
			<point x="249" y="448" type="curve" smooth="yes"/>
			<point x="299" y="448"/>
			<point x="344" y="427"/>
			<point x="376" y="401" type="curve"/>
			<point x="427" y="467" type="line"/>
			<point x="380" y="505"/>
			<point x="315" y="525"/>
			<point x="258" y="525" type="curve" smooth="yes"/>
			<point x="147" y="525"/>
			<point x="68" y="463"/>
			<point x="68" y="380" type="curve" smooth="yes"/>
			<point x="68" y="309"/>
			<point x="114" y="257"/>
			<point x="232" y="221" type="curve" smooth="yes"/>
			<point x="328" y="192"/>
			<point x="354" y="165"/>
			<point x="354" y="129" type="curve" smooth="yes"/>
			<point x="354" y="92"/>
			<point x="321" y="67"/>
			<point x="253" y="67" type="curve" smooth="yes"/>
			<point x="188" y="67"/>
			<point x="140" y="94"/>
			<point x="104" y="123" type="curve"/>
		</contour>
	</outline>
</glyph>
<glyph name="t" format="2">
	<advance width="394"/>
	<unicode hex="0074"/>
	<anchor x="394" y="720" name="caron.alt"/>
	<anchor x="230" y="0" name="bottom"/>
	<outline>
		<contour>
			<point x="20" y="435" type="line"/>
			<point x="354" y="435" type="line"/>
			<point x="354" y="515" type="line"/>
			<point x="20" y="515" type="line"/>
		</contour>
		<contour>
			<point x="110" y="152" type="line" smooth="yes"/>
			<point x="110" y="48"/>
			<point x="180" y="-10"/>
			<point x="264" y="-10" type="curve"/>
			<point x="300" y="-10"/>
			<point x="337" y="-1"/>
			<point x="369" y="11" type="curve"/>
			<point x="353" y="90" type="line"/>
			<point x="325" y="79"/>
			<point x="302" y="73"/>
			<point x="280" y="73" type="curve"/>
			<point x="226" y="73"/>
			<point x="202" y="103"/>
			<point x="202" y="156" type="curve" smooth="yes"/>
			<point x="202" y="654" type="line"/>
			<point x="110" y="634" type="line"/>
		</contour>
	</outline>
</glyph>
<glyph name="u" format="2">
	<advance width="600"/>
	<unicode hex="0075"/>
	<anchor x="298" y="515" name="top"/>
	<anchor x="298" y="0" name="bottom"/>
	<anchor x="507" y="0" name="ogonek"/>
	<anchor x="503" y="515" name="horn"/>
	<outline>
		<contour>
			<point x="85" y="199" type="line" smooth="yes"/>
			<point x="85" y="58"/>
			<point x="160" y="-10"/>
			<point x="262" y="-10" type="curve" smooth="yes"/>
			<point x="329" y="-10"/>
			<point x="389" y="29"/>
			<point x="433" y="85" type="curve"/>
			<point x="433" y="157" type="line"/>
			<point x="389" y="107"/>
			<point x="339" y="77"/>
			<point x="286" y="77" type="curve" smooth="yes"/>
			<point x="222" y="77"/>
			<point x="177" y="118"/>
			<point x="177" y="211" type="curve" smooth="yes"/>
			<point x="177" y="515" type="line"/>
			<point x="85" y="515" type="line"/>
		</contour>
		<contour>
			<point x="439" y="0" type="line"/>
			<point x="525" y="0" type="line"/>
			<point x="517" y="44" type="line" smooth="yes"/>
			<point x="512" y="73"/>
			<point x="510" y="94"/>
			<point x="510" y="122" type="curve" smooth="yes"/>
			<point x="510" y="515" type="line"/>
			<point x="418" y="515" type="line"/>
			<point x="418" y="100" type="line"/>
		</contour>
	</outline>
</glyph>
<glyph name="v" format="2">
	<advance width="496"/>
	<unicode hex="0076"/>
	<outline>
		<contour>
			<point x="10" y="515" type="line"/>
			<point x="212" y="0" type="line"/>
			<point x="265" y="0" type="line"/>
			<point x="264" y="90" type="line"/>
			<point x="109" y="515" type="line"/>
		</contour>
		<contour>
			<point x="238" y="90" type="line"/>
			<point x="239" y="0" type="line"/>
			<point x="284" y="0" type="line"/>
			<point x="486" y="515" type="line"/>
			<point x="391" y="515" type="line"/>
		</contour>
	</outline>
</glyph>
<glyph name="w" format="2">
	<advance width="749"/>
	<unicode hex="0077"/>
	<anchor x="374" y="515" name="top"/>
	<outline>
		<contour>
			<point x="10" y="515" type="line"/>
			<point x="182" y="0" type="line"/>
			<point x="235" y="0" type="line"/>
			<point x="234" y="94" type="line"/>
			<point x="108" y="515" type="line"/>
		</contour>
		<contour>
			<point x="208" y="94" type="line"/>
			<point x="209" y="0" type="line"/>
			<point x="254" y="0" type="line"/>
			<point x="390" y="409" type="line"/>
			<point x="390" y="515" type="line"/>
			<point x="339" y="515" type="line"/>
		</contour>
		<contour>
			<point x="359" y="409" type="line"/>
			<point x="495" y="0" type="line"/>
			<point x="548" y="0" type="line"/>
			<point x="547" y="94" type="line"/>
			<point x="414" y="515" type="line"/>
			<point x="359" y="515" type="line"/>
		</contour>
		<contour>
			<point x="521" y="94" type="line"/>
			<point x="522" y="0" type="line"/>
			<point x="567" y="0" type="line"/>
			<point x="739" y="515" type="line"/>
			<point x="645" y="515" type="line"/>
		</contour>
	</outline>
</glyph>
<glyph name="x" format="1">
  <advance width="529"/>
  <unicode hex="0078"/>
  <outline>
    <contour>
      <point x="30" y="0" type="line"/>
      <point x="133" y="0" type="line"/>
      <point x="272" y="210" type="line"/>
      <point x="303" y="246" type="line"/>
      <point x="489" y="515" type="line"/>
      <point x="386" y="515" type="line"/>
      <point x="255" y="317" type="line"/>
      <point x="225" y="283" type="line"/>
    </contour>
    <contour>
      <point x="40" y="515" type="line"/>
      <point x="236" y="228" type="line"/>
      <point x="238" y="225" type="line"/>
      <point x="391" y="0" type="line"/>
      <point x="499" y="0" type="line"/>
      <point x="295" y="299" type="line"/>
      <point x="293" y="302" type="line"/>
      <point x="148" y="515" type="line"/>
    </contour>
  </outline>
</glyph>
<glyph name="y" format="1">
  <advance width="496"/>
  <unicode hex="0079"/>
  <outline>
    <contour>
      <point x="10" y="515" type="line"/>
      <point x="212" y="0" type="line"/>
      <point x="265" y="0" type="line"/>
      <point x="264" y="90" type="line"/>
      <point x="109" y="515" type="line"/>
    </contour>
    <contour>
      <point x="24" y="-183" type="line"/>
      <point x="42" y="-190"/>
      <point x="61" y="-195"/>
      <point x="83" y="-195" type="curve"/>
      <point x="155" y="-195"/>
      <point x="225" y="-151"/>
      <point x="274" y="-26" type="curve" smooth="yes"/>
      <point x="486" y="515" type="line"/>
      <point x="391" y="515" type="line"/>
      <point x="238" y="90" type="line"/>
      <point x="211" y="23" type="line"/>
      <point x="167" y="-89"/>
      <point x="129" y="-115"/>
      <point x="82" y="-115" type="curve"/>
      <point x="65" y="-115"/>
      <point x="54" y="-113"/>
      <point x="37" y="-108" type="curve"/>
    </contour>
    <contour>
      <point x="250" y="515" type="move" name="top"/>
    </contour>
  </outline>
</glyph>
<glyph name="z" format="2">
  <advance width="504"/>
  <unicode hex="007A"/>
  <anchor x="252.0" y="515.0" name="top"/>
  <outline>
    <contour>
      <point x="50" y="60" type="line"/>
      <point x="110" y="0" type="line"/>
      <point x="444" y="455" type="line"/>
      <point x="384" y="515" type="line"/>
    </contour>
    <contour>
      <point x="50" y="0" type="line"/>
      <point x="454" y="0" type="line"/>
      <point x="454" y="80" type="line"/>
      <point x="96" y="80" type="line"/>
      <point x="50" y="60" type="line"/>
    </contour>
    <contour>
      <point x="60" y="435" type="line"/>
      <point x="395" y="435" type="line"/>
      <point x="444" y="455" type="line"/>
      <point x="444" y="515" type="line"/>
      <point x="60" y="515" type="line"/>
    </contour>
  </outline>
</glyph>
<glyph name="braceleft" format="2">
  <advance width="348"/>
  <unicode hex="007B"/>
  <outline>
    <contour>
      <point x="70" y="236" type="line"/>
      <point x="159.0689655172414" y="210.0"/>
      <point x="196.0" y="177.0"/>
      <point x="196" y="137" type="curve" smooth="yes"/>
      <point x="196.0" y="62.0"/>
      <point x="113.0" y="13.0"/>
      <point x="113" y="-81" type="curve" smooth="yes"/>
      <point x="113.0" y="-166.0"/>
      <point x="177.66666666666669" y="-231.0"/>
      <point x="307" y="-252" type="curve"/>
      <point x="318" y="-195" type="line"/>
      <point x="218" y="-166"/>
      <point x="195" y="-127"/>
      <point x="195" y="-82" type="curve" smooth="yes"/>
      <point x="195" y="-8"/>
      <point x="273" y="49"/>
      <point x="273" y="131" type="curve" smooth="yes"/>
      <point x="273" y="195"/>
      <point x="235" y="242"/>
      <point x="146" y="268" type="curve"/>
      <point x="235" y="294"/>
      <point x="273" y="341"/>
      <point x="273" y="405" type="curve" smooth="yes"/>
      <point x="273" y="487"/>
      <point x="195" y="543"/>
      <point x="195" y="617" type="curve" smooth="yes"/>
      <point x="195" y="662"/>
      <point x="218" y="701"/>
      <point x="318" y="730" type="curve"/>
      <point x="307" y="787" type="line"/>
      <point x="176.7156862745098" y="766.0"/>
      <point x="113.0" y="701.0"/>
      <point x="113" y="616" type="curve" smooth="yes"/>
      <point x="113.0" y="522.0"/>
      <point x="196.0" y="474.0"/>
      <point x="196" y="399" type="curve" smooth="yes"/>
      <point x="196.0" y="359.0"/>
      <point x="159.0689655172414" y="326.0"/>
      <point x="70" y="300" type="curve"/>
    </contour>
  </outline>
</glyph>
<glyph name="bar" format="2">
	<advance width="282"/>
	<unicode hex="007C"/>
	<outline>
		<contour>
			<point x="100" y="-215" type="line"/>
			<point x="182" y="-215" type="line"/>
			<point x="182" y="720" type="line"/>
			<point x="100" y="720" type="line"/>
		</contour>
	</outline>
</glyph>
<glyph name="braceright" format="1">
  <advance width="348"/>
  <unicode hex="007D"/>
  <outline>
    <contour>
      <point x="30" y="-195" type="curve"/>
      <point x="41" y="-252" type="line"/>
      <point x="171" y="-231"/>
      <point x="235" y="-166"/>
      <point x="235" y="-81" type="curve" smooth="yes"/>
      <point x="235" y="13"/>
      <point x="152" y="61"/>
      <point x="152" y="136" type="curve" smooth="yes"/>
      <point x="152" y="176"/>
      <point x="189" y="209"/>
      <point x="278" y="235" type="curve"/>
      <point x="278" y="299" type="line"/>
      <point x="189" y="325"/>
      <point x="152" y="358"/>
      <point x="152" y="398" type="curve" smooth="yes"/>
      <point x="152" y="473"/>
      <point x="235" y="522"/>
      <point x="235" y="616" type="curve" smooth="yes"/>
      <point x="235" y="701"/>
      <point x="170" y="766"/>
      <point x="41" y="787" type="curve"/>
      <point x="30" y="730" type="line"/>
      <point x="130" y="701"/>
      <point x="153" y="662"/>
      <point x="153" y="617" type="curve" smooth="yes"/>
      <point x="153" y="543"/>
      <point x="75" y="486"/>
      <point x="75" y="404" type="curve" smooth="yes"/>
      <point x="75" y="340"/>
      <point x="113" y="293"/>
      <point x="202" y="267" type="curve"/>
      <point x="113" y="241"/>
      <point x="75" y="194"/>
      <point x="75" y="130" type="curve" smooth="yes"/>
      <point x="75" y="48"/>
      <point x="153" y="-8"/>
      <point x="153" y="-82" type="curve" smooth="yes"/>
      <point x="153" y="-127"/>
      <point x="130" y="-166"/>
    </contour>
  </outline>
</glyph>
<glyph name="asciitilde" format="2">
	<advance width="600"/>
	<unicode hex="007E"/>
	<outline>
		<contour>
			<point x="83" y="301" type="curve"/>
			<point x="146" y="301" type="line"/>
			<point x="155" y="364"/>
			<point x="175" y="384"/>
			<point x="205" y="384" type="curve" smooth="yes"/>
			<point x="265" y="384"/>
			<point x="300" y="296"/>
			<point x="386" y="296" type="curve"/>
			<point x="459" y="296"/>
			<point x="506" y="355"/>
			<point x="517" y="456" type="curve"/>
			<point x="454" y="456" type="line"/>
			<point x="445" y="393"/>
			<point x="425" y="373"/>
			<point x="395" y="373" type="curve" smooth="yes"/>
			<point x="337" y="373"/>
			<point x="301" y="461"/>
			<point x="214" y="461" type="curve"/>
			<point x="140" y="461"/>
			<point x="94" y="402"/>
		</contour>
	</outline>
</glyph>
<glyph name="cent" format="2">
  <advance width="600"/>
  <unicode hex="00A2"/>
  <outline>
    <contour>
      <point x="289.0" y="-100" type="line"/>
      <point x="365.0" y="-100" type="line"/>
      <point x="365.0" y="280" type="line"/>
      <point x="289.0" y="280" type="line"/>
    </contour>
    <contour>
      <point x="289.0" y="280" type="line"/>
      <point x="365.0" y="280" type="line"/>
      <point x="365.0" y="695" type="line"/>
      <point x="289.0" y="695" type="line"/>
    </contour>
    <contour>
      <point x="95.0" y="292" type="curve" smooth="yes"/>
      <point x="95.0" y="117"/>
      <point x="201.0" y="30"/>
      <point x="341.0" y="30" type="curve" smooth="yes"/>
      <point x="405.0" y="30"/>
      <point x="469.0" y="53"/>
      <point x="509.0" y="95" type="curve"/>
      <point x="456.0" y="162" type="line"/>
      <point x="429.0" y="134"/>
      <point x="389.0" y="114"/>
      <point x="337.0" y="114" type="curve" smooth="yes"/>
      <point x="258.0" y="114"/>
      <point x="189.0" y="172"/>
      <point x="189.0" y="292" type="curve" smooth="yes"/>
      <point x="189.0" y="412"/>
      <point x="260.0" y="481"/>
      <point x="342.0" y="481" type="curve" smooth="yes"/>
      <point x="389.0" y="481"/>
      <point x="426.0" y="462"/>
      <point x="451.0" y="433" type="curve"/>
      <point x="507.0" y="500" type="line"/>
      <point x="467.0" y="542"/>
      <point x="405.0" y="565"/>
      <point x="346.0" y="565" type="curve" smooth="yes"/>
      <point x="206.0" y="565"/>
      <point x="95.0" y="461"/>
    </contour>
  </outline>
</glyph>
<glyph name="sterling" format="2">
  <advance width="600"/>
  <unicode hex="00A3"/>
  <outline>
    <contour>
      <point x="50.0" y="0" type="line"/>
      <point x="540.0" y="0" type="line"/>
      <point x="540.0" y="81" type="line"/>
      <point x="50.0" y="81" type="line"/>
    </contour>
    <contour>
      <point x="50.0" y="30" type="line"/>
      <point x="170.0" y="60"/>
      <point x="249.0" y="150"/>
      <point x="249.0" y="260" type="curve" smooth="yes"/>
      <point x="249.0" y="340"/>
      <point x="209.0" y="380"/>
      <point x="209.0" y="464" type="curve" smooth="yes"/>
      <point x="209.0" y="560"/>
      <point x="261.0" y="612"/>
      <point x="344.0" y="612" type="curve" smooth="yes"/>
      <point x="411.0" y="612"/>
      <point x="458.0" y="571"/>
      <point x="482.0" y="527" type="curve"/>
      <point x="553.0" y="583" type="line"/>
      <point x="512.0" y="651"/>
      <point x="430.0" y="700"/>
      <point x="343.0" y="700" type="curve" smooth="yes"/>
      <point x="216.0" y="700"/>
      <point x="115.0" y="615"/>
      <point x="115.0" y="474" type="curve" smooth="yes"/>
      <point x="115.0" y="380"/>
      <point x="155.0" y="350"/>
      <point x="155.0" y="260" type="curve" smooth="yes"/>
      <point x="155.0" y="200"/>
      <point x="130.0" y="130"/>
      <point x="50.0" y="90" type="curve"/>
    </contour>
    <contour>
      <point x="50.0" y="295" type="line"/>
      <point x="430.0" y="295" type="line"/>
      <point x="430.0" y="375" type="line"/>
      <point x="50.0" y="375" type="line"/>
    </contour>
  </outline>
</glyph>
<glyph name="currency" format="2">
  <advance width="600"/>
  <unicode hex="00A4"/>
  <outline>
    <contour>
      <point x="80.0" y="345" type="curve" smooth="yes"/>
      <point x="80.0" y="196"/>
      <point x="172.0" y="110"/>
      <point x="300.0" y="110" type="curve" smooth="yes"/>
      <point x="428.0" y="110"/>
      <point x="520.0" y="196"/>
      <point x="520.0" y="345" type="curve" smooth="yes"/>
      <point x="520.0" y="494"/>
      <point x="428.0" y="580"/>
      <point x="300.0" y="580" type="curve" smooth="yes"/>
      <point x="172.0" y="580"/>
      <point x="80.0" y="494"/>
    </contour>
    <contour>
      <point x="174.0" y="345" type="curve" smooth="yes"/>
      <point x="174.0" y="442"/>
      <point x="221.0" y="498"/>
      <point x="300.0" y="498" type="curve" smooth="yes"/>
      <point x="379.0" y="498"/>
      <point x="426.0" y="442"/>
      <point x="426.0" y="345" type="curve" smooth="yes"/>
      <point x="426.0" y="248"/>
      <point x="379.0" y="192"/>
      <point x="300.0" y="192" type="curve" smooth="yes"/>
      <point x="221.0" y="192"/>
      <point x="174.0" y="248"/>
    </contour>
    <contour>
      <point x="34.0" y="136" type="line"/>
      <point x="91.0" y="79" type="line"/>
      <point x="176.0" y="164" type="line"/>
      <point x="119.0" y="221" type="line"/>
    </contour>
    <contour>
      <point x="424.0" y="164" type="line"/>
      <point x="509.0" y="79" type="line"/>
      <point x="566.0" y="136" type="line"/>
      <point x="481.0" y="221" type="line"/>
    </contour>
    <contour>
      <point x="34.0" y="554" type="line"/>
      <point x="119.0" y="469" type="line"/>
      <point x="176.0" y="526" type="line"/>
      <point x="91.0" y="611" type="line"/>
    </contour>
    <contour>
      <point x="424.0" y="526" type="line"/>
      <point x="481.0" y="469" type="line"/>
      <point x="566.0" y="554" type="line"/>
      <point x="509.0" y="611" type="line"/>
    </contour>
  </outline>
</glyph>
<glyph name="yen" format="2">
  <advance width="600"/>
  <unicode hex="00A5"/>
  <outline>
    <contour>
      <point x="7.0" y="690" type="line"/>
      <point x="260.0" y="300" type="line"/>
      <point x="315.0" y="300" type="line"/>
      <point x="319.0" y="366" type="line"/>
      <point x="119.0" y="690" type="line"/>
    </contour>
    <contour>
      <point x="87.0" y="163" type="line"/>
      <point x="513.0" y="163" type="line"/>
      <point x="513.0" y="239" type="line"/>
      <point x="87.0" y="239" type="line"/>
    </contour>
    <contour>
      <point x="87.0" y="308" type="line"/>
      <point x="513.0" y="308" type="line"/>
      <point x="513.0" y="384" type="line"/>
      <point x="87.0" y="384" type="line"/>
    </contour>
    <contour>
      <point x="252.0" y="0" type="line"/>
      <point x="348.0" y="0" type="line"/>
      <point x="348.0" y="350" type="line"/>
      <point x="252.0" y="350" type="line"/>
    </contour>
    <contour>
      <point x="285" y="366" type="line"/>
      <point x="293" y="300" type="line"/>
      <point x="340.0" y="300" type="line"/>
      <point x="593.0" y="690" type="line"/>
      <point x="485.0" y="690" type="line"/>
    </contour>
  </outline>
</glyph>
<glyph name="brokenbar" format="2">
	<advance width="282"/>
	<unicode hex="00A6"/>
	<outline>
		<contour>
			<point x="100" y="-215" type="line"/>
			<point x="182" y="-215" type="line"/>
			<point x="182" y="150" type="line"/>
			<point x="100" y="150" type="line"/>
		</contour>
		<contour>
			<point x="100" y="355" type="line"/>
			<point x="182" y="355" type="line"/>
			<point x="182" y="720" type="line"/>
			<point x="100" y="720" type="line"/>
		</contour>
	</outline>
</glyph>
<glyph name="section" format="2">
  <advance width="620"/>
  <unicode hex="00A7"/>
  <outline>
    <contour>
      <point x="64.0" y="-109" type="line"/>
      <point x="128.0" y="-164"/>
      <point x="216.0" y="-196"/>
      <point x="295.0" y="-196" type="curve" smooth="yes"/>
      <point x="434.0" y="-196"/>
      <point x="529.0" y="-116"/>
      <point x="529.0" y="-18" type="curve" smooth="yes"/>
      <point x="529.0" y="64"/>
      <point x="477.0" y="120"/>
      <point x="307.0" y="177" type="curve" smooth="yes"/>
      <point x="177.0" y="221"/>
      <point x="139.0" y="254"/>
      <point x="139.0" y="303" type="curve" smooth="yes"/>
      <point x="139.0" y="349"/>
      <point x="188.0" y="387"/>
      <point x="281.0" y="387" type="curve"/>
      <point x="169.0" y="455" type="line"/>
      <point x="85.0" y="425"/>
      <point x="40.0" y="363"/>
      <point x="40.0" y="291" type="curve" smooth="yes"/>
      <point x="40.0" y="207"/>
      <point x="103.0" y="138"/>
      <point x="279.0" y="81" type="curve" smooth="yes"/>
      <point x="402.0" y="41"/>
      <point x="436.0" y="13"/>
      <point x="436.0" y="-28" type="curve" smooth="yes"/>
      <point x="436.0" y="-73"/>
      <point x="391.0" y="-113"/>
      <point x="302.0" y="-113" type="curve" smooth="yes"/>
      <point x="231.0" y="-113"/>
      <point x="169.0" y="-85"/>
      <point x="119.0" y="-37" type="curve"/>
    </contour>
    <contour>
      <point x="91.0" y="522" type="curve" smooth="yes"/>
      <point x="91.0" y="440"/>
      <point x="143.0" y="384"/>
      <point x="313.0" y="327" type="curve" smooth="yes"/>
      <point x="443.0" y="283"/>
      <point x="481.0" y="250"/>
      <point x="481.0" y="201" type="curve" smooth="yes"/>
      <point x="481.0" y="155"/>
      <point x="432.0" y="117"/>
      <point x="339.0" y="117" type="curve"/>
      <point x="451.0" y="49" type="line"/>
      <point x="535.0" y="79"/>
      <point x="580.0" y="141"/>
      <point x="580.0" y="213" type="curve" smooth="yes"/>
      <point x="580.0" y="297"/>
      <point x="517.0" y="366"/>
      <point x="341.0" y="423" type="curve" smooth="yes"/>
      <point x="218.0" y="463"/>
      <point x="184.0" y="491"/>
      <point x="184.0" y="532" type="curve" smooth="yes"/>
      <point x="184.0" y="577"/>
      <point x="229.0" y="617"/>
      <point x="318.0" y="617" type="curve" smooth="yes"/>
      <point x="389.0" y="617"/>
      <point x="451.0" y="589"/>
      <point x="501.0" y="541" type="curve"/>
      <point x="556.0" y="613" type="line"/>
      <point x="492.0" y="668"/>
      <point x="404.0" y="700"/>
      <point x="325.0" y="700" type="curve" smooth="yes"/>
      <point x="186.0" y="700"/>
      <point x="91.0" y="620"/>
    </contour>
  </outline>
</glyph>
<glyph name="ordfeminine" format="2">
	<advance width="440"/>
	<unicode hex="00AA"/>
	<outline>
		<contour>
			<point x="54" y="394" type="curve" smooth="yes"/>
			<point x="54" y="323"/>
			<point x="107" y="280"/>
			<point x="166" y="280" type="curve" smooth="yes"/>
			<point x="224" y="280"/>
			<point x="276" y="311"/>
			<point x="306" y="353" type="curve"/>
			<point x="306" y="413" type="line"/>
			<point x="271" y="374"/>
			<point x="231" y="350"/>
			<point x="189" y="350" type="curve" smooth="yes"/>
			<point x="156" y="350"/>
			<point x="134" y="368"/>
			<point x="134" y="400" type="curve" smooth="yes"/>
			<point x="134" y="431"/>
			<point x="158" y="461"/>
			<point x="254" y="471" type="curve" smooth="yes"/>
			<point x="300" y="476" type="line"/>
			<point x="300" y="531" type="line"/>
			<point x="251" y="529" type="line" smooth="yes"/>
			<point x="104" y="523"/>
			<point x="54" y="463"/>
		</contour>
		<contour>
			<point x="63" y="656" type="curve"/>
			<point x="90" y="590" type="line"/>
			<point x="127" y="610"/>
			<point x="161" y="626"/>
			<point x="203" y="626" type="curve" smooth="yes"/>
			<point x="257" y="626"/>
			<point x="288" y="600"/>
			<point x="288" y="535" type="curve" smooth="yes"/>
			<point x="288" y="370" type="line"/>
			<point x="305" y="290" type="line"/>
			<point x="380" y="290" type="line"/>
			<point x="373" y="325" type="line" smooth="yes"/>
			<point x="369" y="347"/>
			<point x="368" y="364"/>
			<point x="368" y="386" type="curve" smooth="yes"/>
			<point x="368" y="544" type="line" smooth="yes"/>
			<point x="368" y="649"/>
			<point x="299" y="700"/>
			<point x="210" y="700" type="curve" smooth="yes"/>
			<point x="161" y="700"/>
			<point x="101" y="679"/>
		</contour>
	</outline>
</glyph>
<glyph name="guillemetleft" format="1">
  <advance width="500"/>
  <unicode hex="00AB"/>
  <outline>
    <contour>
      <point x="40" y="247" type="line"/>
      <point x="160" y="83" type="line"/>
      <point x="259" y="83" type="line"/>
      <point x="100" y="293" type="line"/>
      <point x="40" y="292" type="line"/>
    </contour>
    <contour>
      <point x="40" y="249" type="line"/>
      <point x="100" y="248" type="line"/>
      <point x="259" y="458" type="line"/>
      <point x="160" y="458" type="line"/>
      <point x="40" y="294" type="line"/>
    </contour>
    <contour>
      <point x="261" y="247" type="line"/>
      <point x="381" y="83" type="line"/>
      <point x="480" y="83" type="line"/>
      <point x="321" y="293" type="line"/>
      <point x="261" y="292" type="line"/>
    </contour>
    <contour>
      <point x="261" y="249" type="line"/>
      <point x="321" y="248" type="line"/>
      <point x="480" y="458" type="line"/>
      <point x="381" y="458" type="line"/>
      <point x="261" y="294" type="line"/>
    </contour>
  </outline>
</glyph>
<glyph name="logicalnot" format="2">
	<advance width="600"/>
	<unicode hex="00AC"/>
	<outline>
		<contour>
			<point x="73" y="250" type="line"/>
			<point x="527" y="250" type="line"/>
			<point x="527" y="330" type="line"/>
			<point x="73" y="330" type="line"/>
		</contour>
		<contour>
			<point x="445" y="65" type="line"/>
			<point x="527" y="65" type="line"/>
			<point x="527" y="330" type="line"/>
			<point x="445" y="330" type="line"/>
		</contour>
	</outline>
</glyph>
<glyph name="macron" format="2">
	<advance width="600"/>
	<unicode hex="00AF"/>
	<anchor x="300" y="515" name="_top"/>
	<outline>
		<contour>
			<point x="152" y="630" type="line"/>
			<point x="448" y="630" type="line"/>
			<point x="448" y="700" type="line"/>
			<point x="152" y="700" type="line"/>
		</contour>
	</outline>
</glyph>
<glyph name="plusminus" format="1">
  <advance width="600"/>
  <unicode hex="00B1"/>
  <outline>
    <contour>
      <point x="73.0" y="65" type="line"/>
      <point x="527.0" y="65" type="line"/>
      <point x="527.0" y="140" type="line"/>
      <point x="73.0" y="140" type="line"/>
    </contour>
    <contour>
      <point x="73.0" y="280" type="line"/>
      <point x="527.0" y="280" type="line"/>
      <point x="527.0" y="360" type="line"/>
      <point x="73.0" y="360" type="line"/>
    </contour>
    <contour>
      <point x="258.0" y="65" type="line"/>
      <point x="342.0" y="65" type="line"/>
      <point x="342.0" y="545" type="line"/>
      <point x="258.0" y="545" type="line"/>
    </contour>
  </outline>
</glyph>
<glyph name="twosuperior" format="1">
  <advance width="440"/>
  <unicode hex="00B2"/>
  <outline>
    <contour>
      <point x="76" y="290" type="line"/>
      <point x="360" y="290" type="line"/>
      <point x="360" y="358" type="line"/>
      <point x="136" y="358" type="line"/>
      <point x="76" y="346" type="line"/>
    </contour>
    <contour>
      <point x="76" y="346" type="line"/>
      <point x="116" y="290" type="line"/>
      <point x="264" y="426" type="line" smooth="yes"/>
      <point x="320" y="477"/>
      <point x="350" y="529"/>
      <point x="350" y="572" type="curve" smooth="yes"/>
      <point x="350" y="650"/>
      <point x="288" y="700"/>
      <point x="210" y="700" type="curve" smooth="yes"/>
      <point x="153" y="700"/>
      <point x="109" y="676"/>
      <point x="66" y="628" type="curve"/>
      <point x="118" y="577" type="line"/>
      <point x="143" y="608"/>
      <point x="174" y="628"/>
      <point x="208" y="628" type="curve" smooth="yes"/>
      <point x="244" y="628"/>
      <point x="270" y="605"/>
      <point x="270" y="572" type="curve" smooth="yes"/>
      <point x="270" y="540"/>
      <point x="247" y="511"/>
      <point x="210" y="476" type="curve" smooth="yes"/>
    </contour>
  </outline>
</glyph>
<glyph name="threesuperior" format="2">
	<advance width="440"/>
	<unicode hex="00B3"/>
	<outline>
		<contour>
			<point x="58" y="340" type="line"/>
			<point x="100" y="298"/>
			<point x="146" y="280"/>
			<point x="204" y="280" type="curve" smooth="yes"/>
			<point x="290" y="280"/>
			<point x="360" y="326"/>
			<point x="360" y="408" type="curve" smooth="yes"/>
			<point x="360" y="488"/>
			<point x="298" y="525"/>
			<point x="211" y="525" type="curve" smooth="yes"/>
			<point x="176" y="525" type="line"/>
			<point x="145" y="514" type="line"/>
			<point x="145" y="468" type="line"/>
			<point x="194" y="468" type="line" smooth="yes"/>
			<point x="248" y="468"/>
			<point x="282" y="446"/>
			<point x="282" y="408" type="curve" smooth="yes"/>
			<point x="282" y="370"/>
			<point x="248" y="350"/>
			<point x="204" y="350" type="curve" smooth="yes"/>
			<point x="166" y="350"/>
			<point x="136" y="365"/>
			<point x="110" y="394" type="curve"/>
		</contour>
		<contour>
			<point x="76" y="622" type="line"/>
			<point x="298" y="622" type="line"/>
			<point x="338" y="636" type="line"/>
			<point x="338" y="690" type="line"/>
			<point x="76" y="690" type="line"/>
		</contour>
		<contour>
			<point x="145" y="514" type="line"/>
			<point x="230" y="514" type="line"/>
			<point x="338" y="636" type="line"/>
			<point x="300" y="690" type="line"/>
		</contour>
	</outline>
</glyph>
<glyph name="acute" format="2">
  <advance width="600"/>
  <unicode hex="00B4"/>
  <anchor x="300" y="515" name="_top"/>
  <outline>
    <contour>
      <point x="255" y="590" type="line"/>
      <point x="331" y="590" type="line"/>
      <point x="441" y="740" type="line"/>
      <point x="330" y="740" type="line"/>
    </contour>
  </outline>
</glyph>
<glyph name="paragraph" format="1">
  <advance width="711"/>
  <unicode hex="00B6"/>
  <outline>
    <contour>
      <point x="70" y="442" type="curve" smooth="yes"/>
      <point x="70.0" y="282.0"/>
      <point x="186.0" y="195.0"/>
      <point x="346" y="195" type="curve" smooth="yes"/>
      <point x="369" y="195" type="line"/>
      <point x="369" y="-185" type="line"/>
      <point x="451" y="-185" type="line"/>
      <point x="451" y="690" type="line"/>
      <point x="346" y="690" type="line" smooth="yes"/>
      <point x="186" y="690"/>
      <point x="70.0" y="602.0895522388059"/>
    </contour>
    <contour>
      <point x="529" y="-185" type="line"/>
      <point x="611" y="-185" type="line"/>
      <point x="611" y="690" type="line"/>
      <point x="529" y="690" type="line"/>
    </contour>
  </outline>
</glyph>
<glyph name="cedilla" format="2">
	<advance width="600"/>
	<unicode hex="00B8"/>
	<anchor x="300" y="0" name="_bottom"/>
	<outline>
		<contour>
			<point x="222" y="-240" type="line"/>
			<point x="252" y="-240" type="line" smooth="yes"/>
			<point x="364" y="-240"/>
			<point x="400" y="-185"/>
			<point x="400" y="-141" type="curve" smooth="yes"/>
			<point x="400" y="-100"/>
			<point x="374" y="-70"/>
			<point x="316" y="-65" type="curve"/>
			<point x="328" y="9" type="line"/>
			<point x="270" y="15" type="line"/>
			<point x="252" y="-103" type="line"/>
			<point x="282" y="-105" type="line" smooth="yes"/>
			<point x="309" y="-107"/>
			<point x="320" y="-120"/>
			<point x="320" y="-140" type="curve" smooth="yes"/>
			<point x="320" y="-163"/>
			<point x="304" y="-184"/>
			<point x="234" y="-185" type="curve"/>
		</contour>
	</outline>
</glyph>
<glyph name="onesuperior" format="2">
  <advance width="440"/>
  <unicode hex="00B9"/>
  <outline>
    <contour>
      <point x="82" y="290" type="line"/>
      <point x="380" y="290" type="line"/>
      <point x="380" y="356" type="line"/>
      <point x="82" y="356" type="line"/>
    </contour>
    <contour>
      <point x="66" y="620" type="line"/>
      <point x="94" y="560" type="line"/>
      <point x="242" y="627" type="line"/>
      <point x="220" y="690" type="line"/>
    </contour>
    <contour>
      <point x="194" y="290" type="line"/>
      <point x="274" y="290" type="line"/>
      <point x="274" y="690" type="line"/>
      <point x="220" y="690" type="line"/>
      <point x="194" y="637" type="line"/>
    </contour>
  </outline>
</glyph>
<glyph name="ordmasculine" format="2">
	<advance width="480"/>
	<unicode hex="00BA"/>
	<outline>
		<contour>
			<point x="60" y="490" type="curve" smooth="yes"/>
			<point x="60" y="348"/>
			<point x="141" y="280"/>
			<point x="240" y="280" type="curve" smooth="yes"/>
			<point x="339" y="280"/>
			<point x="420" y="348"/>
			<point x="420" y="490" type="curve" smooth="yes"/>
			<point x="420" y="632"/>
			<point x="339" y="700"/>
			<point x="240" y="700" type="curve" smooth="yes"/>
			<point x="141" y="700"/>
			<point x="60" y="632"/>
		</contour>
		<contour>
			<point x="140" y="490" type="curve" smooth="yes"/>
			<point x="140" y="588"/>
			<point x="184" y="632"/>
			<point x="240" y="632" type="curve" smooth="yes"/>
			<point x="296" y="632"/>
			<point x="340" y="588"/>
			<point x="340" y="490" type="curve" smooth="yes"/>
			<point x="340" y="392"/>
			<point x="296" y="348"/>
			<point x="240" y="348" type="curve" smooth="yes"/>
			<point x="184" y="348"/>
			<point x="140" y="392"/>
		</contour>
	</outline>
</glyph>
<glyph name="guillemetright" format="2">
  <advance width="500"/>
  <unicode hex="00BB"/>
  <outline>
    <contour>
      <point x="20" y="83" type="line"/>
      <point x="119" y="83" type="line"/>
      <point x="239" y="247" type="line"/>
      <point x="239" y="292" type="line"/>
      <point x="179" y="293" type="line"/>
    </contour>
    <contour>
      <point x="20" y="458" type="line"/>
      <point x="179" y="248" type="line"/>
      <point x="239" y="249" type="line"/>
      <point x="239" y="294" type="line"/>
      <point x="119" y="458" type="line"/>
    </contour>
    <contour>
      <point x="241" y="83" type="line"/>
      <point x="340" y="83" type="line"/>
      <point x="460" y="247" type="line"/>
      <point x="460" y="292" type="line"/>
      <point x="400" y="293" type="line"/>
    </contour>
    <contour>
      <point x="241" y="458" type="line"/>
      <point x="400" y="248" type="line"/>
      <point x="460" y="249" type="line"/>
      <point x="460" y="294" type="line"/>
      <point x="340" y="458" type="line"/>
    </contour>
  </outline>
</glyph>
<glyph name="onequarter" format="2">
	<advance width="741"/>
	<unicode hex="00BC"/>
	<outline>
		<component base="onesuperior" xOffset="-56"/>
		<component base="fraction" xOffset="188"/>
		<contour>
			<point x="421" y="126" type="line"/>
			<point x="459" y="75" type="line"/>
			<point x="654" y="399" type="line"/>
			<point x="583" y="399" type="line"/>
		</contour>
		<contour>
			<point x="421" y="75" type="line"/>
			<point x="731" y="75" type="line"/>
			<point x="731" y="142" type="line"/>
			<point x="456" y="142" type="line"/>
			<point x="421" y="126" type="line"/>
		</contour>
		<contour>
			<point x="597" y="0" type="line"/>
			<point x="671" y="0" type="line"/>
			<point x="671" y="399" type="line"/>
			<point x="597" y="399" type="line"/>
		</contour>
	</outline>
</glyph>
<glyph name="AE" format="2">
	<advance width="961"/>
	<unicode hex="00C6"/>
	<anchor x="580" y="690" name="top"/>
	<outline>
		<contour>
			<point x="10" y="0" type="line"/>
			<point x="110" y="0" type="line"/>
			<point x="370" y="620" type="line"/>
			<point x="355" y="690" type="line"/>
			<point x="308" y="690" type="line"/>
		</contour>
		<contour>
			<point x="150" y="194" type="line"/>
			<point x="506" y="194" type="line"/>
			<point x="506" y="280" type="line"/>
			<point x="150" y="280" type="line"/>
		</contour>
		<contour>
			<point x="440" y="0" type="line"/>
			<point x="536" y="0" type="line"/>
			<point x="536" y="690" type="line"/>
			<point x="440" y="690" type="line"/>
		</contour>
		<contour>
			<point x="490" y="0" type="line"/>
			<point x="891" y="0" type="line"/>
			<point x="891" y="86" type="line"/>
			<point x="490" y="86" type="line"/>
		</contour>
		<contour>
			<point x="490" y="307" type="line"/>
			<point x="836" y="307" type="line"/>
			<point x="836" y="393" type="line"/>
			<point x="490" y="393" type="line"/>
		</contour>
		<contour>
			<point x="320" y="604" type="line"/>
			<point x="886" y="604" type="line"/>
			<point x="886" y="690" type="line"/>
			<point x="320" y="690" type="line"/>
		</contour>
	</outline>
</glyph>
<glyph name="Eth" format="2">
	<advance width="711"/>
	<unicode hex="00D0"/>
	<outline>
		<contour>
			<point x="35" y="305" type="line"/>
			<point x="356" y="305" type="line"/>
			<point x="356" y="385" type="line"/>
			<point x="35" y="385" type="line"/>
		</contour>
		<contour>
			<point x="110" y="0" type="line"/>
			<point x="206" y="0" type="line"/>
			<point x="206" y="690" type="line"/>
			<point x="110" y="690" type="line"/>
		</contour>
		<contour>
			<point x="160" y="0" type="line"/>
			<point x="333" y="0" type="line" smooth="yes"/>
			<point x="510" y="0"/>
			<point x="651" y="123"/>
			<point x="651" y="345" type="curve" smooth="yes"/>
			<point x="651" y="567"/>
			<point x="510" y="690"/>
			<point x="333" y="690" type="curve" smooth="yes"/>
			<point x="160" y="690" type="line"/>
			<point x="160" y="604" type="line"/>
			<point x="328" y="604" type="line" smooth="yes"/>
			<point x="456" y="604"/>
			<point x="552" y="511"/>
			<point x="552" y="345" type="curve" smooth="yes"/>
			<point x="552" y="179"/>
			<point x="456" y="86"/>
			<point x="328" y="86" type="curve" smooth="yes"/>
			<point x="160" y="86" type="line"/>
		</contour>
	</outline>
</glyph>
<glyph name="multiply" format="2">
	<advance width="600"/>
	<unicode hex="00D7"/>
	<outline>
		<contour>
			<point x="84" y="448" type="line"/>
			<point x="459" y="73" type="line"/>
			<point x="516" y="130" type="line"/>
			<point x="141" y="505" type="line"/>
		</contour>
		<contour>
			<point x="84" y="130" type="line"/>
			<point x="141" y="73" type="line"/>
			<point x="516" y="448" type="line"/>
			<point x="459" y="505" type="line"/>
		</contour>
	</outline>
</glyph>
<glyph name="Oslash" format="2">
	<advance width="726"/>
	<unicode hex="00D8"/>
	<anchor x="363" y="690" name="top"/>
	<outline>
		<component base="O"/>
		<contour>
			<point x="40" y="41" type="line"/>
			<point x="96" y="-10" type="line"/>
			<point x="686" y="649" type="line"/>
			<point x="630" y="700" type="line"/>
		</contour>
	</outline>
</glyph>
<glyph name="Thorn" format="1">
  <advance width="632"/>
  <unicode hex="00DE"/>
  <outline>
    <contour>
      <point x="100" y="0" type="line"/>
      <point x="196" y="0" type="line"/>
      <point x="196" y="690" type="line"/>
      <point x="100" y="690" type="line"/>
    </contour>
    <contour>
      <point x="150" y="135" type="line"/>
      <point x="343" y="135" type="line" smooth="yes"/>
      <point x="475.67322834645665" y="135.0"/>
      <point x="582.0" y="208.95652173913044"/>
      <point x="582" y="345" type="curve" smooth="yes"/>
      <point x="582.0" y="481.0434782608695"/>
      <point x="475.67322834645665" y="555.0"/>
      <point x="343" y="555" type="curve" smooth="yes"/>
      <point x="150" y="555" type="line"/>
      <point x="150" y="469" type="line"/>
      <point x="338" y="469" type="line" smooth="yes"/>
      <point x="421.375" y="469.0"/>
      <point x="483.0" y="425.08333333333337"/>
      <point x="483" y="345" type="curve" smooth="yes"/>
      <point x="483.0" y="264.91666666666663"/>
      <point x="420.46875" y="221.0"/>
      <point x="338" y="221" type="curve" smooth="yes"/>
      <point x="150" y="221" type="line"/>
    </contour>
  </outline>
</glyph>
<glyph name="germandbls" format="1">
  <advance width="602"/>
  <unicode hex="00DF"/>
  <outline>
    <contour>
      <point x="90" y="0" type="line"/>
      <point x="182" y="0" type="line"/>
      <point x="182" y="534" type="line" smooth="yes"/>
      <point x="182" y="612"/>
      <point x="226" y="651"/>
      <point x="290" y="651" type="curve" smooth="yes"/>
      <point x="354" y="651"/>
      <point x="396" y="618"/>
      <point x="396" y="560" type="curve" smooth="yes"/>
      <point x="396" y="508"/>
      <point x="346" y="464"/>
      <point x="265" y="400" type="curve"/>
      <point x="265" y="310" type="line"/>
      <point x="386" y="238" type="line" smooth="yes"/>
      <point x="450" y="200"/>
      <point x="468" y="174"/>
      <point x="468" y="138" type="curve" smooth="yes"/>
      <point x="468" y="101"/>
      <point x="442" y="67"/>
      <point x="392" y="67" type="curve" smooth="yes"/>
      <point x="346" y="67"/>
      <point x="310" y="86"/>
      <point x="280" y="106" type="curve"/>
      <point x="246" y="30" type="line"/>
      <point x="274" y="14"/>
      <point x="328" y="-10"/>
      <point x="388" y="-10" type="curve" smooth="yes"/>
      <point x="490" y="-10"/>
      <point x="562" y="54"/>
      <point x="562" y="140" type="curve" smooth="yes"/>
      <point x="562" y="208"/>
      <point x="532" y="260"/>
      <point x="440" y="315" type="curve" smooth="yes"/>
      <point x="354" y="366" type="line"/>
      <point x="414" y="420"/>
      <point x="488" y="478"/>
      <point x="488" y="570" type="curve" smooth="yes"/>
      <point x="488" y="670"/>
      <point x="410" y="730"/>
      <point x="290" y="730" type="curve" smooth="yes"/>
      <point x="170" y="730"/>
      <point x="90" y="666"/>
      <point x="90" y="536" type="curve" smooth="yes"/>
    </contour>
  </outline>
</glyph>
<glyph name="ae" format="1">
  <advance width="853"/>
  <unicode hex="00E6"/>
  <outline>
    <contour>
      <point x="60" y="132" type="curve" smooth="yes"/>
      <point x="60.0" y="44.0"/>
      <point x="135" y="-10"/>
      <point x="218" y="-10" type="curve" smooth="yes"/>
      <point x="310" y="-10"/>
      <point x="384" y="44"/>
      <point x="434" y="120" type="curve"/>
      <point x="382" y="156" type="line"/>
      <point x="342" y="104"/>
      <point x="290" y="74"/>
      <point x="232" y="74" type="curve" smooth="yes"/>
      <point x="185" y="74"/>
      <point x="154.0" y="98.0"/>
      <point x="154" y="140" type="curve" smooth="yes"/>
      <point x="154" y="183"/>
      <point x="185" y="224"/>
      <point x="315" y="237" type="curve" smooth="yes"/>
      <point x="374" y="243" type="line"/>
      <point x="374" y="308" type="line"/>
      <point x="311" y="306" type="line" smooth="yes"/>
      <point x="124" y="300"/>
      <point x="60" y="221"/>
    </contour>
    <contour>
      <point x="75" y="472" type="curve"/>
      <point x="107" y="394" type="line"/>
      <point x="152" y="419"/>
      <point x="196" y="437"/>
      <point x="249" y="437" type="curve" smooth="yes"/>
      <point x="322" y="437"/>
      <point x="366" y="402"/>
      <point x="366" y="314" type="curve" smooth="yes"/>
      <point x="366" y="260" type="line"/>
      <point x="454" y="260" type="line"/>
      <point x="454" y="325" type="line" smooth="yes"/>
      <point x="454" y="459.0"/>
      <point x="368.74" y="525.0"/>
      <point x="258" y="525" type="curve" smooth="yes"/>
      <point x="197" y="525"/>
      <point x="122" y="501"/>
    </contour>
    <contour>
      <point x="366" y="252" type="curve" smooth="yes"/>
      <point x="366" y="77"/>
      <point x="468.31075697211145" y="-10.0"/>
      <point x="606" y="-10" type="curve" smooth="yes"/>
      <point x="667" y="-10"/>
      <point x="725" y="6"/>
      <point x="771" y="43" type="curve"/>
      <point x="728" y="116" type="line"/>
      <point x="697" y="92"/>
      <point x="657" y="74"/>
      <point x="609" y="74" type="curve" smooth="yes"/>
      <point x="521.8125" y="74.0"/>
      <point x="454.0" y="134.0"/>
      <point x="454" y="252" type="curve" smooth="yes"/>
      <point x="454.0" y="379.0"/>
      <point x="506.962962962963" y="444.0"/>
      <point x="584" y="444" type="curve" smooth="yes"/>
      <point x="652" y="444"/>
      <point x="708" y="395"/>
      <point x="708" y="267" type="curve"/>
      <point x="726" y="304" type="line"/>
      <point x="434" y="304" type="line"/>
      <point x="434" y="230" type="line"/>
      <point x="796" y="230" type="line"/>
      <point x="797" y="242"/>
      <point x="798" y="255"/>
      <point x="798" y="267" type="curve" smooth="yes"/>
      <point x="798" y="439"/>
      <point x="703" y="525"/>
      <point x="585" y="525" type="curve" smooth="yes"/>
      <point x="463.12173913043483" y="525.0"/>
      <point x="366" y="432"/>
    </contour>
    <contour>
      <point x="426" y="515" type="move" name="top"/>
    </contour>
  </outline>
</glyph>
<glyph name="eth" format="1">
  <advance width="575.0056476813055"/>
  <unicode hex="00F0"/>
  <outline>
    <contour>
      <point x="55" y="235" type="curve" smooth="yes"/>
      <point x="55" y="75"/>
      <point x="162" y="-10"/>
      <point x="286" y="-10" type="curve" smooth="yes"/>
      <point x="410" y="-10"/>
      <point x="514" y="85"/>
      <point x="515" y="260" type="curve" smooth="yes"/>
      <point x="516" y="460"/>
      <point x="396" y="636"/>
      <point x="280" y="720" type="curve"/>
      <point x="160" y="720" type="line"/>
      <point x="312" y="606"/>
      <point x="423" y="440"/>
      <point x="423" y="260" type="curve" smooth="yes"/>
      <point x="423" y="138"/>
      <point x="362" y="71"/>
      <point x="286" y="71" type="curve" smooth="yes"/>
      <point x="210" y="71"/>
      <point x="149" y="128"/>
      <point x="149" y="235" type="curve" smooth="yes"/>
      <point x="149" y="342"/>
      <point x="210" y="399"/>
      <point x="286" y="399" type="curve" smooth="yes"/>
      <point x="346" y="399"/>
      <point x="402" y="364"/>
      <point x="430" y="310" type="curve"/>
      <point x="430" y="380" type="line"/>
      <point x="400" y="430"/>
      <point x="352" y="480"/>
      <point x="266" y="480" type="curve" smooth="yes"/>
      <point x="162" y="480"/>
      <point x="55" y="395"/>
    </contour>
    <contour>
      <point x="199" y="538" type="line"/>
      <point x="449" y="678" type="line"/>
      <point x="420" y="730" type="line"/>
      <point x="170" y="590" type="line"/>
    </contour>
  </outline>
</glyph>
<glyph name="divide" format="1">
  <advance width="600"/>
  <unicode hex="00F7"/>
  <outline>
    <contour>
      <point x="73.0" y="250" type="line"/>
      <point x="527.0" y="250" type="line"/>
      <point x="527.0" y="330" type="line"/>
      <point x="73.0" y="330" type="line"/>
    </contour>
    <contour>
      <point x="239.0" y="118" type="curve" smooth="yes"/>
      <point x="239.0" y="82"/>
      <point x="265.0" y="55"/>
      <point x="300.0" y="55" type="curve" smooth="yes"/>
      <point x="337.0" y="55"/>
      <point x="361.0" y="82"/>
      <point x="361.0" y="118" type="curve" smooth="yes"/>
      <point x="361.0" y="153"/>
      <point x="337.0" y="180"/>
      <point x="300.0" y="180" type="curve" smooth="yes"/>
      <point x="265.0" y="180"/>
      <point x="239.0" y="153"/>
    </contour>
    <contour>
      <point x="239.0" y="462" type="curve" smooth="yes"/>
      <point x="239.0" y="427"/>
      <point x="265.0" y="400"/>
      <point x="300.0" y="400" type="curve" smooth="yes"/>
      <point x="337.0" y="400"/>
      <point x="361.0" y="427"/>
      <point x="361.0" y="462" type="curve" smooth="yes"/>
      <point x="361.0" y="498"/>
      <point x="337.0" y="525"/>
      <point x="300.0" y="525" type="curve" smooth="yes"/>
      <point x="265.0" y="525"/>
      <point x="239.0" y="498"/>
    </contour>
  </outline>
</glyph>
<glyph name="oslash" format="2">
	<advance width="572"/>
	<unicode hex="00F8"/>
	<anchor x="286" y="515" name="top"/>
	<outline>
		<contour>
			<point x="55" y="257" type="curve" smooth="yes"/>
			<point x="55" y="84"/>
			<point x="152" y="-10"/>
			<point x="286" y="-10" type="curve" smooth="yes"/>
			<point x="420" y="-10"/>
			<point x="517" y="84"/>
			<point x="517" y="257" type="curve" smooth="yes"/>
			<point x="517" y="430"/>
			<point x="420" y="525"/>
			<point x="286" y="525" type="curve" smooth="yes"/>
			<point x="152" y="525"/>
			<point x="55" y="430"/>
		</contour>
		<contour>
			<point x="147" y="257" type="curve" smooth="yes"/>
			<point x="147" y="378"/>
			<point x="199" y="445"/>
			<point x="286" y="445" type="curve" smooth="yes"/>
			<point x="373" y="445"/>
			<point x="425" y="378"/>
			<point x="425" y="257" type="curve" smooth="yes"/>
			<point x="425" y="136"/>
			<point x="373" y="70"/>
			<point x="286" y="70" type="curve" smooth="yes"/>
			<point x="199" y="70"/>
			<point x="147" y="136"/>
		</contour>
		<contour>
			<point x="35" y="41" type="line"/>
			<point x="91" y="-10" type="line"/>
			<point x="537" y="474" type="line"/>
			<point x="481" y="525" type="line"/>
		</contour>
	</outline>
</glyph>
<glyph name="thorn" format="2">
	<advance width="586"/>
	<unicode hex="00FE"/>
	<outline>
		<contour>
			<point x="90" y="-200" type="line"/>
			<point x="182" y="-180" type="line"/>
			<point x="182" y="735" type="line"/>
			<point x="90" y="715" type="line"/>
		</contour>
		<contour>
			<point x="142" y="222" type="line"/>
			<point x="142" y="54"/>
			<point x="232" y="-10"/>
			<point x="318" y="-10" type="curve"/>
			<point x="447" y="-10"/>
			<point x="531" y="92"/>
			<point x="531" y="262" type="curve" smooth="yes"/>
			<point x="531" y="426"/>
			<point x="444" y="525"/>
			<point x="339" y="525" type="curve" smooth="yes"/>
			<point x="273" y="525"/>
			<point x="211" y="486"/>
			<point x="167" y="430" type="curve"/>
			<point x="167" y="358" type="line"/>
			<point x="211" y="408"/>
			<point x="261" y="440"/>
			<point x="314" y="440" type="curve" smooth="yes"/>
			<point x="384" y="440"/>
			<point x="437" y="376"/>
			<point x="437" y="259" type="curve" smooth="yes"/>
			<point x="437" y="146"/>
			<point x="386" y="67"/>
			<point x="303" y="67" type="curve"/>
			<point x="243" y="67"/>
			<point x="182" y="117"/>
			<point x="182" y="232" type="curve"/>
		</contour>
	</outline>
</glyph>
<glyph name="Dcroat" format="2">
  <advance width="711"/>
  <unicode hex="0110"/>
  <outline>
    <contour>
      <point x="35" y="305" type="line"/>
      <point x="356" y="305" type="line"/>
      <point x="356" y="385" type="line"/>
      <point x="35" y="385" type="line"/>
    </contour>
    <contour>
      <point x="110" y="0" type="line"/>
      <point x="206" y="0" type="line"/>
      <point x="206" y="690" type="line"/>
      <point x="110" y="690" type="line"/>
    </contour>
    <contour>
      <point x="160" y="0" type="line"/>
      <point x="333" y="0" type="line" smooth="yes"/>
      <point x="510" y="0"/>
      <point x="651" y="123"/>
      <point x="651" y="345" type="curve" smooth="yes"/>
      <point x="651" y="567"/>
      <point x="510" y="690"/>
      <point x="333" y="690" type="curve" smooth="yes"/>
      <point x="160" y="690" type="line"/>
      <point x="160" y="604" type="line"/>
      <point x="328" y="604" type="line" smooth="yes"/>
      <point x="456" y="604"/>
      <point x="552" y="511"/>
      <point x="552" y="345" type="curve" smooth="yes"/>
      <point x="552" y="179"/>
      <point x="456" y="86"/>
      <point x="328" y="86" type="curve" smooth="yes"/>
      <point x="160" y="86" type="line"/>
    </contour>
  </outline>
</glyph>
<glyph name="eogonek" format="1">
  <advance width="553"/>
  <unicode hex="0119"/>
  <outline>
    <contour>
      <point x="55" y="252" type="curve" smooth="yes"/>
      <point x="55" y="77"/>
      <point x="162" y="-10"/>
      <point x="306" y="-10" type="curve" smooth="yes"/>
      <point x="367" y="-10"/>
      <point x="425" y="6"/>
      <point x="471" y="43" type="curve"/>
      <point x="428" y="116" type="line"/>
      <point x="397" y="92"/>
      <point x="357" y="74"/>
      <point x="309" y="74" type="curve" smooth="yes"/>
      <point x="219" y="74"/>
      <point x="149" y="134"/>
      <point x="149" y="252" type="curve" smooth="yes"/>
      <point x="149" y="379"/>
      <point x="204" y="444"/>
      <point x="284" y="444" type="curve" smooth="yes"/>
      <point x="352" y="444"/>
      <point x="408" y="395"/>
      <point x="408" y="267" type="curve"/>
      <point x="426" y="304" type="line"/>
      <point x="134" y="304" type="line"/>
      <point x="134" y="230" type="line"/>
      <point x="496" y="230" type="line"/>
      <point x="497" y="242"/>
      <point x="498" y="255"/>
      <point x="498" y="267" type="curve" smooth="yes"/>
      <point x="498" y="439"/>
      <point x="403" y="525"/>
      <point x="285" y="525" type="curve" smooth="yes"/>
      <point x="157" y="525"/>
      <point x="55" y="432"/>
    </contour>
    <contour>
      <point x="272" y="-110" type="curve" smooth="yes"/>
      <point x="272" y="-162"/>
      <point x="314" y="-195"/>
      <point x="368" y="-195" type="curve" smooth="yes"/>
      <point x="402" y="-195"/>
      <point x="426" y="-185"/>
      <point x="450" y="-170" type="curve"/>
      <point x="430" y="-122" type="line"/>
      <point x="416" y="-130"/>
      <point x="400" y="-139"/>
      <point x="378" y="-139" type="curve" smooth="yes"/>
      <point x="356" y="-139"/>
      <point x="338" y="-124"/>
      <point x="338" y="-100" type="curve" smooth="yes"/>
      <point x="338" y="-64"/>
      <point x="380" y="-30"/>
      <point x="471" y="43" type="curve"/>
      <point x="350" y="0" type="line"/>
      <point x="310" y="-22"/>
      <point x="272" y="-64"/>
    </contour>
  </outline>
</glyph>
<glyph name="Hbar" format="2">
	<advance width="746"/>
	<unicode hex="0126"/>
	<outline>
		<contour>
			<point x="105" y="0" type="line"/>
			<point x="201" y="0" type="line"/>
			<point x="201" y="690" type="line"/>
			<point x="105" y="690" type="line"/>
		</contour>
		<contour>
			<point x="155" y="307" type="line"/>
			<point x="591" y="307" type="line"/>
			<point x="591" y="393" type="line"/>
			<point x="155" y="393" type="line"/>
		</contour>
		<contour>
			<point x="545" y="0" type="line"/>
			<point x="641" y="0" type="line"/>
			<point x="641" y="690" type="line"/>
			<point x="545" y="690" type="line"/>
		</contour>
		<contour>
			<point x="30" y="525" type="line"/>
			<point x="716" y="525" type="line"/>
			<point x="716" y="595" type="line"/>
			<point x="30" y="595" type="line"/>
		</contour>
	</outline>
</glyph>
<glyph name="Hbar" format="1">
  <advance width="746"/>
  <unicode hex="0126"/>
  <outline>
    <contour>
      <point x="105" y="0" type="line"/>
      <point x="201" y="0" type="line"/>
      <point x="201" y="690" type="line"/>
      <point x="105" y="690" type="line"/>
    </contour>
    <contour>
      <point x="155" y="307" type="line"/>
      <point x="591" y="307" type="line"/>
      <point x="591" y="393" type="line"/>
      <point x="155" y="393" type="line"/>
    </contour>
    <contour>
      <point x="545" y="0" type="line"/>
      <point x="641" y="0" type="line"/>
      <point x="641" y="690" type="line"/>
      <point x="545" y="690" type="line"/>
    </contour>
    <contour>
      <point x="30" y="525" type="line"/>
      <point x="716" y="525" type="line"/>
      <point x="716" y="595" type="line"/>
      <point x="30" y="595" type="line"/>
    </contour>
  </outline>
</glyph>
<glyph name="hbar" format="2">
  <advance width="609"/>
  <unicode hex="0127"/>
  <outline>
    <contour>
      <point x="95" y="0" type="line"/>
      <point x="187" y="0" type="line"/>
      <point x="187" y="735" type="line"/>
      <point x="95" y="715" type="line"/>
    </contour>
    <contour>
      <point x="172" y="361" type="line"/>
      <point x="216" y="410"/>
      <point x="268" y="438"/>
      <point x="321" y="438" type="curve"/>
      <point x="385" y="438"/>
      <point x="432" y="397"/>
      <point x="432" y="304" type="curve" smooth="yes"/>
      <point x="432" y="0" type="line"/>
      <point x="524" y="0" type="line"/>
      <point x="524" y="316" type="line" smooth="yes"/>
      <point x="524" y="457"/>
      <point x="447" y="525"/>
      <point x="345" y="525" type="curve"/>
      <point x="278" y="525"/>
      <point x="216" y="486"/>
      <point x="172" y="430" type="curve"/>
    </contour>
    <contour>
      <point x="20" y="585" type="line"/>
      <point x="337" y="585" type="line"/>
      <point x="337" y="645" type="line"/>
      <point x="20" y="645" type="line"/>
    </contour>
  </outline>
</glyph>
<glyph name="dotlessi" format="1">
  <advance width="272"/>
  <unicode hex="0131"/>
  <outline>
    <contour>
      <point x="90" y="0" type="line"/>
      <point x="182" y="0" type="line"/>
      <point x="182" y="515" type="line"/>
      <point x="90" y="515" type="line"/>
    </contour>
    <contour>
      <point x="136" y="515" type="move" name="top"/>
    </contour>
  </outline>
</glyph>
<glyph name="IJ" format="2">
  <advance width="739"/>
  <unicode hex="0132"/>
  <outline>
    <contour>
      <point x="100" y="0" type="line"/>
      <point x="196" y="0" type="line"/>
      <point x="196" y="690" type="line"/>
      <point x="100" y="690" type="line"/>
    </contour>
    <contour>
      <point x="296" y="25" type="line"/>
      <point x="334" y="2"/>
      <point x="376" y="-10"/>
      <point x="421" y="-10" type="curve" smooth="yes"/>
      <point x="548" y="-10"/>
      <point x="649" y="75"/>
      <point x="649" y="236" type="curve" smooth="yes"/>
      <point x="649" y="690" type="line"/>
      <point x="555" y="690" type="line"/>
      <point x="555" y="246" type="line" smooth="yes"/>
      <point x="555" y="130"/>
      <point x="503" y="78"/>
      <point x="420" y="78" type="curve" smooth="yes"/>
      <point x="386" y="78"/>
      <point x="358" y="88"/>
      <point x="334" y="104" type="curve"/>
    </contour>
  </outline>
</glyph>
<glyph name="kra" format="2">
	<advance width="533"/>
	<unicode hex="0138"/>
	<outline>
		<contour>
			<point x="90" y="0" type="line"/>
			<point x="182" y="0" type="line"/>
			<point x="182" y="515" type="line"/>
			<point x="90" y="515" type="line"/>
		</contour>
		<contour>
			<point x="176" y="166" type="line"/>
			<point x="503" y="515" type="line"/>
			<point x="386" y="515" type="line"/>
			<point x="176" y="282" type="line"/>
		</contour>
		<contour>
			<point x="235" y="263" type="line"/>
			<point x="406" y="0" type="line"/>
			<point x="518" y="0" type="line"/>
			<point x="298" y="324" type="line"/>
		</contour>
	</outline>
</glyph>
<glyph name="Lslash" format="2">
	<advance width="566"/>
	<unicode hex="0141"/>
	<outline>
		<contour>
			<point x="110" y="0" type="line"/>
			<point x="206" y="0" type="line"/>
			<point x="206" y="690" type="line"/>
			<point x="110" y="690" type="line"/>
		</contour>
		<contour>
			<point x="160" y="0" type="line"/>
			<point x="526" y="0" type="line"/>
			<point x="526" y="86" type="line"/>
			<point x="160" y="86" type="line"/>
		</contour>
		<contour>
			<point x="35" y="210" type="line"/>
			<point x="356" y="390" type="line"/>
			<point x="356" y="480" type="line"/>
			<point x="35" y="300" type="line"/>
		</contour>
	</outline>
</glyph>
<glyph name="Eng" format="2">
	<advance width="746"/>
	<unicode hex="014A"/>
	<outline>
		<contour>
			<point x="100" y="0" type="line"/>
			<point x="196" y="0" type="line"/>
			<point x="196" y="690" type="line"/>
			<point x="100" y="690" type="line"/>
		</contour>
		<contour>
			<point x="142" y="690" type="line"/>
			<point x="550" y="0" type="line"/>
			<point x="642" y="20" type="line"/>
			<point x="246" y="690" type="line"/>
		</contour>
		<contour>
			<point x="409" y="-181" type="line"/>
			<point x="430" y="-189"/>
			<point x="457" y="-195"/>
			<point x="484" y="-195" type="curve" smooth="yes"/>
			<point x="576" y="-195"/>
			<point x="646" y="-134"/>
			<point x="646" y="-34" type="curve" smooth="yes"/>
			<point x="646" y="690" type="line"/>
			<point x="550" y="690" type="line"/>
			<point x="550" y="-30" type="line" smooth="yes"/>
			<point x="550" y="-88"/>
			<point x="524" y="-114"/>
			<point x="478" y="-114" type="curve" smooth="yes"/>
			<point x="458" y="-114"/>
			<point x="441" y="-110"/>
			<point x="425" y="-105" type="curve"/>
		</contour>
	</outline>
</glyph>
<glyph name="Eng" format="1">
  <advance width="746"/>
  <unicode hex="014A"/>
  <outline>
    <contour>
      <point x="100" y="0" type="line"/>
      <point x="196" y="0" type="line"/>
      <point x="196" y="690" type="line"/>
      <point x="100" y="690" type="line"/>
    </contour>
    <contour>
      <point x="142" y="690" type="line"/>
      <point x="550" y="0" type="line"/>
      <point x="642" y="20" type="line"/>
      <point x="246" y="690" type="line"/>
    </contour>
    <contour>
      <point x="409" y="-181" type="line"/>
      <point x="430" y="-189"/>
      <point x="457" y="-195"/>
      <point x="484" y="-195" type="curve" smooth="yes"/>
      <point x="576" y="-195"/>
      <point x="646" y="-134"/>
      <point x="646" y="-34" type="curve" smooth="yes"/>
      <point x="646" y="690" type="line"/>
      <point x="550" y="690" type="line"/>
      <point x="550" y="-30" type="line" smooth="yes"/>
      <point x="550" y="-88"/>
      <point x="524" y="-114"/>
      <point x="478" y="-114" type="curve" smooth="yes"/>
      <point x="458" y="-114"/>
      <point x="441" y="-110"/>
      <point x="425" y="-105" type="curve"/>
    </contour>
  </outline>
</glyph>
<glyph name="eng" format="2">
	<advance width="604"/>
	<unicode hex="014B"/>
	<outline>
		<contour>
			<point x="75" y="515" type="line"/>
			<point x="83" y="471" type="line" smooth="yes"/>
			<point x="88" y="442"/>
			<point x="90" y="421"/>
			<point x="90" y="393" type="curve" smooth="yes"/>
			<point x="90" y="0" type="line"/>
			<point x="182" y="0" type="line"/>
			<point x="182" y="415" type="line"/>
			<point x="161" y="515" type="line"/>
		</contour>
		<contour>
			<point x="286" y="-181" type="line"/>
			<point x="307" y="-189"/>
			<point x="334" y="-195"/>
			<point x="361" y="-195" type="curve" smooth="yes"/>
			<point x="451" y="-195"/>
			<point x="519" y="-134"/>
			<point x="519" y="-34" type="curve" smooth="yes"/>
			<point x="519" y="316" type="line" smooth="yes"/>
			<point x="519" y="457"/>
			<point x="442" y="525"/>
			<point x="340" y="525" type="curve"/>
			<point x="273" y="525"/>
			<point x="211" y="486"/>
			<point x="167" y="430" type="curve"/>
			<point x="167" y="358" type="line"/>
			<point x="211" y="408"/>
			<point x="263" y="438"/>
			<point x="316" y="438" type="curve"/>
			<point x="380" y="438"/>
			<point x="427" y="397"/>
			<point x="427" y="304" type="curve"/>
			<point x="427" y="-30" type="line" smooth="yes"/>
			<point x="427" y="-88"/>
			<point x="401" y="-114"/>
			<point x="355" y="-114" type="curve" smooth="yes"/>
			<point x="335" y="-114"/>
			<point x="318" y="-110"/>
			<point x="302" y="-105" type="curve"/>
		</contour>
	</outline>
</glyph>
<glyph name="OE" format="1">
  <advance width="981"/>
  <unicode hex="0152"/>
  <outline>
    <contour>
      <point x="60" y="345" type="curve" smooth="yes"/>
      <point x="60" y="112"/>
      <point x="217" y="0"/>
      <point x="408" y="0" type="curve" smooth="yes"/>
      <point x="509" y="0" type="line"/>
      <point x="509" y="86" type="line"/>
      <point x="408" y="86" type="line" smooth="yes"/>
      <point x="265" y="86"/>
      <point x="159" y="168"/>
      <point x="159" y="345" type="curve" smooth="yes"/>
      <point x="159" y="522"/>
      <point x="265" y="604"/>
      <point x="408" y="604" type="curve" smooth="yes"/>
      <point x="509" y="604" type="line"/>
      <point x="509" y="690" type="line"/>
      <point x="408" y="690" type="line" smooth="yes"/>
      <point x="217" y="690"/>
      <point x="60" y="578"/>
    </contour>
    <contour>
      <point x="480" y="0" type="line"/>
      <point x="576" y="0" type="line"/>
      <point x="576" y="690" type="line"/>
      <point x="480" y="690" type="line"/>
    </contour>
    <contour>
      <point x="530" y="0" type="line"/>
      <point x="911" y="0" type="line"/>
      <point x="911" y="86" type="line"/>
      <point x="530" y="86" type="line"/>
    </contour>
    <contour>
      <point x="530" y="307" type="line"/>
      <point x="856" y="307" type="line"/>
      <point x="856" y="393" type="line"/>
      <point x="530" y="393" type="line"/>
    </contour>
    <contour>
      <point x="530" y="604" type="line"/>
      <point x="906" y="604" type="line"/>
      <point x="906" y="690" type="line"/>
      <point x="530" y="690" type="line"/>
    </contour>
  </outline>
</glyph>
<glyph name="OE" format="2">
	<advance width="981"/>
	<unicode hex="0152"/>
	<outline>
		<contour>
			<point x="60" y="345" type="curve" smooth="yes"/>
			<point x="60" y="112"/>
			<point x="217" y="0"/>
			<point x="408" y="0" type="curve" smooth="yes"/>
			<point x="509" y="0" type="line"/>
			<point x="509" y="86" type="line"/>
			<point x="408" y="86" type="line" smooth="yes"/>
			<point x="265" y="86"/>
			<point x="159" y="168"/>
			<point x="159" y="345" type="curve" smooth="yes"/>
			<point x="159" y="522"/>
			<point x="265" y="604"/>
			<point x="408" y="604" type="curve" smooth="yes"/>
			<point x="509" y="604" type="line"/>
			<point x="509" y="690" type="line"/>
			<point x="408" y="690" type="line" smooth="yes"/>
			<point x="217" y="690"/>
			<point x="60" y="578"/>
		</contour>
		<contour>
			<point x="480" y="0" type="line"/>
			<point x="576" y="0" type="line"/>
			<point x="576" y="690" type="line"/>
			<point x="480" y="690" type="line"/>
		</contour>
		<contour>
			<point x="530" y="0" type="line"/>
			<point x="911" y="0" type="line"/>
			<point x="911" y="86" type="line"/>
			<point x="530" y="86" type="line"/>
		</contour>
		<contour>
			<point x="530" y="307" type="line"/>
			<point x="856" y="307" type="line"/>
			<point x="856" y="393" type="line"/>
			<point x="530" y="393" type="line"/>
		</contour>
		<contour>
			<point x="530" y="604" type="line"/>
			<point x="906" y="604" type="line"/>
			<point x="906" y="690" type="line"/>
			<point x="530" y="690" type="line"/>
		</contour>
	</outline>
</glyph>
<glyph name="oe" format="2">
	<advance width="876"/>
	<unicode hex="0153"/>
	<outline>
		<contour>
			<point x="55" y="257" type="curve" smooth="yes"/>
			<point x="55" y="84"/>
			<point x="144" y="-10"/>
			<point x="269" y="-10" type="curve" smooth="yes"/>
			<point x="385" y="-10"/>
			<point x="472" y="84"/>
			<point x="472" y="257" type="curve" smooth="yes"/>
			<point x="472" y="430"/>
			<point x="385" y="525"/>
			<point x="269" y="525" type="curve" smooth="yes"/>
			<point x="144" y="525"/>
			<point x="55" y="430"/>
		</contour>
		<contour>
			<point x="149" y="257" type="curve" smooth="yes"/>
			<point x="149" y="377"/>
			<point x="192" y="444"/>
			<point x="269" y="444" type="curve" smooth="yes"/>
			<point x="349" y="444"/>
			<point x="398" y="377"/>
			<point x="398" y="257" type="curve" smooth="yes"/>
			<point x="398" y="137"/>
			<point x="349" y="71"/>
			<point x="269" y="71" type="curve" smooth="yes"/>
			<point x="192" y="71"/>
			<point x="149" y="137"/>
		</contour>
		<contour>
			<point x="418" y="252" type="curve" smooth="yes"/>
			<point x="418" y="77"/>
			<point x="512" y="-11"/>
			<point x="639" y="-11" type="curve" smooth="yes"/>
			<point x="696" y="-11"/>
			<point x="751" y="5"/>
			<point x="794" y="42" type="curve"/>
			<point x="751" y="115" type="line"/>
			<point x="723" y="91"/>
			<point x="686" y="73"/>
			<point x="642" y="73" type="curve" smooth="yes"/>
			<point x="558" y="73"/>
			<point x="492" y="134"/>
			<point x="492" y="252" type="curve" smooth="yes"/>
			<point x="492" y="379"/>
			<point x="545" y="444"/>
			<point x="619" y="444" type="curve" smooth="yes"/>
			<point x="682" y="444"/>
			<point x="731" y="395"/>
			<point x="731" y="267" type="curve"/>
			<point x="749" y="304" type="line"/>
			<point x="477" y="304" type="line"/>
			<point x="477" y="230" type="line"/>
			<point x="819" y="230" type="line"/>
			<point x="820" y="242"/>
			<point x="821" y="255"/>
			<point x="821" y="267" type="curve" smooth="yes"/>
			<point x="821" y="439"/>
			<point x="732" y="525"/>
			<point x="620" y="525" type="curve" smooth="yes"/>
			<point x="509" y="525"/>
			<point x="418" y="432"/>
		</contour>
	</outline>
</glyph>
<glyph name="Tbar" format="2">
	<advance width="586"/>
	<unicode hex="0166"/>
	<outline>
		<contour>
			<point x="35" y="604" type="line"/>
			<point x="551" y="604" type="line"/>
			<point x="551" y="690" type="line"/>
			<point x="35" y="690" type="line"/>
		</contour>
		<contour>
			<point x="245" y="0" type="line"/>
			<point x="341" y="0" type="line"/>
			<point x="341" y="690" type="line"/>
			<point x="245" y="690" type="line"/>
		</contour>
		<contour>
			<point x="95" y="290" type="line"/>
			<point x="491" y="290" type="line"/>
			<point x="491" y="370" type="line"/>
			<point x="95" y="370" type="line"/>
		</contour>
	</outline>
</glyph>
<glyph name="Tbar" format="1">
  <advance width="586"/>
  <unicode hex="0166"/>
  <outline>
    <contour>
      <point x="35" y="604" type="line"/>
      <point x="551" y="604" type="line"/>
      <point x="551" y="690" type="line"/>
      <point x="35" y="690" type="line"/>
    </contour>
    <contour>
      <point x="245" y="0" type="line"/>
      <point x="341" y="0" type="line"/>
      <point x="341" y="690" type="line"/>
      <point x="245" y="690" type="line"/>
    </contour>
    <contour>
      <point x="95" y="290" type="line"/>
      <point x="491" y="290" type="line"/>
      <point x="491" y="370" type="line"/>
      <point x="95" y="370" type="line"/>
    </contour>
  </outline>
</glyph>
<glyph name="tbar" format="2">
  <advance width="414"/>
  <unicode hex="0167"/>
  <outline>
    <contour>
      <point x="30" y="435" type="line"/>
      <point x="364" y="435" type="line"/>
      <point x="364" y="515" type="line"/>
      <point x="30" y="515" type="line"/>
    </contour>
    <contour>
      <point x="120" y="152" type="line" smooth="yes"/>
      <point x="120" y="48"/>
      <point x="190" y="-10"/>
      <point x="274" y="-10" type="curve" smooth="yes"/>
      <point x="310" y="-10"/>
      <point x="347" y="-1"/>
      <point x="379" y="11" type="curve"/>
      <point x="363" y="90" type="line"/>
      <point x="335" y="79"/>
      <point x="312" y="73"/>
      <point x="290" y="73" type="curve" smooth="yes"/>
      <point x="236" y="73"/>
      <point x="212" y="103"/>
      <point x="212" y="156" type="curve" smooth="yes"/>
      <point x="212" y="654" type="line"/>
      <point x="120" y="634" type="line"/>
    </contour>
    <contour>
      <point x="30" y="240" type="line"/>
      <point x="364" y="240" type="line"/>
      <point x="364" y="310" type="line"/>
      <point x="30" y="310" type="line"/>
    </contour>
  </outline>
</glyph>
<glyph name="Uogonek" format="2">
	<advance width="706"/>
	<unicode hex="0172"/>
	<outline>
		<contour>
			<point x="500" y="-170" type="curve"/>
			<point x="480" y="-122" type="line"/>
			<point x="466" y="-130"/>
			<point x="450" y="-139"/>
			<point x="428" y="-139" type="curve" smooth="yes"/>
			<point x="406" y="-139"/>
			<point x="388" y="-124"/>
			<point x="388" y="-100" type="curve" smooth="yes"/>
			<point x="388" y="-66"/>
			<point x="425" y="-29"/>
			<point x="512" y="34" type="curve" smooth="yes"/>
			<point x="575" y="80"/>
			<point x="616" y="150"/>
			<point x="616" y="250" type="curve" smooth="yes"/>
			<point x="616" y="690" type="line"/>
			<point x="522" y="690" type="line"/>
			<point x="522" y="260" type="line" smooth="yes"/>
			<point x="522" y="143"/>
			<point x="456" y="79"/>
			<point x="354" y="79" type="curve" smooth="yes"/>
			<point x="252" y="79"/>
			<point x="186" y="143"/>
			<point x="186" y="260" type="curve" smooth="yes"/>
			<point x="186" y="690" type="line"/>
			<point x="90" y="690" type="line"/>
			<point x="90" y="250" type="line" smooth="yes"/>
			<point x="90" y="83"/>
			<point x="204" y="-10"/>
			<point x="353" y="-10" type="curve" smooth="yes"/>
			<point x="364" y="-10"/>
			<point x="375" y="-9"/>
			<point x="386" y="-8" type="curve"/>
			<point x="352" y="-32"/>
			<point x="322" y="-69"/>
			<point x="322" y="-110" type="curve" smooth="yes"/>
			<point x="322" y="-162"/>
			<point x="364" y="-195"/>
			<point x="418" y="-195" type="curve" smooth="yes"/>
			<point x="452" y="-195"/>
			<point x="476" y="-185"/>
		</contour>
	</outline>
</glyph>
<glyph name="Uogonek" format="1">
  <advance width="706"/>
  <unicode hex="0172"/>
  <outline>
    <contour>
      <point x="500" y="-170" type="curve"/>
      <point x="480" y="-122" type="line"/>
      <point x="466" y="-130"/>
      <point x="450" y="-139"/>
      <point x="428" y="-139" type="curve" smooth="yes"/>
      <point x="406" y="-139"/>
      <point x="388" y="-124"/>
      <point x="388" y="-100" type="curve" smooth="yes"/>
      <point x="388" y="-66"/>
      <point x="425" y="-29"/>
      <point x="512" y="34" type="curve" smooth="yes"/>
      <point x="575" y="80"/>
      <point x="616" y="150"/>
      <point x="616" y="250" type="curve" smooth="yes"/>
      <point x="616" y="690" type="line"/>
      <point x="522" y="690" type="line"/>
      <point x="522" y="260" type="line" smooth="yes"/>
      <point x="522" y="143"/>
      <point x="456" y="79"/>
      <point x="354" y="79" type="curve" smooth="yes"/>
      <point x="252" y="79"/>
      <point x="186" y="143"/>
      <point x="186" y="260" type="curve" smooth="yes"/>
      <point x="186" y="690" type="line"/>
      <point x="90" y="690" type="line"/>
      <point x="90" y="250" type="line" smooth="yes"/>
      <point x="90" y="83"/>
      <point x="204" y="-10"/>
      <point x="353" y="-10" type="curve" smooth="yes"/>
      <point x="364" y="-10"/>
      <point x="375" y="-9"/>
      <point x="386" y="-8" type="curve"/>
      <point x="352" y="-32"/>
      <point x="322" y="-69"/>
      <point x="322" y="-110" type="curve" smooth="yes"/>
      <point x="322" y="-162"/>
      <point x="364" y="-195"/>
      <point x="418" y="-195" type="curve" smooth="yes"/>
      <point x="452" y="-195"/>
      <point x="476" y="-185"/>
    </contour>
  </outline>
</glyph>
<glyph name="Schwa" format="2">
	<advance width="706"/>
	<unicode hex="018F"/>
	<outline>
		<contour>
			<point x="60" y="335" type="curve" smooth="yes"/>
			<point x="60" y="112"/>
			<point x="192" y="-10"/>
			<point x="353" y="-10" type="curve" smooth="yes"/>
			<point x="514" y="-10"/>
			<point x="646" y="112"/>
			<point x="646" y="345" type="curve" smooth="yes"/>
			<point x="646" y="578"/>
			<point x="514" y="700"/>
			<point x="333" y="700" type="curve" smooth="yes"/>
			<point x="240" y="700"/>
			<point x="164" y="670"/>
			<point x="102" y="626" type="curve"/>
			<point x="148" y="548" type="line"/>
			<point x="196" y="582"/>
			<point x="266" y="611"/>
			<point x="333" y="611" type="curve" smooth="yes"/>
			<point x="464" y="611"/>
			<point x="547" y="522"/>
			<point x="547" y="345" type="curve" smooth="yes"/>
			<point x="547" y="168"/>
			<point x="464" y="79"/>
			<point x="353" y="79" type="curve" smooth="yes"/>
			<point x="242" y="79"/>
			<point x="159" y="168"/>
			<point x="159" y="335" type="curve"/>
			<point x="136" y="284" type="line"/>
			<point x="568" y="284" type="line"/>
			<point x="568" y="370" type="line"/>
			<point x="62" y="370" type="line"/>
			<point x="61" y="360"/>
			<point x="60" y="346"/>
		</contour>
	</outline>
</glyph>
<glyph name="florin" format="1">
  <advance width="600"/>
  <unicode hex="0192"/>
  <outline>
    <contour>
      <point x="89.0" y="-181" type="line"/>
      <point x="110.0" y="-189"/>
      <point x="137.0" y="-195"/>
      <point x="164.0" y="-195" type="curve"/>
      <point x="254.0" y="-195"/>
      <point x="322.0" y="-134"/>
      <point x="322.0" y="-34" type="curve" smooth="yes"/>
      <point x="322.0" y="554" type="line" smooth="yes"/>
      <point x="322.0" y="613"/>
      <point x="349.0" y="651"/>
      <point x="405.0" y="651" type="curve" smooth="yes"/>
      <point x="430.0" y="651"/>
      <point x="455.0" y="645"/>
      <point x="483.0" y="633" type="curve"/>
      <point x="501.0" y="707" type="line"/>
      <point x="469.0" y="721"/>
      <point x="433.0" y="730"/>
      <point x="392.0" y="730" type="curve" smooth="yes"/>
      <point x="303.0" y="730"/>
      <point x="230.0" y="667"/>
      <point x="230.0" y="557" type="curve" smooth="yes"/>
      <point x="230.0" y="-30" type="line" smooth="yes"/>
      <point x="230.0" y="-88"/>
      <point x="204.0" y="-114"/>
      <point x="158.0" y="-114" type="curve"/>
      <point x="138.0" y="-114"/>
      <point x="121.0" y="-110"/>
      <point x="105.0" y="-105" type="curve"/>
    </contour>
    <contour>
      <point x="140.0" y="435" type="line"/>
      <point x="474.0" y="435" type="line"/>
      <point x="474.0" y="515" type="line"/>
      <point x="140.0" y="515" type="line"/>
    </contour>
  </outline>
</glyph>
<glyph name="oogonek" format="2">
	<advance width="572"/>
	<unicode hex="01EB"/>
	<outline>
		<contour>
			<point x="410" y="-170" type="curve"/>
			<point x="390" y="-122" type="line"/>
			<point x="376" y="-130"/>
			<point x="360" y="-139"/>
			<point x="338" y="-139" type="curve" smooth="yes"/>
			<point x="316" y="-139"/>
			<point x="298" y="-124"/>
			<point x="298" y="-100" type="curve" smooth="yes"/>
			<point x="298" y="-67"/>
			<point x="331" y="-32"/>
			<point x="412" y="24" type="curve" smooth="yes"/>
			<point x="478" y="70"/>
			<point x="517" y="144"/>
			<point x="517" y="257" type="curve" smooth="yes"/>
			<point x="517" y="430"/>
			<point x="420" y="525"/>
			<point x="286" y="525" type="curve" smooth="yes"/>
			<point x="152" y="525"/>
			<point x="55" y="430"/>
			<point x="55" y="257" type="curve" smooth="yes"/>
			<point x="55" y="84"/>
			<point x="152" y="-10"/>
			<point x="286" y="-10" type="curve" smooth="yes"/>
			<point x="289" y="-10"/>
			<point x="291" y="-10"/>
			<point x="294" y="-10" type="curve"/>
			<point x="261" y="-33"/>
			<point x="232" y="-70"/>
			<point x="232" y="-110" type="curve" smooth="yes"/>
			<point x="232" y="-162"/>
			<point x="274" y="-195"/>
			<point x="328" y="-195" type="curve" smooth="yes"/>
			<point x="362" y="-195"/>
			<point x="386" y="-185"/>
		</contour>
		<contour>
			<point x="149" y="257" type="curve" smooth="yes"/>
			<point x="149" y="377"/>
			<point x="200" y="444"/>
			<point x="286" y="444" type="curve" smooth="yes"/>
			<point x="372" y="444"/>
			<point x="423" y="377"/>
			<point x="423" y="257" type="curve" smooth="yes"/>
			<point x="423" y="137"/>
			<point x="372" y="71"/>
			<point x="286" y="71" type="curve" smooth="yes"/>
			<point x="200" y="71"/>
			<point x="149" y="137"/>
		</contour>
	</outline>
</glyph>
<glyph name="dotlessj" format="1">
  <advance width="272"/>
  <unicode hex="0237"/>
  <outline>
    <contour>
      <point x="-51" y="-181" type="line"/>
      <point x="-30" y="-189"/>
      <point x="-3" y="-195"/>
      <point x="24" y="-195" type="curve"/>
      <point x="114" y="-195"/>
      <point x="182" y="-134"/>
      <point x="182" y="-34" type="curve" smooth="yes"/>
      <point x="182" y="515" type="line"/>
      <point x="90" y="515" type="line"/>
      <point x="90" y="-30" type="line" smooth="yes"/>
      <point x="90" y="-88"/>
      <point x="64" y="-114"/>
      <point x="18" y="-114" type="curve"/>
      <point x="-2" y="-114"/>
      <point x="-19" y="-110"/>
      <point x="-35" y="-105" type="curve"/>
    </contour>
    <contour>
      <point x="136" y="515" type="move" name="top"/>
    </contour>
  </outline>
</glyph>
<glyph name="ipa:schwa" format="2">
	<advance width="553"/>
	<unicode hex="0259"/>
	<outline>
		<contour>
			<point x="55" y="248" type="curve" smooth="yes"/>
			<point x="55" y="76"/>
			<point x="150" y="-10"/>
			<point x="268" y="-10" type="curve" smooth="yes"/>
			<point x="396" y="-10"/>
			<point x="498" y="83"/>
			<point x="498" y="263" type="curve" smooth="yes"/>
			<point x="498" y="438"/>
			<point x="391" y="525"/>
			<point x="247" y="525" type="curve" smooth="yes"/>
			<point x="186" y="525"/>
			<point x="128" y="509"/>
			<point x="82" y="472" type="curve"/>
			<point x="125" y="399" type="line"/>
			<point x="156" y="423"/>
			<point x="196" y="441"/>
			<point x="244" y="441" type="curve" smooth="yes"/>
			<point x="334" y="441"/>
			<point x="404" y="381"/>
			<point x="404" y="263" type="curve" smooth="yes"/>
			<point x="404" y="136"/>
			<point x="349" y="71"/>
			<point x="269" y="71" type="curve" smooth="yes"/>
			<point x="201" y="71"/>
			<point x="145" y="120"/>
			<point x="145" y="248" type="curve"/>
			<point x="127" y="211" type="line"/>
			<point x="419" y="211" type="line"/>
			<point x="419" y="285" type="line"/>
			<point x="57" y="285" type="line"/>
			<point x="56" y="273"/>
			<point x="55" y="260"/>
		</contour>
	</outline>
</glyph>
<glyph name="nhookleft" format="2">
	<advance width="604"/>
	<unicode hex="0272"/>
	<outline>
		<contour>
			<point x="-51" y="-181" type="line"/>
			<point x="-30" y="-189"/>
			<point x="-3" y="-195"/>
			<point x="24" y="-195" type="curve" smooth="yes"/>
			<point x="114" y="-195"/>
			<point x="182" y="-134"/>
			<point x="182" y="-34" type="curve" smooth="yes"/>
			<point x="182" y="415" type="line"/>
			<point x="161" y="515" type="line"/>
			<point x="75" y="515" type="line"/>
			<point x="83" y="471" type="line" smooth="yes"/>
			<point x="88" y="442"/>
			<point x="90" y="421"/>
			<point x="90" y="393" type="curve"/>
			<point x="90" y="-30" type="line" smooth="yes"/>
			<point x="90" y="-88"/>
			<point x="64" y="-114"/>
			<point x="18" y="-114" type="curve" smooth="yes"/>
			<point x="-2" y="-114"/>
			<point x="-19" y="-110"/>
			<point x="-35" y="-105" type="curve"/>
		</contour>
		<contour>
			<point x="167" y="358" type="line"/>
			<point x="211" y="408"/>
			<point x="263" y="438"/>
			<point x="316" y="438" type="curve"/>
			<point x="380" y="438"/>
			<point x="427" y="397"/>
			<point x="427" y="304" type="curve" smooth="yes"/>
			<point x="427" y="0" type="line"/>
			<point x="519" y="0" type="line"/>
			<point x="519" y="316" type="line" smooth="yes"/>
			<point x="519" y="457"/>
			<point x="442" y="525"/>
			<point x="340" y="525" type="curve"/>
			<point x="273" y="525"/>
			<point x="211" y="486"/>
			<point x="167" y="430" type="curve"/>
		</contour>
	</outline>
</glyph>
<glyph name="circumflex" format="2">
  <advance width="600"/>
  <unicode hex="02C6"/>
  <anchor x="300" y="515" name="_top"/>
  <outline>
    <contour>
      <point x="162" y="590" type="line"/>
      <point x="239" y="590" type="line"/>
      <point x="345" y="740" type="line"/>
      <point x="249" y="740" type="line"/>
    </contour>
    <contour>
      <point x="255" y="740" type="line"/>
      <point x="361" y="590" type="line"/>
      <point x="438" y="590" type="line"/>
      <point x="351" y="740" type="line"/>
    </contour>
  </outline>
</glyph>
<glyph name="caron" format="2">
  <advance width="600"/>
  <unicode hex="02C7"/>
  <anchor x="300.0" y="515.0" name="_top"/>
  <outline>
    <contour>
      <point x="162" y="740" type="line"/>
      <point x="249" y="590" type="line"/>
      <point x="345" y="590" type="line"/>
      <point x="239" y="740" type="line"/>
    </contour>
    <contour>
      <point x="255" y="590" type="line"/>
      <point x="351" y="590" type="line"/>
      <point x="438" y="740" type="line"/>
      <point x="361" y="740" type="line"/>
    </contour>
  </outline>
</glyph>
<glyph name="breve" format="2">
	<advance width="600"/>
	<unicode hex="02D8"/>
	<anchor x="300" y="515" name="_top"/>
	<outline>
		<contour>
			<point x="161" y="740" type="line"/>
			<point x="170" y="642"/>
			<point x="222" y="590"/>
			<point x="300" y="590" type="curve"/>
			<point x="378" y="590"/>
			<point x="430" y="642"/>
			<point x="439" y="740" type="curve"/>
			<point x="369" y="740" type="line"/>
			<point x="363" y="690"/>
			<point x="339" y="666"/>
			<point x="300" y="666" type="curve"/>
			<point x="261" y="666"/>
			<point x="237" y="690"/>
			<point x="231" y="740" type="curve"/>
		</contour>
	</outline>
</glyph>
<glyph name="dotaccent" format="2">
  <advance width="600"/>
  <unicode hex="02D9"/>
  <anchor x="300" y="515" name="_top"/>
  <outline>
    <contour>
      <point x="239" y="667" type="curve" smooth="yes"/>
      <point x="239" y="632"/>
      <point x="265" y="605"/>
      <point x="300" y="605" type="curve" smooth="yes"/>
      <point x="337" y="605"/>
      <point x="361" y="632"/>
      <point x="361" y="667" type="curve" smooth="yes"/>
      <point x="361" y="703"/>
      <point x="337" y="730"/>
      <point x="300" y="730" type="curve" smooth="yes"/>
      <point x="265" y="730"/>
      <point x="239" y="703"/>
    </contour>
  </outline>
</glyph>
<glyph name="ring" format="2">
  <advance width="600"/>
  <unicode hex="02DA"/>
  <anchor x="300" y="515" name="_top"/>
  <outline>
    <contour>
      <point x="184" y="694" type="curve" smooth="yes"/>
      <point x="184" y="626"/>
      <point x="235" y="580"/>
      <point x="300" y="580" type="curve" smooth="yes"/>
      <point x="365" y="580"/>
      <point x="417" y="626"/>
      <point x="417" y="694" type="curve" smooth="yes"/>
      <point x="417" y="762"/>
      <point x="365" y="808"/>
      <point x="300" y="808" type="curve" smooth="yes"/>
      <point x="235" y="808"/>
      <point x="184" y="762"/>
    </contour>
    <contour>
      <point x="250" y="694" type="curve" smooth="yes"/>
      <point x="250" y="731"/>
      <point x="270.7118644067797" y="753.0"/>
      <point x="300" y="753" type="curve" smooth="yes"/>
      <point x="330.25" y="753.0"/>
      <point x="351" y="731"/>
      <point x="351" y="694" type="curve" smooth="yes"/>
      <point x="351" y="656"/>
      <point x="330" y="635"/>
      <point x="300" y="635" type="curve" smooth="yes"/>
      <point x="271" y="635"/>
      <point x="250" y="656"/>
    </contour>
  </outline>
</glyph>
<glyph name="ogonek" format="2">
	<advance width="600"/>
	<unicode hex="02DB"/>
	<anchor x="300" y="0" name="_ogonek"/>
	<outline>
		<contour>
			<point x="222" y="-110" type="curve" smooth="yes"/>
			<point x="222" y="-162"/>
			<point x="264" y="-195"/>
			<point x="318" y="-195" type="curve" smooth="yes"/>
			<point x="352" y="-195"/>
			<point x="376" y="-185"/>
			<point x="400" y="-170" type="curve"/>
			<point x="380" y="-122" type="line"/>
			<point x="366" y="-130"/>
			<point x="350" y="-139"/>
			<point x="328" y="-139" type="curve" smooth="yes"/>
			<point x="306" y="-139"/>
			<point x="288" y="-124"/>
			<point x="288" y="-100" type="curve" smooth="yes"/>
			<point x="288" y="-64"/>
			<point x="326" y="-30"/>
			<point x="380" y="0" type="curve"/>
			<point x="300" y="0" type="line"/>
			<point x="260" y="-22"/>
			<point x="222" y="-64"/>
		</contour>
	</outline>
</glyph>
<glyph name="tilde" format="1">
  <advance width="600"/>
  <unicode hex="02DC"/>
  <outline>
    <contour>
      <point x="154" y="605" type="curve"/>
      <point x="214" y="605" type="line"/>
      <point x="218" y="639"/>
      <point x="230" y="649"/>
      <point x="244" y="649" type="curve"/>
      <point x="274" y="649"/>
      <point x="304" y="600"/>
      <point x="357" y="600" type="curve"/>
      <point x="409" y="600"/>
      <point x="440" y="644"/>
      <point x="446" y="720" type="curve"/>
      <point x="386" y="720" type="line"/>
      <point x="382" y="686"/>
      <point x="370" y="676"/>
      <point x="356" y="676" type="curve"/>
      <point x="326" y="676"/>
      <point x="296" y="725"/>
      <point x="243" y="725" type="curve"/>
      <point x="191" y="725"/>
      <point x="160" y="681"/>
    </contour>
    <contour>
      <point x="300" y="515" type="move" name="_top"/>
    </contour>
  </outline>
</glyph>
<glyph name="hungarumlaut" format="2">
	<advance width="600"/>
	<unicode hex="02DD"/>
	<anchor x="300" y="515" name="_top"/>
	<outline>
		<contour>
			<point x="165" y="590" type="line"/>
			<point x="235" y="590" type="line"/>
			<point x="325" y="740" type="line"/>
			<point x="220" y="740" type="line"/>
		</contour>
		<contour>
			<point x="335" y="590" type="line"/>
			<point x="405" y="590" type="line"/>
			<point x="505" y="740" type="line"/>
			<point x="400" y="740" type="line"/>
		</contour>
	</outline>
</glyph>
<glyph name="gravecomb" format="2">
	<advance width="0"/>
	<unicode hex="0300"/>
	<anchor x="0" y="515" name="_top"/>
	<outline>
		<contour>
			<point x="-141" y="740" type="line"/>
			<point x="-31" y="590" type="line"/>
			<point x="45" y="590" type="line"/>
			<point x="-30" y="740" type="line"/>
		</contour>
	</outline>
</glyph>
<glyph name="acutecomb" format="2">
	<advance width="0"/>
	<unicode hex="0301"/>
	<anchor x="0" y="515" name="_top"/>
	<outline>
		<contour>
			<point x="-45" y="590" type="line"/>
			<point x="31" y="590" type="line"/>
			<point x="141" y="740" type="line"/>
			<point x="30" y="740" type="line"/>
		</contour>
	</outline>
</glyph>
<glyph name="circumflexcomb" format="2">
	<advance width="0"/>
	<unicode hex="0302"/>
	<anchor x="0" y="515" name="_top"/>
	<anchor x="0" y="712" name="top"/>
	<outline>
		<contour>
			<point x="-138" y="590" type="line"/>
			<point x="-61" y="590" type="line"/>
			<point x="45" y="740" type="line"/>
			<point x="-51" y="740" type="line"/>
		</contour>
		<contour>
			<point x="-45" y="740" type="line"/>
			<point x="61" y="590" type="line"/>
			<point x="138" y="590" type="line"/>
			<point x="51" y="740" type="line"/>
		</contour>
	</outline>
</glyph>
<glyph name="tildecomb" format="2">
	<advance width="0"/>
	<unicode hex="0303"/>
	<anchor x="0" y="515" name="_top"/>
	<anchor x="0" y="702" name="top"/>
	<outline>
		<contour>
			<point x="-146" y="605" type="curve"/>
			<point x="-86" y="605" type="line"/>
			<point x="-82" y="639"/>
			<point x="-70" y="649"/>
			<point x="-56" y="649" type="curve"/>
			<point x="-26" y="649"/>
			<point x="4" y="600"/>
			<point x="57" y="600" type="curve"/>
			<point x="109" y="600"/>
			<point x="140" y="644"/>
			<point x="146" y="720" type="curve"/>
			<point x="86" y="720" type="line"/>
			<point x="82" y="686"/>
			<point x="70" y="676"/>
			<point x="56" y="676" type="curve"/>
			<point x="26" y="676"/>
			<point x="-4" y="725"/>
			<point x="-57" y="725" type="curve"/>
			<point x="-109" y="725"/>
			<point x="-140" y="681"/>
		</contour>
	</outline>
</glyph>
<glyph name="macroncomb" format="2">
	<advance width="0"/>
	<unicode hex="0304"/>
	<anchor x="0" y="515" name="_top"/>
	<anchor x="0" y="720" name="top"/>
	<outline>
		<contour>
			<point x="-148" y="630" type="line"/>
			<point x="148" y="630" type="line"/>
			<point x="148" y="700" type="line"/>
			<point x="-148" y="700" type="line"/>
		</contour>
	</outline>
</glyph>
<glyph name="brevecomb" format="2">
	<advance width="0"/>
	<unicode hex="0306"/>
	<anchor x="0" y="515" name="_top"/>
	<anchor x="0" y="702" name="top"/>
	<outline>
		<contour>
			<point x="-139" y="740" type="line"/>
			<point x="-130" y="642"/>
			<point x="-78" y="590"/>
			<point x="0" y="590" type="curve"/>
			<point x="78" y="590"/>
			<point x="130" y="642"/>
			<point x="139" y="740" type="curve"/>
			<point x="69" y="740" type="line"/>
			<point x="63" y="690"/>
			<point x="39" y="666"/>
			<point x="0" y="666" type="curve"/>
			<point x="-39" y="666"/>
			<point x="-63" y="690"/>
			<point x="-69" y="740" type="curve"/>
		</contour>
	</outline>
</glyph>
<glyph name="dotaccentcomb" format="2">
	<advance width="0"/>
	<unicode hex="0307"/>
	<anchor x="0" y="515" name="_top"/>
	<outline>
		<contour>
			<point x="-61" y="667" type="curve" smooth="yes"/>
			<point x="-61" y="632"/>
			<point x="-35" y="605"/>
			<point x="0" y="605" type="curve" smooth="yes"/>
			<point x="37" y="605"/>
			<point x="61" y="632"/>
			<point x="61" y="667" type="curve" smooth="yes"/>
			<point x="61" y="703"/>
			<point x="37" y="730"/>
			<point x="0" y="730" type="curve" smooth="yes"/>
			<point x="-35" y="730"/>
			<point x="-61" y="703"/>
		</contour>
	</outline>
</glyph>
<glyph name="dieresiscomb" format="2">
	<advance width="0"/>
	<unicode hex="0308"/>
	<anchor x="0" y="515" name="_top"/>
	<outline>
		<contour>
			<point x="-155" y="672" type="curve" smooth="yes"/>
			<point x="-155" y="641"/>
			<point x="-132" y="615"/>
			<point x="-98" y="615" type="curve" smooth="yes"/>
			<point x="-62" y="615"/>
			<point x="-41" y="641"/>
			<point x="-41" y="672" type="curve" smooth="yes"/>
			<point x="-41" y="704"/>
			<point x="-62" y="730"/>
			<point x="-98" y="730" type="curve" smooth="yes"/>
			<point x="-132" y="730"/>
			<point x="-155" y="704"/>
		</contour>
		<contour>
			<point x="41" y="672" type="curve" smooth="yes"/>
			<point x="41" y="641"/>
			<point x="64" y="615"/>
			<point x="98" y="615" type="curve" smooth="yes"/>
			<point x="134" y="615"/>
			<point x="155" y="641"/>
			<point x="155" y="672" type="curve" smooth="yes"/>
			<point x="155" y="704"/>
			<point x="134" y="730"/>
			<point x="98" y="730" type="curve" smooth="yes"/>
			<point x="64" y="730"/>
			<point x="41" y="704"/>
		</contour>
	</outline>
</glyph>
<glyph name="hookabovecomb" format="2">
	<advance width="0"/>
	<unicode hex="0309"/>
	<anchor x="0" y="515" name="_top"/>
	<outline>
		<contour>
			<point x="-24" y="557" type="line"/>
			<point x="20" y="557" type="line"/>
			<point x="20" y="595" type="line"/>
			<point x="52" y="602"/>
			<point x="72" y="621"/>
			<point x="72" y="655" type="curve" smooth="yes"/>
			<point x="72" y="682"/>
			<point x="57" y="720"/>
			<point x="-26" y="720" type="curve"/>
			<point x="-26" y="679" type="line"/>
			<point x="0" y="679"/>
			<point x="26" y="675"/>
			<point x="26" y="655" type="curve" smooth="yes"/>
			<point x="26" y="639"/>
			<point x="10" y="627"/>
			<point x="-24" y="620" type="curve"/>
		</contour>
	</outline>
</glyph>
<glyph name="ringcomb" format="2">
	<advance width="0"/>
	<unicode hex="030A"/>
	<anchor x="0" y="515" name="_top"/>
	<outline>
		<contour>
			<point x="-116" y="694" type="curve" smooth="yes"/>
			<point x="-116" y="626"/>
			<point x="-65" y="580"/>
			<point x="0" y="580" type="curve" smooth="yes"/>
			<point x="65" y="580"/>
			<point x="117" y="626"/>
			<point x="117" y="694" type="curve" smooth="yes"/>
			<point x="117" y="762"/>
			<point x="65" y="808"/>
			<point x="0" y="808" type="curve" smooth="yes"/>
			<point x="-65" y="808"/>
			<point x="-116" y="762"/>
		</contour>
		<contour>
			<point x="-50" y="694" type="curve" smooth="yes"/>
			<point x="-50" y="731"/>
			<point x="-29" y="753"/>
			<point x="0" y="753" type="curve" smooth="yes"/>
			<point x="30" y="753"/>
			<point x="51" y="731"/>
			<point x="51" y="694" type="curve" smooth="yes"/>
			<point x="51" y="656"/>
			<point x="30" y="635"/>
			<point x="0" y="635" type="curve" smooth="yes"/>
			<point x="-29" y="635"/>
			<point x="-50" y="656"/>
		</contour>
	</outline>
</glyph>
<glyph name="dblgravecomb" format="2">
	<advance width="0"/>
	<unicode hex="030F"/>
	<anchor x="0" y="515" name="_top"/>
	<outline>
		<contour>
			<point x="-206" y="720" type="line"/>
			<point x="-105" y="571" type="line"/>
			<point x="-29" y="571" type="line"/>
			<point x="-104" y="720" type="line"/>
		</contour>
		<contour>
			<point x="-60" y="721" type="line"/>
			<point x="40" y="571" type="line"/>
			<point x="116" y="571" type="line"/>
			<point x="41" y="721" type="line"/>
		</contour>
	</outline>
</glyph>
<glyph name="horncomb" format="2">
	<advance width="0"/>
	<unicode hex="031B"/>
	<anchor x="0" y="690" name="_horn"/>
	<outline>
		<contour>
			<point x="0" y="622" type="line"/>
			<point x="106" y="622"/>
			<point x="161" y="681"/>
			<point x="161" y="751" type="curve"/>
			<point x="92" y="751" type="line"/>
			<point x="92" y="708"/>
			<point x="61" y="690"/>
			<point x="0" y="690" type="curve"/>
		</contour>
	</outline>
</glyph>
<glyph name="dotbelowcomb" format="2">
	<advance width="0"/>
	<unicode hex="0323"/>
	<anchor x="0" y="0" name="_bottom"/>
	<outline>
		<contour>
			<point x="-61" y="-143" type="curve" smooth="yes"/>
			<point x="-61" y="-178"/>
			<point x="-35" y="-205"/>
			<point x="0" y="-205" type="curve" smooth="yes"/>
			<point x="37" y="-205"/>
			<point x="61" y="-178"/>
			<point x="61" y="-143" type="curve" smooth="yes"/>
			<point x="61" y="-107"/>
			<point x="37" y="-80"/>
			<point x="0" y="-80" type="curve" smooth="yes"/>
			<point x="-35" y="-80"/>
			<point x="-61" y="-107"/>
		</contour>
	</outline>
</glyph>
<glyph name="commaaccentcomb" format="2">
	<advance width="0"/>
	<unicode hex="0326"/>
	<anchor x="0" y="0" name="_bottom"/>
	<outline>
		<contour>
			<point x="-42" y="-310" type="line"/>
			<point x="12" y="-310" type="line"/>
			<point x="42" y="-222" type="line" smooth="yes"/>
			<point x="50" y="-198"/>
			<point x="57" y="-180"/>
			<point x="57" y="-154" type="curve" smooth="yes"/>
			<point x="57" y="-116"/>
			<point x="36" y="-90"/>
			<point x="0" y="-90" type="curve" smooth="yes"/>
			<point x="-34" y="-90"/>
			<point x="-57" y="-116"/>
			<point x="-57" y="-148" type="curve" smooth="yes"/>
			<point x="-57" y="-180"/>
			<point x="-36" y="-198"/>
			<point x="-12" y="-204" type="curve"/>
		</contour>
	</outline>
</glyph>
<glyph name="cedillacomb" format="2">
	<advance width="0"/>
	<unicode hex="0327"/>
	<anchor x="0" y="0" name="_bottom"/>
	<outline>
		<contour>
			<point x="-78" y="-240" type="line"/>
			<point x="-48" y="-240" type="line" smooth="yes"/>
			<point x="64" y="-240"/>
			<point x="100" y="-185"/>
			<point x="100" y="-141" type="curve" smooth="yes"/>
			<point x="100" y="-100"/>
			<point x="74" y="-70"/>
			<point x="16" y="-65" type="curve"/>
			<point x="28" y="9" type="line"/>
			<point x="-30" y="15" type="line"/>
			<point x="-48" y="-103" type="line"/>
			<point x="-18" y="-105" type="line" smooth="yes"/>
			<point x="9" y="-107"/>
			<point x="20" y="-120"/>
			<point x="20" y="-140" type="curve" smooth="yes"/>
			<point x="20" y="-163"/>
			<point x="4" y="-184"/>
			<point x="-66" y="-185" type="curve"/>
		</contour>
	</outline>
</glyph>
<glyph name="ogonekcomb" format="2">
	<advance width="0"/>
	<unicode hex="0328"/>
	<anchor x="0" y="0" name="_ogonek"/>
	<outline>
		<contour>
			<point x="-78" y="-110" type="curve" smooth="yes"/>
			<point x="-78" y="-162"/>
			<point x="-36" y="-195"/>
			<point x="18" y="-195" type="curve" smooth="yes"/>
			<point x="52" y="-195"/>
			<point x="76" y="-185"/>
			<point x="100" y="-170" type="curve"/>
			<point x="80" y="-122" type="line"/>
			<point x="66" y="-130"/>
			<point x="50" y="-139"/>
			<point x="28" y="-139" type="curve" smooth="yes"/>
			<point x="6" y="-139"/>
			<point x="-12" y="-124"/>
			<point x="-12" y="-100" type="curve" smooth="yes"/>
			<point x="-12" y="-64"/>
			<point x="26" y="-30"/>
			<point x="80" y="0" type="curve"/>
			<point x="0" y="0" type="line"/>
			<point x="-40" y="-22"/>
			<point x="-78" y="-64"/>
		</contour>
	</outline>
</glyph>
<glyph name="Delta" format="2">
	<advance width="636"/>
	<unicode hex="0394"/>
	<outline>
		<contour>
			<point x="20" y="0" type="line"/>
			<point x="120" y="0" type="line"/>
			<point x="333" y="600" type="line"/>
			<point x="325" y="690" type="line"/>
			<point x="278" y="690" type="line"/>
		</contour>
		<contour>
			<point x="90" y="0" type="line"/>
			<point x="546" y="0" type="line"/>
			<point x="546" y="86" type="line"/>
			<point x="90" y="86" type="line"/>
		</contour>
		<contour>
			<point x="299" y="600" type="line"/>
			<point x="512" y="0" type="line"/>
			<point x="616" y="0" type="line"/>
			<point x="358" y="690" type="line"/>
			<point x="303" y="690" type="line"/>
		</contour>
	</outline>
</glyph>
<glyph name="Delta" format="1">
  <advance width="636"/>
  <unicode hex="0394"/>
  <outline>
    <contour>
      <point x="20" y="0" type="line"/>
      <point x="120" y="0" type="line"/>
      <point x="333" y="600" type="line"/>
      <point x="325" y="690" type="line"/>
      <point x="278" y="690" type="line"/>
    </contour>
    <contour>
      <point x="90" y="0" type="line"/>
      <point x="546" y="0" type="line"/>
      <point x="546" y="86" type="line"/>
      <point x="90" y="86" type="line"/>
    </contour>
    <contour>
      <point x="299" y="600" type="line"/>
      <point x="512" y="0" type="line"/>
      <point x="616" y="0" type="line"/>
      <point x="358" y="690" type="line"/>
      <point x="303" y="690" type="line"/>
    </contour>
  </outline>
</glyph>
<glyph name="Omega" format="2">
	<advance width="726"/>
	<unicode hex="03A9"/>
	<outline>
		<contour>
			<point x="363" y="611" type="curve" smooth="yes"/>
			<point x="474" y="611"/>
			<point x="557" y="522"/>
			<point x="557" y="365" type="curve" smooth="yes"/>
			<point x="557" y="234"/>
			<point x="495" y="150"/>
			<point x="433" y="110" type="curve"/>
			<point x="433" y="0" type="line"/>
			<point x="656" y="0" type="line"/>
			<point x="656" y="81" type="line"/>
			<point x="486" y="81" type="line"/>
			<point x="433" y="30" type="line"/>
			<point x="560" y="94"/>
			<point x="656" y="204"/>
			<point x="656" y="365" type="curve" smooth="yes"/>
			<point x="656" y="578"/>
			<point x="524" y="700"/>
			<point x="363" y="700" type="curve" smooth="yes"/>
			<point x="202" y="700"/>
			<point x="70" y="578"/>
			<point x="70" y="365" type="curve" smooth="yes"/>
			<point x="70" y="204"/>
			<point x="166" y="94"/>
			<point x="293" y="30" type="curve"/>
			<point x="240" y="81" type="line"/>
			<point x="70" y="81" type="line"/>
			<point x="70" y="0" type="line"/>
			<point x="293" y="0" type="line"/>
			<point x="293" y="110" type="line"/>
			<point x="231" y="150"/>
			<point x="169" y="234"/>
			<point x="169" y="365" type="curve" smooth="yes"/>
			<point x="169" y="522"/>
			<point x="252" y="611"/>
		</contour>
	</outline>
</glyph>
<glyph name="mu" format="2">
	<advance width="600"/>
	<unicode hex="03BC"/>
	<outline>
		<contour>
			<point x="85" y="-185" type="line"/>
			<point x="177" y="-185" type="line"/>
			<point x="167" y="120" type="line"/>
			<point x="145" y="120" type="line"/>
			<point x="145" y="32"/>
			<point x="199" y="-10"/>
			<point x="272" y="-10" type="curve" smooth="yes"/>
			<point x="335" y="-10"/>
			<point x="390" y="30"/>
			<point x="433" y="85" type="curve"/>
			<point x="433" y="157" type="line"/>
			<point x="389" y="107"/>
			<point x="339" y="77"/>
			<point x="286" y="77" type="curve" smooth="yes"/>
			<point x="222" y="77"/>
			<point x="177" y="118"/>
			<point x="177" y="211" type="curve" smooth="yes"/>
			<point x="177" y="515" type="line"/>
			<point x="85" y="515" type="line"/>
		</contour>
		<contour>
			<point x="418" y="132" type="line"/>
			<point x="424" y="79" type="line"/>
			<point x="428" y="16"/>
			<point x="465" y="-10"/>
			<point x="508" y="-10" type="curve"/>
			<point x="523" y="-10"/>
			<point x="542" y="-6"/>
			<point x="556" y="0" type="curve"/>
			<point x="556" y="75" type="line"/>
			<point x="548" y="72"/>
			<point x="543" y="71"/>
			<point x="535" y="71" type="curve"/>
			<point x="520" y="71"/>
			<point x="510" y="79"/>
			<point x="510" y="100" type="curve" smooth="yes"/>
			<point x="510" y="515" type="line"/>
			<point x="418" y="515" type="line"/>
		</contour>
	</outline>
</glyph>
<glyph name="pi" format="2">
	<advance width="600"/>
	<unicode hex="03C0"/>
	<outline>
		<contour>
			<point x="40" y="434" type="line"/>
			<point x="555" y="434" type="line"/>
			<point x="555" y="515" type="line"/>
			<point x="40" y="515" type="line"/>
		</contour>
		<contour>
			<point x="115" y="0" type="line"/>
			<point x="207" y="0" type="line"/>
			<point x="207" y="515" type="line"/>
			<point x="115" y="515" type="line"/>
		</contour>
		<contour>
			<point x="388" y="110" type="line" smooth="yes"/>
			<point x="388" y="20"/>
			<point x="420" y="-10"/>
			<point x="478" y="-10" type="curve" smooth="yes"/>
			<point x="493" y="-10"/>
			<point x="512" y="-6"/>
			<point x="526" y="0" type="curve"/>
			<point x="526" y="75" type="line"/>
			<point x="518" y="72"/>
			<point x="513" y="71"/>
			<point x="505" y="71" type="curve" smooth="yes"/>
			<point x="490" y="71"/>
			<point x="480" y="79"/>
			<point x="480" y="100" type="curve" smooth="yes"/>
			<point x="480" y="515" type="line"/>
			<point x="388" y="515" type="line"/>
		</contour>
	</outline>
</glyph>
<glyph name="endash" format="2">
  <advance width="604"/>
  <unicode hex="2013"/>
  <outline>
    <contour>
      <point x="60" y="240" type="line"/>
      <point x="544" y="240" type="line"/>
      <point x="544" y="310" type="line"/>
      <point x="60" y="310" type="line"/>
    </contour>
  </outline>
</glyph>
<glyph name="emdash" format="2">
  <advance width="881"/>
  <unicode hex="2014"/>
  <outline>
    <contour>
      <point x="60" y="240" type="line"/>
      <point x="821" y="240" type="line"/>
      <point x="821" y="310" type="line"/>
      <point x="60" y="310" type="line"/>
    </contour>
  </outline>
</glyph>
<glyph name="quoteleft" format="2">
	<advance width="222"/>
	<unicode hex="2018"/>
	<outline>
		<contour>
			<point x="165" y="720" type="line"/>
			<point x="109" y="720" type="line"/>
			<point x="64" y="600" type="line" smooth="yes"/>
			<point x="54" y="573"/>
			<point x="48" y="553"/>
			<point x="48" y="531" type="curve" smooth="yes"/>
			<point x="48" y="486"/>
			<point x="74" y="460"/>
			<point x="111" y="460" type="curve" smooth="yes"/>
			<point x="146" y="460"/>
			<point x="174" y="486"/>
			<point x="174" y="522" type="curve" smooth="yes"/>
			<point x="174" y="555"/>
			<point x="154" y="575"/>
			<point x="130" y="582" type="curve"/>
		</contour>
	</outline>
</glyph>
<glyph name="quoteright" format="2">
	<advance width="222"/>
	<unicode hex="2019"/>
	<outline>
		<contour>
			<point x="57" y="470" type="line"/>
			<point x="113" y="470" type="line"/>
			<point x="158" y="590" type="line" smooth="yes"/>
			<point x="168" y="617"/>
			<point x="174" y="637"/>
			<point x="174" y="659" type="curve" smooth="yes"/>
			<point x="174" y="704"/>
			<point x="148" y="730"/>
			<point x="111" y="730" type="curve" smooth="yes"/>
			<point x="76" y="730"/>
			<point x="48" y="704"/>
			<point x="48" y="668" type="curve" smooth="yes"/>
			<point x="48" y="635"/>
			<point x="68" y="615"/>
			<point x="92" y="608" type="curve"/>
		</contour>
	</outline>
</glyph>
<glyph name="dagger" format="2">
	<advance width="442"/>
	<unicode hex="2020"/>
	<outline>
		<contour>
			<point x="180" y="-185" type="line"/>
			<point x="262" y="-185" type="line"/>
			<point x="262" y="720" type="line"/>
			<point x="180" y="720" type="line"/>
		</contour>
		<contour>
			<point x="30" y="445" type="line"/>
			<point x="412" y="445" type="line"/>
			<point x="412" y="515" type="line"/>
			<point x="30" y="515" type="line"/>
		</contour>
	</outline>
</glyph>
<glyph name="daggerdbl" format="1">
  <advance width="442"/>
  <unicode hex="2021"/>
  <outline>
    <contour>
      <point x="180" y="-185" type="line"/>
      <point x="262" y="-185" type="line"/>
      <point x="262" y="720" type="line"/>
      <point x="180" y="720" type="line"/>
    </contour>
    <contour>
      <point x="30" y="445" type="line"/>
      <point x="412" y="445" type="line"/>
      <point x="412" y="515" type="line"/>
      <point x="30" y="515" type="line"/>
    </contour>
    <contour>
      <point x="30" y="20" type="line"/>
      <point x="412" y="20" type="line"/>
      <point x="412" y="90" type="line"/>
      <point x="30" y="90" type="line"/>
    </contour>
  </outline>
</glyph>
<glyph name="guilsinglleft" format="2">
	<advance width="299"/>
	<unicode hex="2039"/>
	<outline>
		<contour>
			<point x="45" y="247" type="line"/>
			<point x="165" y="83" type="line"/>
			<point x="264" y="83" type="line"/>
			<point x="105" y="293" type="line"/>
			<point x="45" y="292" type="line"/>
		</contour>
		<contour>
			<point x="45" y="249" type="line"/>
			<point x="105" y="248" type="line"/>
			<point x="264" y="458" type="line"/>
			<point x="165" y="458" type="line"/>
			<point x="45" y="294" type="line"/>
		</contour>
	</outline>
</glyph>
<glyph name="guilsinglright" format="2">
  <advance width="299"/>
  <unicode hex="203A"/>
  <outline>
    <contour>
      <point x="35" y="83" type="line"/>
      <point x="134" y="83" type="line"/>
      <point x="254" y="247" type="line"/>
      <point x="254" y="292" type="line"/>
      <point x="194" y="293" type="line"/>
    </contour>
    <contour>
      <point x="35" y="458" type="line"/>
      <point x="194" y="248" type="line"/>
      <point x="254" y="249" type="line"/>
      <point x="254" y="294" type="line"/>
      <point x="134" y="458" type="line"/>
    </contour>
  </outline>
</glyph>
<glyph name="fraction" format="2">
	<advance width="500"/>
	<unicode hex="2044"/>
	<outline>
		<contour>
			<point x="0" y="0" type="line"/>
			<point x="80" y="0" type="line"/>
			<point x="500" y="690" type="line"/>
			<point x="420" y="690" type="line"/>
		</contour>
	</outline>
</glyph>
<glyph name="colonsign" format="2">
	<advance width="644"/>
	<unicode hex="20A1"/>
	<outline>
		<component base="C"/>
		<contour>
			<point x="126" y="-131" type="line"/>
			<point x="208" y="-131" type="line"/>
			<point x="388" y="804" type="line"/>
			<point x="306" y="804" type="line"/>
		</contour>
		<contour>
			<point x="266" y="-131" type="line"/>
			<point x="348" y="-131" type="line"/>
			<point x="528" y="804" type="line"/>
			<point x="446" y="804" type="line"/>
		</contour>
	</outline>
</glyph>
<glyph name="lira" format="2">
	<advance width="600"/>
	<unicode hex="20A4"/>
	<outline>
		<contour>
			<point x="50" y="0" type="line"/>
			<point x="540" y="0" type="line"/>
			<point x="540" y="81" type="line"/>
			<point x="50" y="81" type="line"/>
		</contour>
		<contour>
			<point x="50" y="30" type="line"/>
			<point x="170" y="60"/>
			<point x="249" y="150"/>
			<point x="249" y="260" type="curve" smooth="yes"/>
			<point x="249" y="340"/>
			<point x="209" y="380"/>
			<point x="209" y="464" type="curve" smooth="yes"/>
			<point x="209" y="560"/>
			<point x="261" y="612"/>
			<point x="344" y="612" type="curve" smooth="yes"/>
			<point x="411" y="612"/>
			<point x="458" y="571"/>
			<point x="482" y="527" type="curve"/>
			<point x="553" y="583" type="line"/>
			<point x="512" y="651"/>
			<point x="430" y="700"/>
			<point x="343" y="700" type="curve" smooth="yes"/>
			<point x="216" y="700"/>
			<point x="115" y="615"/>
			<point x="115" y="474" type="curve" smooth="yes"/>
			<point x="115" y="380"/>
			<point x="155" y="350"/>
			<point x="155" y="260" type="curve" smooth="yes"/>
			<point x="155" y="200"/>
			<point x="130" y="130"/>
			<point x="50" y="90" type="curve"/>
		</contour>
		<contour>
			<point x="50" y="235" type="line"/>
			<point x="430" y="235" type="line"/>
			<point x="430" y="315" type="line"/>
			<point x="50" y="315" type="line"/>
		</contour>
		<contour>
			<point x="50" y="375" type="line"/>
			<point x="430" y="375" type="line"/>
			<point x="430" y="455" type="line"/>
			<point x="50" y="455" type="line"/>
		</contour>
	</outline>
</glyph>
<glyph name="naira" format="2">
	<advance width="746"/>
	<unicode hex="20A6"/>
	<outline>
		<component base="N"/>
		<contour>
			<point x="10" y="311" type="line"/>
			<point x="736" y="311" type="line"/>
			<point x="736" y="391" type="line"/>
			<point x="10" y="391" type="line"/>
		</contour>
	</outline>
</glyph>
<glyph name="won" format="2">
	<advance width="961"/>
	<unicode hex="20A9"/>
	<outline>
		<component base="W"/>
		<contour>
			<point x="10" y="295" type="line"/>
			<point x="951" y="295" type="line"/>
			<point x="951" y="375" type="line"/>
			<point x="10" y="375" type="line"/>
		</contour>
	</outline>
</glyph>
<glyph name="dong" format="2">
	<advance width="586"/>
	<unicode hex="20AB"/>
	<outline>
		<contour>
			<point x="55" y="323" type="curve" smooth="yes"/>
			<point x="55" y="199"/>
			<point x="142" y="120"/>
			<point x="247" y="120" type="curve" smooth="yes"/>
			<point x="313" y="120"/>
			<point x="375" y="159"/>
			<point x="419" y="215" type="curve"/>
			<point x="419" y="287" type="line"/>
			<point x="375" y="237"/>
			<point x="325" y="205"/>
			<point x="272" y="205" type="curve" smooth="yes"/>
			<point x="202" y="205"/>
			<point x="149" y="249"/>
			<point x="149" y="326" type="curve" smooth="yes"/>
			<point x="149" y="399"/>
			<point x="200" y="458"/>
			<point x="283" y="458" type="curve"/>
			<point x="343" y="458"/>
			<point x="404" y="418"/>
			<point x="404" y="323" type="curve"/>
			<point x="444" y="333" type="line"/>
			<point x="444" y="481"/>
			<point x="354" y="535"/>
			<point x="267" y="535" type="curve"/>
			<point x="139" y="535"/>
			<point x="55" y="453"/>
		</contour>
		<contour>
			<point x="425" y="130" type="line"/>
			<point x="511" y="130" type="line"/>
			<point x="503" y="174" type="line" smooth="yes"/>
			<point x="498" y="203"/>
			<point x="496" y="224"/>
			<point x="496" y="252" type="curve" smooth="yes"/>
			<point x="496" y="735" type="line"/>
			<point x="404" y="715" type="line"/>
			<point x="404" y="230" type="line"/>
		</contour>
		<contour>
			<point x="50" y="0" type="line"/>
			<point x="538" y="0" type="line"/>
			<point x="538" y="80" type="line"/>
			<point x="50" y="80" type="line"/>
		</contour>
		<contour>
			<point x="278" y="580" type="line"/>
			<point x="576" y="580" type="line"/>
			<point x="576" y="660" type="line"/>
			<point x="278" y="660" type="line"/>
		</contour>
	</outline>
</glyph>
<glyph name="Euro" format="2">
	<advance width="600"/>
	<unicode hex="20AC"/>
	<outline>
		<contour>
			<point x="98" y="345" type="curve" smooth="yes"/>
			<point x="98" y="116"/>
			<point x="225" y="-10"/>
			<point x="379" y="-10" type="curve" smooth="yes"/>
			<point x="462" y="-10"/>
			<point x="531" y="24"/>
			<point x="590" y="84" type="curve"/>
			<point x="525" y="149" type="line"/>
			<point x="485" y="104"/>
			<point x="437" y="81"/>
			<point x="379" y="81" type="curve" smooth="yes"/>
			<point x="273" y="81"/>
			<point x="197" y="172"/>
			<point x="197" y="345" type="curve" smooth="yes"/>
			<point x="197" y="517"/>
			<point x="273" y="609"/>
			<point x="379" y="609" type="curve" smooth="yes"/>
			<point x="430" y="609"/>
			<point x="474" y="585"/>
			<point x="514" y="543" type="curve"/>
			<point x="582" y="608" type="line"/>
			<point x="523" y="665"/>
			<point x="455" y="700"/>
			<point x="379" y="700" type="curve" smooth="yes"/>
			<point x="225" y="700"/>
			<point x="98" y="573"/>
		</contour>
		<contour>
			<point x="30" y="215" type="line"/>
			<point x="430" y="215" type="line"/>
			<point x="430" y="295" type="line"/>
			<point x="30" y="295" type="line"/>
		</contour>
		<contour>
			<point x="30" y="395" type="line"/>
			<point x="430" y="395" type="line"/>
			<point x="430" y="475" type="line"/>
			<point x="30" y="475" type="line"/>
		</contour>
	</outline>
</glyph>
<glyph name="Euro" format="1">
  <advance width="600"/>
  <unicode hex="20AC"/>
  <outline>
    <contour>
      <point x="98.0" y="345" type="curve" smooth="yes"/>
      <point x="98.0" y="116"/>
      <point x="225.0" y="-10"/>
      <point x="379.0" y="-10" type="curve" smooth="yes"/>
      <point x="462.0" y="-10"/>
      <point x="531.0" y="24"/>
      <point x="590.0" y="84" type="curve"/>
      <point x="525.0" y="149" type="line"/>
      <point x="485.0" y="104"/>
      <point x="437.0" y="81"/>
      <point x="379.0" y="81" type="curve" smooth="yes"/>
      <point x="273.0" y="81"/>
      <point x="197.0" y="172"/>
      <point x="197.0" y="345" type="curve" smooth="yes"/>
      <point x="197.0" y="517"/>
      <point x="273.0" y="609"/>
      <point x="379.0" y="609" type="curve" smooth="yes"/>
      <point x="430.0" y="609"/>
      <point x="474.0" y="585"/>
      <point x="514.0" y="543" type="curve"/>
      <point x="582.0" y="608" type="line"/>
      <point x="523.0" y="665"/>
      <point x="455.0" y="700"/>
      <point x="379.0" y="700" type="curve" smooth="yes"/>
      <point x="225.0" y="700"/>
      <point x="98.0" y="573"/>
    </contour>
    <contour>
      <point x="30.0" y="215" type="line"/>
      <point x="430.0" y="215" type="line"/>
      <point x="430.0" y="295" type="line"/>
      <point x="30.0" y="295" type="line"/>
    </contour>
    <contour>
      <point x="30.0" y="395" type="line"/>
      <point x="430.0" y="395" type="line"/>
      <point x="430.0" y="475" type="line"/>
      <point x="30.0" y="475" type="line"/>
    </contour>
  </outline>
</glyph>
<glyph name="guarani" format="2">
	<advance width="701"/>
	<unicode hex="20B2"/>
	<outline>
		<contour>
			<point x="60" y="345" type="curve" smooth="yes"/>
			<point x="60" y="116"/>
			<point x="200" y="-10"/>
			<point x="378" y="-10" type="curve" smooth="yes"/>
			<point x="473" y="-10"/>
			<point x="560.25" y="28"/>
			<point x="621" y="82" type="curve"/>
			<point x="542" y="126" type="line"/>
			<point x="495.51899" y="91"/>
			<point x="446.13291" y="76"/>
			<point x="389" y="76" type="curve" smooth="yes"/>
			<point x="257" y="76"/>
			<point x="159" y="172"/>
			<point x="159" y="345" type="curve" smooth="yes"/>
			<point x="159" y="518"/>
			<point x="254.25234" y="609"/>
			<point x="383" y="609" type="curve" smooth="yes"/>
			<point x="442" y="609"/>
			<point x="494" y="586"/>
			<point x="538" y="543" type="curve"/>
			<point x="600" y="614" type="line"/>
			<point x="537" y="672"/>
			<point x="465" y="700"/>
			<point x="383" y="700" type="curve" smooth="yes"/>
			<point x="207" y="700"/>
			<point x="60" y="574"/>
		</contour>
		<contour>
			<point x="445" y="257" type="line"/>
			<point x="571" y="257" type="line"/>
			<point x="571" y="343" type="line"/>
			<point x="445" y="343" type="line"/>
		</contour>
		<contour>
			<point x="525" y="70" type="line"/>
			<point x="621" y="82" type="line"/>
			<point x="621" y="343" type="line"/>
			<point x="525" y="343" type="line"/>
		</contour>
		<contour>
			<point x="336" y="-125" type="line"/>
			<point x="418" y="-125" type="line"/>
			<point x="418" y="810" type="line"/>
			<point x="336" y="810" type="line"/>
		</contour>
	</outline>
</glyph>
<glyph name="cedi" format="2">
	<advance width="644"/>
	<unicode hex="20B5"/>
	<outline>
		<component base="C"/>
		<contour>
			<point x="316" y="-131" type="line"/>
			<point x="398" y="-131" type="line"/>
			<point x="398" y="804" type="line"/>
			<point x="316" y="804" type="line"/>
		</contour>
	</outline>
</glyph>
<glyph name="liraTurkish" format="2">
	<advance width="556"/>
	<unicode hex="20BA"/>
	<outline>
		<contour>
			<point x="100" y="0" type="line"/>
			<point x="196" y="0" type="line"/>
			<point x="196" y="690" type="line"/>
			<point x="100" y="690" type="line"/>
		</contour>
		<contour>
			<point x="180" y="0" type="line"/>
			<point x="372" y="0"/>
			<point x="482" y="97"/>
			<point x="482" y="276" type="curve"/>
			<point x="404" y="276" type="line"/>
			<point x="404" y="185"/>
			<point x="353" y="86"/>
			<point x="180" y="86" type="curve"/>
		</contour>
		<contour>
			<point x="10" y="215" type="line"/>
			<point x="330" y="295" type="line"/>
			<point x="330" y="375" type="line"/>
			<point x="10" y="295" type="line"/>
		</contour>
		<contour>
			<point x="10" y="355" type="line"/>
			<point x="330" y="435" type="line"/>
			<point x="330" y="515" type="line"/>
			<point x="10" y="435" type="line"/>
		</contour>
	</outline>
</glyph>
<glyph name="litre" format="2">
	<advance width="500"/>
	<unicode hex="2113"/>
	<outline>
		<contour>
			<point x="120" y="152" type="line" smooth="yes"/>
			<point x="120" y="48"/>
			<point x="190" y="-10"/>
			<point x="274" y="-10" type="curve" smooth="yes"/>
			<point x="310" y="-10"/>
			<point x="347" y="-1"/>
			<point x="379" y="11" type="curve"/>
			<point x="363" y="90" type="line"/>
			<point x="335" y="79"/>
			<point x="312" y="73"/>
			<point x="290" y="73" type="curve" smooth="yes"/>
			<point x="236" y="73"/>
			<point x="212" y="103"/>
			<point x="212" y="156" type="curve" smooth="yes"/>
			<point x="212" y="554" type="line" smooth="yes"/>
			<point x="212" y="610"/>
			<point x="233" y="651"/>
			<point x="275" y="651" type="curve" smooth="yes"/>
			<point x="317" y="651"/>
			<point x="338" y="610"/>
			<point x="338" y="554" type="curve" smooth="yes"/>
			<point x="338" y="380"/>
			<point x="210" y="290"/>
			<point x="40" y="220" type="curve"/>
			<point x="70" y="146" type="line"/>
			<point x="250" y="220"/>
			<point x="430" y="340"/>
			<point x="430" y="557" type="curve" smooth="yes"/>
			<point x="430" y="665"/>
			<point x="365" y="730"/>
			<point x="275" y="730" type="curve" smooth="yes"/>
			<point x="185" y="730"/>
			<point x="120" y="665"/>
			<point x="120" y="557" type="curve" smooth="yes"/>
		</contour>
	</outline>
</glyph>
<glyph name="trademark" format="2">
  <advance width="920"/>
  <unicode hex="2122"/>
  <outline>
    <contour>
      <point x="40" y="618" type="line"/>
      <point x="360" y="618" type="line"/>
      <point x="360" y="690" type="line"/>
      <point x="40" y="690" type="line"/>
    </contour>
    <contour>
      <point x="160" y="290" type="line"/>
      <point x="240" y="290" type="line"/>
      <point x="240" y="690" type="line"/>
      <point x="160" y="690" type="line"/>
    </contour>
    <contour>
      <point x="426" y="290" type="line"/>
      <point x="500" y="290" type="line"/>
      <point x="500" y="690" type="line"/>
      <point x="426" y="690" type="line"/>
    </contour>
    <contour>
      <point x="462" y="690" type="line"/>
      <point x="585" y="369" type="line"/>
      <point x="636" y="369" type="line"/>
      <point x="636" y="426" type="line"/>
      <point x="538" y="690" type="line"/>
    </contour>
    <contour>
      <point x="610" y="426" type="line"/>
      <point x="610" y="369" type="line"/>
      <point x="661" y="369" type="line"/>
      <point x="784" y="690" type="line"/>
      <point x="708" y="690" type="line"/>
    </contour>
    <contour>
      <point x="746" y="290" type="line"/>
      <point x="820" y="290" type="line"/>
      <point x="820" y="690" type="line"/>
      <point x="746" y="690" type="line"/>
    </contour>
  </outline>
</glyph>
<glyph name="partialdiff" format="2">
  <advance width="640"/>
  <unicode hex="2202"/>
  <outline>
    <contour>
      <point x="180" y="480"/>
      <point x="60" y="360"/>
      <point x="60" y="200" type="curve" smooth="yes"/>
      <point x="60" y="70"/>
      <point x="140" y="-10"/>
      <point x="250" y="-10" type="curve" smooth="yes"/>
      <point x="410" y="-10"/>
      <point x="544" y="140"/>
      <point x="544" y="390" type="curve" smooth="yes"/>
      <point x="544" y="560"/>
      <point x="470" y="730"/>
      <point x="300" y="730" type="curve" smooth="yes"/>
      <point x="260" y="730"/>
      <point x="220" y="724"/>
      <point x="190" y="715" type="curve"/>
      <point x="200" y="635" type="line"/>
      <point x="220" y="642"/>
      <point x="250" y="650"/>
      <point x="280" y="650" type="curve" smooth="yes"/>
      <point x="400" y="650"/>
      <point x="452" y="530"/>
      <point x="452" y="390" type="curve" smooth="yes"/>
      <point x="452" y="200"/>
      <point x="370" y="71"/>
      <point x="260" y="71" type="curve" smooth="yes"/>
      <point x="198" y="71"/>
      <point x="154" y="110"/>
      <point x="154" y="200" type="curve" smooth="yes"/>
      <point x="154" y="320"/>
      <point x="230" y="399"/>
      <point x="330" y="399" type="curve" smooth="yes"/>
      <point x="390" y="399"/>
      <point x="439" y="364"/>
      <point x="456" y="310" type="curve"/>
      <point x="471" y="380" type="line"/>
      <point x="451" y="430"/>
      <point x="410" y="480"/>
      <point x="318" y="480" type="curve" smooth="yes"/>
    </contour>
  </outline>
</glyph>
<glyph name="product" format="1">
  <advance width="740"/>
  <unicode hex="220F"/>
  <outline>
    <contour>
      <point x="145" y="-185" type="line"/>
      <point x="241" y="-185" type="line"/>
      <point x="241" y="690" type="line"/>
      <point x="145" y="690" type="line"/>
    </contour>
    <contour>
      <point x="60" y="604" type="line"/>
      <point x="680" y="604" type="line"/>
      <point x="680" y="690" type="line"/>
      <point x="60" y="690" type="line"/>
    </contour>
    <contour>
      <point x="499" y="-185" type="line"/>
      <point x="595" y="-185" type="line"/>
      <point x="595" y="690" type="line"/>
      <point x="499" y="690" type="line"/>
    </contour>
  </outline>
</glyph>
